<svg width="480" height="571" viewBox="0 0 480 571" fill="none" xmlns="http://www.w3.org/2000/svg">
<path fill-rule="evenodd" clip-rule="evenodd" d="M220.179 197.584C113.246 259.058 123.911 437.824 244.283 484.708C196.143 529.3 119.736 565.564 38.949 443.402C-11.4604 354.504 6.88274 288.524 56.3681 226.604C119.417 157.783 162.035 148.075 220.179 197.584Z" fill="#4E78F4"/>
<path fill-rule="evenodd" clip-rule="evenodd" d="M305.09 388.555C327.597 357.23 368.139 332.407 418.708 364.747C454.915 387.939 427.834 433.808 402.042 463.924C373.427 497.405 335.677 521.825 293.408 534.199C251.138 546.573 206.179 546.365 164.026 533.6L168.11 528.147C126.712 536.874 78.3333 521.999 31.2206 450.577C-19.3371 361.713 -4.06253 274.583 45.3772 212.823C86.9687 167.456 124.408 153.767 161.733 163.931L160.467 158.935C174.174 154.366 188.319 151.235 202.674 149.592C276.628 141.151 371.025 158.034 398.072 119.511L426.693 134.249C462.934 214.17 475.745 244.901 451.983 272.199C398.289 333.388 323.273 288.592 261.206 248.631C190.639 200.72 86.9687 190.887 50.8528 281.416C14.4859 372.607 84.4704 498.682 176.334 481.788C219.979 473.723 280.165 423.142 305.09 388.555Z" fill="#677294"/>
<path fill-rule="evenodd" clip-rule="evenodd" d="M31.1562 450.617C114.681 577.091 218.671 506.148 268.522 462.093L269.252 461.442C271.533 459.435 273.815 457.347 276.096 455.294C295.174 437.482 312.547 417.929 327.989 396.888C353.895 361.525 392.258 346.113 424.952 368.483C465.813 396.306 465.813 446.35 436.359 480.618C328.81 604.058 141.341 592.171 61.0551 493.691C49.9042 480.192 39.903 465.784 31.1562 450.617Z" fill="#051441"/>
<path fill-rule="evenodd" clip-rule="evenodd" d="M31.1562 450.613C114.636 577.087 215.363 504.593 265.214 460.526L265.944 459.876C268.225 457.868 270.507 455.781 272.788 453.728C291.877 435.915 309.251 416.349 324.681 395.287C350.632 359.924 392.144 346.11 424.792 368.48C440.463 378.662 451.504 394.595 455.535 412.843C450.121 398.997 440.614 387.131 428.283 378.826C395.794 356.126 354.135 369.564 327.897 404.641C312.295 425.511 294.769 444.871 275.549 462.466C273.267 464.553 270.986 466.561 268.647 468.569L267.872 469.264C220.508 510.251 127.846 576.106 48.4043 477.25C42.1899 468.681 36.4325 459.79 31.1562 450.613Z" fill="#4E78F4"/>
<path fill-rule="evenodd" clip-rule="evenodd" d="M426.691 0C494.85 113.481 488.222 225.08 458.928 263.933C414.302 323.149 345.584 274.588 274.231 229.506C253.8 215.897 234.795 203.896 216.657 194.017L215.437 193.276C148.133 156.772 94.4041 157.582 45.375 212.828C64.4969 188.849 88.2376 168.952 115.19 154.317C142.143 139.682 171.759 130.605 202.284 127.626C305.293 116.07 439.604 103.237 426.691 0Z" fill="#051441"/>
<path fill-rule="evenodd" clip-rule="evenodd" d="M121.094 150.897C147.838 136.948 176.928 128.053 206.9 124.66C309.989 113.07 434.045 89.8791 426.733 0C463.921 131.596 423.014 182.747 344.234 163.936C282.737 149.266 193.417 119.059 121.094 150.897Z" fill="#07112D"/>
<path fill-rule="evenodd" clip-rule="evenodd" d="M477.716 211.679C475.753 230.352 469.321 248.277 458.962 263.937C414.336 323.118 345.778 282.097 274.436 236.764C254.005 223.155 235.046 211.155 216.908 201.23L215.688 200.546C148.259 163.928 94.4269 157.585 45.375 212.831C55.3401 200.385 66.5679 189.004 78.8786 178.872C119.74 152.566 165.141 161.612 218.95 189.606L220.171 190.256C238.309 199.724 257.439 211.36 277.87 224.478C349.212 268.294 417.736 307.924 462.362 247.715C469.762 236.809 474.976 224.571 477.716 211.679Z" fill="#4E78F4"/>
</svg>
