<svg width="271" height="271" viewBox="0 0 271 271" fill="none" xmlns="http://www.w3.org/2000/svg">
<path d="M237.125 16.8125C246.123 16.8125 254.062 24.752 254.062 33.75C254.062 43.2773 246.123 50.6875 237.125 50.6875H42.3438C37.5801 50.6875 33.875 54.9219 33.875 59.1562C33.875 63.9199 37.5801 67.625 42.3438 67.625H237.125C255.65 67.625 271 82.9746 271 101.5V220.062C271 239.117 255.65 253.938 237.125 253.938H33.875C14.8203 253.938 0 239.117 0 220.062V50.6875C0 32.1621 14.8203 16.8125 33.875 16.8125H237.125ZM220.188 177.719C229.186 177.719 237.125 170.309 237.125 160.781C237.125 151.783 229.186 143.844 220.188 143.844C210.66 143.844 203.25 151.783 203.25 160.781C203.25 170.309 210.66 177.719 220.188 177.719Z" fill="#FFD100"/>
</svg>
