<svg width="1094" height="436" viewBox="0 0 1094 436" fill="none" xmlns="http://www.w3.org/2000/svg">
<g clip-path="url(#clip0_493_54481)">
<path d="M922.78 194.987L871.773 220.438L872.65 210.136L908.268 172.535L922.78 194.987Z" fill="#98863C"/>
<path d="M875.125 150.48L991.825 259.049C997.313 264.153 1006.23 261.947 1008.71 254.873L1093.05 13.8359C1095.8 5.96852 1088.63 -1.77607 1080.58 0.362488L813.454 71.3536C805.553 73.453 803.062 83.4311 809.042 89.0036L875.12 150.48" fill="#FFDE59"/>
<path d="M1057.26 34.5508L907.972 181.005L872.516 219.846C869.83 222.543 865.268 220.242 865.838 216.484L875.788 151.055L1057.26 34.5508Z" fill="#DDC04B"/>
<path opacity="0.2" d="M652.594 348.557C651.952 348.557 651.337 348.189 651.064 347.564C650.69 346.72 651.064 345.727 651.912 345.352C653.995 344.426 656.072 343.493 658.149 342.555C658.993 342.175 659.987 342.549 660.366 343.393C660.746 344.236 660.372 345.23 659.529 345.609C657.446 346.553 655.363 347.485 653.269 348.412C653.046 348.513 652.817 348.557 652.588 348.557H652.594ZM270.111 345.799C269.692 345.799 269.273 345.643 268.949 345.33C267.308 343.744 265.666 342.164 264.019 340.584C263.349 339.942 263.327 338.881 263.969 338.216C264.611 337.546 265.672 337.53 266.336 338.166C267.983 339.746 269.631 341.332 271.272 342.918C271.937 343.56 271.959 344.621 271.317 345.285C270.987 345.626 270.552 345.799 270.111 345.799ZM35.7855 345.492C35.4169 345.492 35.0484 345.369 34.7357 345.123C34.0154 344.543 33.8982 343.487 34.4789 342.767C35.9195 340.975 37.4103 339.188 38.9067 337.463C39.5154 336.765 40.5707 336.687 41.2686 337.295C41.9666 337.898 42.0448 338.959 41.4362 339.657C39.9676 341.349 38.5047 343.102 37.092 344.861C36.7626 345.274 36.2768 345.486 35.7855 345.486V345.492ZM414.042 345.447C413.601 345.447 413.165 345.274 412.836 344.934C411.233 343.27 409.664 341.544 408.162 339.813C407.559 339.115 407.632 338.055 408.329 337.451C409.027 336.848 410.088 336.921 410.691 337.619C412.154 339.311 413.69 340.992 415.248 342.611C415.89 343.275 415.867 344.336 415.203 344.978C414.879 345.291 414.46 345.447 414.042 345.447ZM674.381 338.585C673.75 338.585 673.153 338.228 672.863 337.625C672.466 336.787 672.829 335.788 673.667 335.397C675.727 334.425 677.787 333.448 679.842 332.465C680.68 332.063 681.679 332.421 682.076 333.253C682.472 334.085 682.12 335.09 681.288 335.486C679.228 336.474 677.162 337.451 675.096 338.429C674.867 338.535 674.621 338.591 674.381 338.591V338.585ZM478.723 332.89C478.466 332.89 478.209 332.834 477.964 332.705C477.137 332.287 476.808 331.281 477.227 330.455C478.243 328.451 479.231 326.401 480.158 324.352C480.538 323.509 481.532 323.135 482.375 323.52C483.218 323.9 483.592 324.894 483.207 325.737C482.258 327.831 481.247 329.93 480.208 331.974C479.912 332.555 479.326 332.89 478.712 332.89H478.723ZM252.678 329.355C252.276 329.355 251.874 329.21 251.556 328.92C249.82 327.345 248.105 325.826 246.458 324.397C245.76 323.788 245.688 322.733 246.291 322.035C246.899 321.337 247.955 321.264 248.653 321.867C250.311 323.308 252.048 324.843 253.801 326.435C254.488 327.055 254.538 328.116 253.918 328.802C253.589 329.165 253.131 329.355 252.673 329.355H252.678ZM695.945 328.138C695.331 328.138 694.739 327.797 694.443 327.211C694.03 326.385 694.371 325.38 695.197 324.966C697.235 323.95 699.273 322.928 701.306 321.901C702.132 321.482 703.137 321.812 703.556 322.638C703.975 323.464 703.64 324.469 702.819 324.888C700.781 325.921 698.737 326.943 696.688 327.965C696.448 328.082 696.191 328.143 695.945 328.143V328.138ZM52.0061 327.892C51.5594 327.892 51.1127 327.713 50.7833 327.367C50.1467 326.692 50.1802 325.631 50.8558 325C52.5365 323.42 54.2619 321.862 55.9928 320.371C56.6908 319.768 57.7517 319.846 58.3547 320.544C58.9578 321.242 58.8796 322.303 58.1817 322.906C56.4898 324.363 54.7979 325.893 53.1507 327.44C52.8269 327.741 52.4137 327.892 52.0005 327.892H52.0061ZM399.116 326.742C398.569 326.742 398.033 326.474 397.715 325.983C396.447 324.045 395.225 322.057 394.08 320.069C393.616 319.265 393.89 318.244 394.694 317.78C395.493 317.317 396.52 317.596 396.983 318.394C398.1 320.326 399.29 322.264 400.518 324.146C401.026 324.922 400.808 325.96 400.032 326.463C399.747 326.647 399.429 326.736 399.116 326.736V326.742ZM717.281 317.227C716.678 317.227 716.097 316.903 715.795 316.328C715.366 315.508 715.678 314.497 716.499 314.067C718.515 313.006 720.531 311.94 722.541 310.868C723.362 310.432 724.372 310.745 724.808 311.56C725.243 312.375 724.936 313.391 724.115 313.827C722.1 314.905 720.078 315.971 718.057 317.032C717.811 317.16 717.543 317.222 717.281 317.222V317.227ZM234.269 314.022C233.917 314.022 233.565 313.911 233.264 313.687C231.427 312.308 229.573 310.974 227.764 309.717C227.005 309.192 226.815 308.148 227.345 307.389C227.87 306.629 228.914 306.44 229.674 306.97C231.516 308.249 233.398 309.611 235.274 311.013C236.017 311.565 236.162 312.621 235.609 313.358C235.28 313.799 234.777 314.028 234.269 314.028V314.022ZM70.6277 312.866C70.0917 312.866 69.5668 312.61 69.243 312.141C68.7181 311.376 68.9135 310.337 69.6785 309.812C71.5825 308.511 73.5312 307.238 75.4743 306.032C76.2617 305.546 77.2946 305.786 77.7804 306.574C78.2662 307.361 78.0261 308.394 77.2388 308.88C75.3403 310.058 73.4307 311.297 71.5713 312.576C71.281 312.777 70.9516 312.872 70.6277 312.872V312.866ZM487.897 310.773C487.724 310.773 487.545 310.745 487.372 310.689C486.496 310.398 486.015 309.455 486.306 308.573C487.009 306.44 487.674 304.262 488.282 302.096C488.534 301.208 489.455 300.688 490.348 300.94C491.236 301.191 491.755 302.118 491.504 303.006C490.879 305.217 490.203 307.445 489.483 309.622C489.248 310.326 488.595 310.773 487.892 310.773H487.897ZM738.37 305.848C737.779 305.848 737.209 305.535 736.902 304.982C736.455 304.173 736.746 303.151 737.555 302.704C739.549 301.599 741.536 300.493 743.524 299.376C744.328 298.918 745.35 299.209 745.802 300.018C746.255 300.828 745.97 301.844 745.16 302.297C743.167 303.413 741.173 304.53 739.174 305.636C738.918 305.775 738.638 305.848 738.365 305.848H738.37ZM388.061 305.518C387.396 305.518 386.765 305.122 386.503 304.463C385.643 302.319 384.839 300.13 384.107 297.947C383.811 297.07 384.286 296.121 385.163 295.825C386.045 295.529 386.989 296.004 387.285 296.88C387.999 299.002 388.781 301.135 389.619 303.218C389.965 304.078 389.546 305.055 388.686 305.395C388.479 305.479 388.273 305.518 388.066 305.518H388.061ZM214.034 301.247C213.782 301.247 213.531 301.191 213.291 301.074C211.303 300.091 209.237 299.142 207.155 298.26C206.3 297.897 205.904 296.914 206.267 296.065C206.63 295.216 207.612 294.814 208.461 295.177C210.605 296.087 212.727 297.059 214.771 298.075C215.603 298.483 215.938 299.488 215.53 300.32C215.24 300.912 214.642 301.252 214.028 301.252L214.034 301.247ZM91.4046 300.99C90.7737 300.99 90.1706 300.633 89.8859 300.024C89.495 299.186 89.8579 298.187 90.6955 297.796C92.7782 296.825 94.9112 295.892 97.0386 295.021C97.8929 294.669 98.8756 295.082 99.2218 295.937C99.568 296.791 99.1604 297.774 98.3061 298.12C96.2289 298.969 94.1462 299.884 92.1082 300.834C91.8792 300.94 91.6391 300.99 91.399 300.99H91.4046ZM759.209 294.016C758.634 294.016 758.07 293.72 757.763 293.184C757.299 292.385 757.567 291.358 758.366 290.895C760.337 289.75 762.302 288.594 764.262 287.438C765.06 286.969 766.088 287.232 766.557 288.03C767.026 288.829 766.764 289.856 765.965 290.325C764 291.487 762.029 292.642 760.052 293.793C759.784 293.949 759.494 294.022 759.209 294.022V294.016ZM191.66 292.765C191.509 292.765 191.358 292.743 191.208 292.704C189.052 292.106 186.847 291.548 184.647 291.051C183.742 290.844 183.178 289.951 183.385 289.046C183.591 288.142 184.485 287.578 185.389 287.785C187.64 288.293 189.901 288.862 192.107 289.476C193 289.722 193.519 290.649 193.274 291.537C193.067 292.279 192.391 292.765 191.66 292.765ZM113.862 292.721C113.125 292.721 112.455 292.235 112.249 291.492C112.003 290.599 112.528 289.677 113.416 289.432C115.627 288.823 117.882 288.254 120.133 287.751C121.032 287.55 121.931 288.114 122.137 289.019C122.338 289.923 121.774 290.816 120.87 291.023C118.675 291.52 116.464 292.073 114.309 292.665C114.158 292.704 114.007 292.726 113.862 292.726V292.721ZM168.141 288.309C168.08 288.309 168.024 288.309 167.963 288.298C165.729 288.064 163.462 287.879 161.218 287.745C160.296 287.69 159.587 286.897 159.643 285.975C159.699 285.054 160.492 284.356 161.413 284.401C163.708 284.535 166.031 284.725 168.314 284.965C169.236 285.06 169.9 285.886 169.805 286.807C169.716 287.667 168.99 288.309 168.141 288.309ZM137.381 288.287C136.532 288.287 135.806 287.645 135.717 286.785C135.622 285.864 136.292 285.043 137.208 284.948C139.497 284.708 141.814 284.524 144.109 284.39C145.03 284.345 145.823 285.043 145.879 285.964C145.935 286.886 145.226 287.678 144.305 287.734C142.065 287.863 139.793 288.047 137.559 288.276C137.498 288.281 137.442 288.287 137.386 288.287H137.381ZM493.654 287.528C493.559 287.528 493.47 287.522 493.375 287.505C492.465 287.349 491.85 286.484 492.001 285.573C492.375 283.357 492.71 281.106 492.989 278.873C493.107 277.957 493.944 277.31 494.86 277.421C495.776 277.538 496.429 278.376 496.312 279.292C496.027 281.57 495.686 283.876 495.301 286.137C495.161 286.953 494.452 287.533 493.654 287.533V287.528ZM381.366 282.547C380.579 282.547 379.875 281.989 379.724 281.185C379.294 278.923 378.92 276.617 378.613 274.339C378.49 273.423 379.132 272.58 380.048 272.457C380.969 272.34 381.807 272.977 381.93 273.892C382.226 276.115 382.589 278.359 383.007 280.559C383.181 281.469 382.583 282.346 381.673 282.519C381.567 282.541 381.461 282.547 381.36 282.547H381.366ZM779.785 281.732C779.221 281.732 778.668 281.447 778.355 280.933C777.869 280.146 778.121 279.113 778.908 278.633C780.851 277.444 782.789 276.249 784.726 275.048C785.514 274.562 786.547 274.802 787.032 275.59C787.518 276.377 787.278 277.41 786.491 277.896C784.548 279.102 782.604 280.302 780.656 281.492C780.382 281.659 780.081 281.737 779.785 281.737V281.732ZM800.081 268.995C799.529 268.995 798.993 268.722 798.669 268.225C798.166 267.449 798.395 266.41 799.171 265.908C801.086 264.674 803.002 263.44 804.911 262.194C805.687 261.692 806.726 261.91 807.229 262.686C807.731 263.462 807.513 264.501 806.737 265.003C804.822 266.248 802.901 267.493 800.98 268.727C800.701 268.906 800.388 268.995 800.076 268.995H800.081ZM495.859 263.691C495.859 263.691 495.837 263.691 495.832 263.691C494.905 263.674 494.168 262.915 494.184 261.988C494.201 261.111 494.207 260.229 494.207 259.352C494.207 257.979 494.19 256.588 494.151 255.215C494.129 254.288 494.854 253.517 495.781 253.495C496.719 253.456 497.473 254.199 497.501 255.126C497.54 256.527 497.557 257.945 497.557 259.352C497.557 260.251 497.551 261.15 497.535 262.049C497.518 262.965 496.77 263.696 495.859 263.696V263.691ZM379.132 258.721C378.205 258.721 377.457 257.973 377.457 257.046C377.457 254.746 377.519 252.412 377.642 250.111C377.692 249.184 378.496 248.481 379.406 248.526C380.327 248.576 381.036 249.363 380.992 250.29C380.875 252.529 380.813 254.802 380.813 257.046C380.813 257.973 380.065 258.721 379.138 258.721H379.132ZM820.093 255.812C819.557 255.812 819.027 255.555 818.703 255.075C818.184 254.31 818.39 253.266 819.155 252.747C821.043 251.474 822.93 250.195 824.812 248.905C825.577 248.386 826.621 248.581 827.14 249.341C827.665 250.106 827.464 251.144 826.704 251.669C824.817 252.959 822.93 254.243 821.031 255.522C820.747 255.717 820.417 255.807 820.099 255.807L820.093 255.812ZM839.809 242.194C839.285 242.194 838.765 241.948 838.441 241.485C837.905 240.731 838.084 239.681 838.843 239.151C840.703 237.833 842.562 236.515 844.41 235.186C845.164 234.65 846.208 234.818 846.75 235.571C847.291 236.325 847.118 237.369 846.365 237.911C844.505 239.24 842.646 240.569 840.781 241.887C840.485 242.093 840.15 242.194 839.815 242.194H839.809ZM494.424 239.793C493.604 239.793 492.883 239.184 492.766 238.346C492.453 236.113 492.09 233.863 491.688 231.663C491.521 230.753 492.124 229.882 493.034 229.709C493.939 229.541 494.815 230.138 494.988 231.054C495.402 233.304 495.776 235.599 496.094 237.889C496.222 238.804 495.58 239.653 494.665 239.776C494.586 239.787 494.508 239.793 494.43 239.793H494.424ZM381.371 234.896C381.265 234.896 381.165 234.885 381.059 234.868C380.149 234.695 379.551 233.818 379.724 232.908C380.154 230.641 380.651 228.363 381.198 226.129C381.422 225.23 382.326 224.678 383.225 224.901C384.124 225.124 384.671 226.029 384.454 226.928C383.918 229.1 383.437 231.322 383.019 233.528C382.868 234.332 382.164 234.89 381.377 234.89L381.371 234.896ZM489.265 216.414C488.55 216.414 487.886 215.95 487.663 215.23C486.998 213.075 486.278 210.914 485.524 208.809C485.211 207.938 485.664 206.977 486.535 206.665C487.406 206.352 488.366 206.804 488.679 207.675C489.455 209.825 490.192 212.036 490.868 214.247C491.141 215.13 490.644 216.068 489.757 216.341C489.595 216.391 489.427 216.414 489.265 216.414ZM388.038 211.913C387.832 211.913 387.62 211.874 387.419 211.796C386.559 211.455 386.14 210.478 386.48 209.618C387.335 207.474 388.256 205.33 389.228 203.247C389.619 202.41 390.612 202.047 391.456 202.432C392.293 202.823 392.656 203.817 392.271 204.66C391.327 206.687 390.428 208.775 389.596 210.858C389.334 211.511 388.703 211.913 388.038 211.913ZM480.242 194.247C479.644 194.247 479.069 193.928 478.768 193.37C477.685 191.365 476.534 189.417 475.351 187.591C474.848 186.815 475.066 185.776 475.842 185.274C476.618 184.771 477.657 184.989 478.159 185.765C479.393 187.669 480.588 189.69 481.716 191.773C482.157 192.588 481.85 193.604 481.04 194.045C480.789 194.185 480.515 194.247 480.247 194.247H480.242ZM399.139 190.729C398.809 190.729 398.48 190.634 398.184 190.433C397.425 189.908 397.235 188.864 397.76 188.104C399.094 186.178 400.512 184.302 401.97 182.532C402.556 181.817 403.611 181.717 404.326 182.303C405.041 182.889 405.141 183.945 404.555 184.659C403.153 186.357 401.791 188.16 400.512 190.008C400.188 190.478 399.664 190.729 399.133 190.729H399.139ZM465.769 175.284C465.372 175.284 464.976 175.145 464.652 174.86C462.966 173.358 461.213 172.001 459.437 170.828C458.666 170.32 458.449 169.282 458.962 168.506C459.471 167.735 460.509 167.517 461.285 168.031C463.195 169.293 465.082 170.75 466.891 172.364C467.584 172.978 467.639 174.039 467.025 174.731C466.696 175.1 466.238 175.29 465.775 175.29L465.769 175.284ZM415.633 173.481C415.114 173.481 414.606 173.241 414.276 172.788C413.735 172.04 413.896 170.99 414.65 170.449C416.605 169.031 418.609 167.763 420.619 166.674C421.434 166.233 422.451 166.535 422.892 167.35C423.333 168.165 423.031 169.181 422.216 169.622C420.334 170.639 418.453 171.834 416.621 173.162C416.325 173.38 415.979 173.481 415.639 173.481H415.633ZM444.501 165.1C444.428 165.1 444.361 165.1 444.288 165.088C444.127 165.066 443.97 165.049 443.808 165.033C441.809 164.809 439.782 164.765 437.783 164.904C436.857 164.96 436.064 164.273 435.997 163.346C435.935 162.425 436.628 161.627 437.555 161.56C439.755 161.409 441.988 161.453 444.182 161.699C444.361 161.721 444.534 161.738 444.713 161.761C445.629 161.878 446.282 162.715 446.165 163.631C446.058 164.48 445.338 165.094 444.506 165.094L444.501 165.1Z" fill="#DCD8D8"/>
</g>
<defs>
<clipPath id="clip0_493_54481">
<rect width="1093.65" height="435.472" fill="white"/>
</clipPath>
</defs>
</svg>
