<svg width="150" height="35" viewBox="0 0 150 35" fill="none" xmlns="http://www.w3.org/2000/svg">
<g clip-path="url(#clip0_329_201667)">
<g clip-path="url(#clip1_329_201667)">
<path d="M16.7535 27.0946C11.5951 26.8281 7.48681 22.5915 7.48681 17.3715C7.48681 17.298 7.49602 17.2245 7.49602 17.1602H0.265071C0.265071 17.2337 0.255859 17.3072 0.255859 17.3715C0.255859 26.5708 7.59735 34.0423 16.7535 34.3088V27.0946Z" fill="white"/>
<path d="M16.9492 24.7328C22.1076 24.9993 26.2159 29.2359 26.2159 34.4558C26.2159 34.5294 26.2067 34.6029 26.2067 34.6672H33.4376C33.4376 34.5937 33.4468 34.5202 33.4468 34.4558C33.4468 25.2566 26.1054 17.7851 16.9492 17.5186V24.7328Z" fill="white"/>
<path d="M33.8062 10.2675C28.6478 10.001 24.5395 5.76433 24.5395 0.544379C24.5395 0.470859 24.5488 0.397338 24.5488 0.333008H17.3178C17.3178 0.406528 17.3086 0.480049 17.3086 0.544379C17.3086 9.74363 24.6501 17.2151 33.8062 17.4817V10.2675Z" fill="#6700F6"/>
<path d="M16.7515 10.2675C11.5931 10.001 7.48486 5.76433 7.48486 0.544379C7.48486 0.470859 7.49407 0.397338 7.49407 0.333008H0.263118C0.263118 0.406528 0.253906 0.480049 0.253906 0.544379C0.253906 9.74363 7.5954 17.2151 16.7515 17.4817V10.2675Z" fill="white"/>
</g>
<path d="M57.663 21.5749C56.9045 23.1034 55.1826 24.0631 53.2898 23.6587C51.8207 23.3434 50.6317 22.1507 50.3242 20.6701C49.7912 18.1272 51.7113 15.8858 54.1508 15.8858C55.8044 15.8858 57.212 16.9139 57.7929 18.3602C57.8544 18.511 57.991 18.6138 58.1482 18.6138H60.4373C60.6559 18.6138 60.8268 18.4082 60.7721 18.1957C60.0478 15.2003 57.3555 12.9727 54.1439 12.9727C50.5224 12.9727 47.4475 15.9612 47.3313 19.6009C47.2151 23.4736 50.3105 26.654 54.1439 26.654C57.2325 26.654 59.836 24.5908 60.6764 21.7668C60.7379 21.5544 60.5671 21.335 60.3485 21.335H58.0115C57.8612 21.335 57.7245 21.4241 57.6562 21.5612L57.663 21.5749Z" fill="white"/>
<path d="M69.0052 13.5483C65.3972 13.5483 62.4727 16.482 62.4727 20.1011C62.4727 23.7203 65.3972 26.6539 69.0052 26.6539C72.6131 26.6539 75.5377 23.7203 75.5377 20.1011C75.5377 16.482 72.6131 13.5483 69.0052 13.5483ZM69.0052 23.8642C66.9347 23.8642 65.2538 22.178 65.2538 20.1011C65.2538 18.0243 66.9347 16.3381 69.0052 16.3381C71.0756 16.3381 72.7566 18.0243 72.7566 20.1011C72.7566 22.178 71.0756 23.8642 69.0052 23.8642Z" fill="white"/>
<path d="M88.9679 18.6547V26.2699C88.9679 26.4824 88.797 26.6538 88.5852 26.6538H86.3781C86.1663 26.6538 85.9955 26.4824 85.9955 26.2699V20.0187C85.9955 17.3181 85.2848 16.1391 83.2212 16.1391C81.2874 16.1391 80.2009 17.4209 80.2009 19.6623V26.2699C80.2009 26.4824 80.0301 26.6538 79.8183 26.6538H77.6112C77.3993 26.6538 77.2285 26.4824 77.2285 26.2699V8.72269C77.2285 8.51021 77.3993 8.3457 77.6043 8.3457H79.8114C80.0233 8.3457 80.1873 8.51706 80.1873 8.72269V15.7005C80.9731 14.3364 82.449 13.5962 84.3213 13.5962C87.3689 13.5962 88.9474 15.3166 88.9474 18.6479L88.9679 18.6547Z" fill="white"/>
<path d="M102.65 20.944H93.5965C93.6785 22.966 94.9836 24.0559 97.136 24.0559C98.5027 24.0559 99.35 23.6583 99.8556 22.8084C99.9308 22.685 100.054 22.6096 100.19 22.6096H102.466C102.732 22.6096 102.917 22.8701 102.842 23.1237C102.22 25.2211 99.9581 26.6537 97.136 26.6537C93.1318 26.6537 90.6582 24.0901 90.6582 19.9638C90.6582 15.8375 93.1591 13.2739 97.0267 13.2739C100.648 13.2739 103.095 15.7278 103.095 19.3058C103.095 19.7308 103.074 20.0803 103.04 20.5807C103.026 20.7863 102.855 20.944 102.65 20.944ZM100.177 18.6752C100.149 16.708 99.0083 15.6181 96.9652 15.6181C94.9221 15.6181 93.617 16.8725 93.5896 18.6752H100.177Z" fill="white"/>
<path d="M105.181 13.9321H107.361C107.58 13.9321 107.751 14.1103 107.751 14.3228V15.8513C108.332 14.5216 109.739 13.7676 111.126 13.7676C111.434 13.7676 111.7 13.7813 111.946 13.8087C112.151 13.8361 112.295 14.0075 112.295 14.2131V16.1666C112.295 16.3997 112.097 16.5847 111.864 16.571C111.632 16.5573 111.427 16.5573 111.126 16.5573C109.029 16.5573 107.751 18.1407 107.751 21.0332V26.2151C107.751 26.4551 107.553 26.6538 107.313 26.6538H105.222C104.983 26.6538 104.785 26.4551 104.785 26.2151V14.3296C104.785 14.1103 104.963 13.9389 105.175 13.9389L105.181 13.9321Z" fill="white"/>
<path d="M125.997 20.944H116.929C117.011 22.966 118.317 24.0559 120.469 24.0559C121.836 24.0559 122.683 23.6515 123.189 22.8084C123.257 22.6919 123.38 22.6096 123.523 22.6096H125.806C126.065 22.6096 126.25 22.8632 126.175 23.1168C125.56 25.2211 123.291 26.6537 120.462 26.6537C116.458 26.6537 113.984 24.0901 113.984 19.9638C113.984 15.8375 116.485 13.2739 120.353 13.2739C123.974 13.2739 126.421 15.7278 126.421 19.3058C126.421 19.7308 126.4 20.0872 126.366 20.5876C126.352 20.7863 126.188 20.944 125.99 20.944H125.997ZM123.517 18.6752C123.489 16.708 122.348 15.6181 120.305 15.6181C118.262 15.6181 116.957 16.8725 116.929 18.6752H123.517Z" fill="white"/>
<path d="M128.514 13.932H130.694C130.913 13.932 131.084 14.1102 131.084 14.3227V15.7073C131.87 14.3433 133.346 13.603 135.218 13.603C138.265 13.603 139.844 15.3235 139.844 18.6547V26.2699C139.844 26.4824 139.673 26.6538 139.461 26.6538H137.261C137.049 26.6538 136.878 26.4824 136.878 26.2699V20.0187C136.878 17.3181 136.168 16.1391 134.104 16.1391C132.17 16.1391 131.084 17.4209 131.084 19.6623V26.2699C131.084 26.4824 130.913 26.6538 130.701 26.6538H128.494C128.282 26.6538 128.111 26.4824 128.111 26.2699V14.3227C128.111 14.1034 128.289 13.932 128.501 13.932H128.514Z" fill="white"/>
<path d="M146.651 10.1206V13.7672H149.173C149.391 13.7672 149.562 13.9454 149.562 14.1579V15.8578C149.562 16.0771 149.385 16.2485 149.173 16.2485H146.651V21.4921C146.651 23.706 147.335 23.9734 148.503 23.9734C148.811 23.9734 149.241 23.9459 149.583 23.9185C149.808 23.898 149.999 24.0762 149.999 24.3024V26.1531C149.999 26.345 149.863 26.5095 149.665 26.5369C149.18 26.5986 148.483 26.6534 147.792 26.6534C146.351 26.6534 143.686 26.4615 143.686 22.1775V16.2553H141.916C141.704 16.2553 141.533 16.084 141.533 15.8715V14.151C141.533 13.9385 141.704 13.7672 141.916 13.7672H143.686V10.1275C143.686 9.91501 143.85 9.74365 144.061 9.74365H146.269C146.48 9.74365 146.651 9.90816 146.651 10.1206Z" fill="white"/>
</g>
<defs>
<clipPath id="clip0_329_201667">
<rect width="150" height="34.3341" fill="white" transform="translate(0 0.333008)"/>
</clipPath>
<clipPath id="clip1_329_201667">
<rect width="33.8059" height="34.3341" fill="white" transform="translate(0 0.333008)"/>
</clipPath>
</defs>
</svg>
