<svg width="137" height="41" viewBox="0 0 137 41" fill="none" xmlns="http://www.w3.org/2000/svg">
<path fill-rule="evenodd" clip-rule="evenodd" d="M16.549 14.3091C8.99217 18.6534 9.74591 31.2865 18.2524 34.5998C14.8504 37.751 9.45086 40.3137 3.74175 31.6807C0.179392 25.3984 1.47567 20.7357 4.97273 16.3599C9.42829 11.4965 12.4401 10.8104 16.549 14.3091Z" fill="#4E78F4"/>
<path fill-rule="evenodd" clip-rule="evenodd" d="M22.5485 27.8049C24.139 25.5912 27.0041 23.8371 30.5777 26.1225C33.1364 27.7614 31.2226 31.0029 29.3999 33.1311C27.3778 35.4972 24.7101 37.223 21.723 38.0974C18.7358 38.9719 15.5586 38.9571 12.5797 38.055L12.8683 37.6697C9.94283 38.2864 6.52397 37.2352 3.19459 32.1879C-0.37824 25.9081 0.701188 19.7507 4.19502 15.3863C7.13422 12.1802 9.77999 11.2128 12.4177 11.9311L12.3282 11.578C13.2969 11.2551 14.2965 11.0339 15.311 10.9178C20.5372 10.3212 27.208 11.5143 29.1194 8.79199L31.142 9.83353C33.7031 15.4814 34.6084 17.6531 32.9292 19.5822C29.1347 23.9064 23.8335 20.7407 19.4473 17.9167C14.4605 14.5309 7.13422 13.836 4.58197 20.2336C2.01198 26.6779 6.95768 35.5874 13.4496 34.3935C16.5339 33.8236 20.7871 30.2491 22.5485 27.8049Z" fill="#677294"/>
<path fill-rule="evenodd" clip-rule="evenodd" d="M3.19141 32.1904C9.094 41.1281 16.4428 36.1147 19.9657 33.0014L20.0173 32.9554C20.1785 32.8136 20.3397 32.666 20.5009 32.5209C21.8491 31.2622 23.0768 29.8804 24.1681 28.3935C25.9989 25.8944 28.7099 24.8053 31.0203 26.3862C33.9079 28.3523 33.9079 31.8889 31.8265 34.3106C24.2261 43.0339 10.978 42.1938 5.30431 35.2344C4.5163 34.2805 3.80953 33.2623 3.19141 32.1904Z" fill="white"/>
<path fill-rule="evenodd" clip-rule="evenodd" d="M3.19141 32.1907C9.09077 41.1284 16.209 36.0054 19.7319 32.8912L19.7835 32.8453C19.9447 32.7034 20.1059 32.5559 20.2672 32.4108C21.6162 31.152 22.8439 29.7693 23.9343 28.2809C25.7683 25.7818 28.7019 24.8056 31.009 26.3864C32.1165 27.106 32.8967 28.232 33.1816 29.5215C32.799 28.5431 32.1272 27.7045 31.2557 27.1176C28.9598 25.5134 26.0158 26.463 24.1617 28.9419C23.059 30.4168 21.8205 31.7849 20.4623 33.0283C20.301 33.1758 20.1398 33.3177 19.9745 33.4596L19.9197 33.5087C16.5726 36.4052 10.0243 41.0591 4.4103 34.073C3.97113 33.4675 3.56427 32.8392 3.19141 32.1907Z" fill="#4E78F4"/>
<path fill-rule="evenodd" clip-rule="evenodd" d="M31.1423 0.346191C35.959 8.36572 35.4907 16.2522 33.4205 18.998C30.2668 23.1827 25.4106 19.7509 20.3682 16.565C18.9244 15.6033 17.5813 14.7552 16.2996 14.0571L16.2133 14.0047C11.4571 11.425 7.66012 11.4823 4.19531 15.3864C5.54663 13.6919 7.22435 12.2858 9.12905 11.2515C11.0338 10.2173 13.1267 9.57588 15.2838 9.36534C22.5633 8.54872 32.0549 7.6418 31.1423 0.346191Z" fill="white"/>
<path fill-rule="evenodd" clip-rule="evenodd" d="M9.54688 11.0099C11.4369 10.0241 13.4926 9.3955 15.6107 9.15574C22.8958 8.3367 31.6627 6.69781 31.1459 0.346191C33.7739 9.64588 30.8831 13.2606 25.3159 11.9313C20.9699 10.8946 14.6578 8.75992 9.54688 11.0099Z" fill="white"/>
<path fill-rule="evenodd" clip-rule="evenodd" d="M34.7482 15.3049C34.6095 16.6245 34.1549 17.8912 33.4229 18.9979C30.2693 23.1802 25.4243 20.2813 20.3827 17.0776C18.9389 16.1159 17.5991 15.2678 16.3173 14.5665L16.2311 14.5181C11.4659 11.9304 7.66174 11.4822 4.19531 15.3863C4.89953 14.5068 5.69298 13.7025 6.56296 12.9865C9.45057 11.1275 12.659 11.7668 16.4616 13.745L16.5479 13.791C17.8296 14.4601 19.1815 15.2824 20.6254 16.2094C25.667 19.3058 30.5095 22.1064 33.6631 17.8515C34.1861 17.0808 34.5546 16.216 34.7482 15.3049Z" fill="#4E78F4"/>
<path d="M55.6231 30.6177C54.3606 31.312 52.9368 31.6597 51.4964 31.6254C47.032 31.6254 44.4023 28.7725 44.4023 23.9622C44.4023 19.1519 47.0304 16.2958 51.4964 16.2958C52.9389 16.2454 54.3672 16.5953 55.6231 17.3067C56.2003 17.7098 56.3881 18.0104 56.3881 18.503V19.8525C56.3881 20.3128 56.2349 20.5885 55.8681 20.5885C55.6173 20.5628 55.376 20.4786 55.1636 20.3426C54.1725 19.823 53.074 19.5415 51.9551 19.5204C49.7229 19.5204 48.2009 20.8384 48.2009 23.9662C48.2009 27.0941 49.7285 28.4121 51.9551 28.4121C53.0754 28.3855 54.174 28.0979 55.1636 27.5721C55.3758 27.4359 55.6172 27.3516 55.8681 27.3263C56.2349 27.3263 56.3881 27.6157 56.3881 28.0623V29.4117C56.3913 29.6653 56.3206 29.9143 56.1848 30.1284C56.049 30.3425 55.8538 30.5126 55.6231 30.6177Z" fill="white"/>
<path d="M65.5431 16.5449C66.4097 16.5449 67.348 16.9738 67.348 17.6485V20.545C67.3537 20.6189 67.3433 20.6932 67.3176 20.7628C67.2919 20.8323 67.2515 20.8955 67.1992 20.948C67.1468 21.0005 67.0838 21.0411 67.0143 21.067C66.9448 21.0929 66.8706 21.1035 66.7966 21.098C66.587 21.0864 66.3858 21.0117 66.2194 20.8836C65.7564 20.5235 65.1857 20.3295 64.5991 20.333C63.5867 20.3676 62.6162 20.7454 61.8469 21.4044V30.7556C61.8471 30.8316 61.8323 30.9069 61.8034 30.9771C61.7745 31.0474 61.7321 31.1113 61.6785 31.1651C61.6248 31.2189 61.5612 31.2617 61.491 31.2909C61.4209 31.3201 61.3457 31.3352 61.2697 31.3353H58.6417C58.5657 31.3352 58.4905 31.3201 58.4203 31.2909C58.3502 31.2617 58.2865 31.2189 58.2329 31.1651C58.1793 31.1113 58.1368 31.0474 58.1079 30.9771C58.079 30.9069 58.0642 30.8316 58.0645 30.7556V17.1882C58.0642 17.1123 58.079 17.037 58.1079 16.9667C58.1368 16.8965 58.1793 16.8326 58.2329 16.7788C58.2865 16.7249 58.3502 16.6822 58.4203 16.653C58.4905 16.6238 58.5657 16.6087 58.6417 16.6086H60.1403C60.3523 16.5941 60.565 16.6226 60.7657 16.6925C60.9664 16.7624 61.1508 16.8723 61.3079 17.0154C61.4649 17.1585 61.5914 17.332 61.6796 17.5253C61.7678 17.7187 61.8159 17.9278 61.8211 18.1403V18.3547C62.2855 17.8154 62.8552 17.3767 63.4952 17.0655C64.1352 16.7543 64.8321 16.5771 65.5431 16.5449Z" fill="white"/>
<path d="M80.2614 24.6081H71.368C71.368 27.3361 72.8118 28.6251 75.6994 28.6251C76.7347 28.6189 77.7563 28.3887 78.6942 27.9504C79.0292 27.7735 79.3895 27.6495 79.7624 27.5828C80.0977 27.5828 80.2823 27.8287 80.2823 28.2575V28.9323C80.3144 29.1708 80.2866 29.4136 80.2015 29.6388C80.1164 29.864 79.9765 30.0644 79.7946 30.2221C78.2584 31.2117 76.4548 31.7043 74.6289 31.6328C69.7976 31.6328 67.5977 28.447 67.5977 23.9696C67.5977 19.4923 70.0032 16.3008 74.4241 16.3008C78.1235 16.3008 80.4444 18.2613 80.4444 22.4033C80.4555 23.1424 80.3942 23.8809 80.2614 24.6081ZM74.4862 18.9345C72.4386 18.9345 71.5986 20.2525 71.4285 22.4912H76.9909C77.0223 22.155 77.0513 21.8463 77.0513 21.5705C77.0819 21.2228 77.0371 20.8725 76.9199 20.5436C76.8026 20.2148 76.6158 19.9151 76.3721 19.6651C76.1284 19.4151 75.8336 19.2207 75.5078 19.0952C75.182 18.9696 74.833 18.9159 74.4846 18.9377L74.4862 18.9345Z" fill="white"/>
<path d="M86.1467 31.5068C83.6082 31.5068 81.4082 30.3105 81.4082 26.9682C81.4082 24.2402 83.4292 22.212 87.3076 22.212C88.2213 22.2229 89.1319 22.3198 90.0275 22.5014V22.216C90.0275 20.1885 89.8743 19.2413 87.8557 19.2413C86.4499 19.2497 85.0627 19.5639 83.7904 20.1619C83.4954 20.3166 83.1742 20.4148 82.8431 20.4513C82.5086 20.4513 82.3232 20.2369 82.3232 19.8064V18.4448C82.3232 17.8918 82.6118 17.5581 83.3018 17.2195C84.9503 16.5897 86.703 16.2774 88.4676 16.2989C92.5652 16.2989 93.7261 18.0772 93.7261 21.4485V28.5039C93.7261 29.2109 93.9397 29.4858 94.3992 29.4858V29.8534C94.3992 30.6209 93.972 31.51 92.1992 31.51C90.9779 31.51 90.2443 31.0207 90.0275 30.0066C89.5303 30.526 88.9249 30.9296 88.2542 31.1889C87.5835 31.4482 86.864 31.5567 86.1467 31.5068ZM90.0275 24.4861C89.3974 24.3289 88.751 24.2464 88.1016 24.2402C86.0226 24.2402 85.1076 25.127 85.1076 26.7538C85.1076 28.5321 86.0863 29.0537 87.493 29.0537C87.9688 29.0512 88.4391 28.952 88.8755 28.7623C89.3118 28.5726 89.7051 28.2963 90.0315 27.9501L90.0275 24.4861Z" fill="white"/>
<path d="M95.1514 19.122C95.0755 19.1219 95.0002 19.1068 94.9301 19.0776C94.86 19.0485 94.7963 19.0057 94.7427 18.9519C94.6891 18.898 94.6466 18.8342 94.6177 18.7639C94.5888 18.6937 94.574 18.6184 94.5742 18.5424V17.1873C94.574 17.1113 94.5888 17.036 94.6177 16.9658C94.6466 16.8955 94.6891 16.8316 94.7427 16.7778C94.7963 16.724 94.86 16.6812 94.9301 16.652C95.0002 16.6229 95.0755 16.6078 95.1514 16.6077H96.4364V13.6314C96.4362 13.5554 96.451 13.4801 96.4799 13.4099C96.5088 13.3396 96.5513 13.2757 96.6049 13.2219C96.6585 13.1681 96.7222 13.1253 96.7923 13.0961C96.8624 13.0669 96.9376 13.0519 97.0136 13.0518H99.6417C99.7176 13.0519 99.7928 13.0669 99.863 13.0961C99.9331 13.1253 99.9968 13.1681 100.05 13.2219C100.104 13.2757 100.146 13.3396 100.175 13.4099C100.204 13.4801 100.219 13.5554 100.219 13.6314V16.6061H102.419C102.495 16.6062 102.57 16.6212 102.64 16.6504C102.71 16.6796 102.774 16.7224 102.828 16.7762C102.881 16.83 102.924 16.8939 102.953 16.9642C102.981 17.0344 102.996 17.1097 102.996 17.1857V18.5352C102.996 18.6111 102.981 18.6864 102.953 18.7567C102.924 18.8269 102.881 18.8908 102.828 18.9446C102.774 18.9985 102.71 19.0412 102.64 19.0704C102.57 19.0996 102.495 19.1147 102.419 19.1148H100.219V27.7405C100.219 28.3854 100.507 28.7224 101.106 28.7224C101.408 28.7301 101.71 28.6781 101.992 28.5692C102.2 28.4831 102.416 28.4208 102.637 28.3838C102.851 28.3838 103.065 28.4765 103.065 28.9344V29.5793C103.094 29.7902 103.074 30.005 103.004 30.2063C102.935 30.4077 102.819 30.5898 102.666 30.7378C101.731 31.3604 100.609 31.6417 99.4901 31.5342C97.7778 31.5342 96.4324 30.5846 96.4324 28.6845V19.122H95.1514Z" fill="white"/>
<path d="M104.367 12.3736C104.368 11.9872 104.484 11.6098 104.699 11.289C104.915 10.9683 105.221 10.7186 105.578 10.5715C105.935 10.4244 106.328 10.3865 106.707 10.4626C107.086 10.5386 107.434 10.7253 107.706 10.9989C107.979 11.2725 108.165 11.6208 108.24 11.9999C108.315 12.379 108.276 12.7717 108.128 13.1286C107.98 13.4855 107.729 13.7905 107.408 14.005C107.086 14.2196 106.708 14.3341 106.322 14.3341C105.803 14.3333 105.305 14.1263 104.939 13.7586C104.572 13.391 104.367 12.8928 104.367 12.3736ZM107.642 31.3349H105.012C104.936 31.3348 104.861 31.3197 104.791 31.2905C104.721 31.2613 104.657 31.2186 104.603 31.1648C104.55 31.1109 104.507 31.0471 104.478 30.9768C104.449 30.9065 104.435 30.8313 104.435 30.7553V17.1871C104.435 17.1111 104.449 17.0358 104.478 16.9656C104.507 16.8953 104.55 16.8314 104.603 16.7776C104.657 16.7238 104.721 16.681 104.791 16.6518C104.861 16.6226 104.936 16.6076 105.012 16.6074H107.64C107.716 16.6076 107.791 16.6226 107.861 16.6518C107.932 16.681 107.995 16.7238 108.049 16.7776C108.102 16.8314 108.145 16.8953 108.174 16.9656C108.203 17.0358 108.218 17.1111 108.217 17.1871V30.7384C108.22 30.8157 108.207 30.8928 108.179 30.9649C108.151 31.0371 108.109 31.103 108.055 31.1586C108.001 31.2142 107.937 31.2585 107.865 31.2887C107.794 31.319 107.718 31.3347 107.64 31.3349H107.642Z" fill="white"/>
<path d="M121.074 30.6178C119.812 31.3121 118.388 31.6597 116.948 31.6255C112.483 31.6255 109.854 28.7782 109.854 23.9671C109.854 19.156 112.482 16.3007 116.948 16.3007C118.39 16.2503 119.818 16.6002 121.074 17.3116C121.651 17.7146 121.839 18.0153 121.839 18.5079V19.8574C121.839 20.3177 121.686 20.5934 121.319 20.5934C121.068 20.5676 120.827 20.4834 120.615 20.3475C119.624 19.8256 118.526 19.5419 117.406 19.5188C115.174 19.5188 113.652 20.8368 113.652 23.9647C113.652 27.0925 115.18 28.4106 117.406 28.4106C118.528 28.3858 119.629 28.0993 120.62 27.5738C120.833 27.4375 121.074 27.3533 121.325 27.3279C121.692 27.3279 121.845 27.6173 121.845 28.0639V29.4134C121.847 29.6672 121.775 29.916 121.638 30.1298C121.501 30.3435 121.305 30.513 121.074 30.6178Z" fill="white"/>
<path d="M136.434 31.3359H133.743C133.416 31.3492 133.091 31.2759 132.8 31.1233C132.51 30.9707 132.266 30.7443 132.091 30.4668L128.673 25.4687C128.555 25.209 128.36 24.9925 128.113 24.8496C127.867 24.7067 127.582 24.6447 127.298 24.6723V30.7546C127.298 30.8306 127.284 30.9059 127.255 30.9761C127.226 31.0464 127.183 31.1103 127.13 31.1641C127.076 31.2179 127.012 31.2607 126.942 31.2899C126.872 31.3191 126.797 31.3341 126.721 31.3342H124.093C124.017 31.3341 123.942 31.3191 123.871 31.2899C123.801 31.2607 123.738 31.2179 123.684 31.1641C123.63 31.1103 123.588 31.0464 123.559 30.9761C123.53 30.9059 123.515 30.8306 123.516 30.7546V9.95609C123.515 9.88012 123.53 9.80485 123.559 9.73459C123.588 9.66433 123.63 9.60045 123.684 9.54662C123.738 9.49279 123.801 9.45005 123.871 9.42086C123.942 9.39166 124.017 9.37658 124.093 9.37647H126.721C126.796 9.3709 126.872 9.38119 126.942 9.40668C127.013 9.43217 127.078 9.47229 127.133 9.52444C127.187 9.57659 127.23 9.6396 127.258 9.70937C127.287 9.77915 127.3 9.85415 127.298 9.92949V22.4014C127.601 22.4361 127.907 22.3856 128.182 22.2556C128.458 22.1255 128.692 21.9211 128.857 21.6653L132.218 17.4952C132.395 17.2187 132.639 16.992 132.928 16.8368C133.218 16.6816 133.542 16.603 133.87 16.6084H136.284C136.358 16.6033 136.432 16.6142 136.501 16.6402C136.57 16.6663 136.633 16.7069 136.685 16.7594C136.737 16.8119 136.777 16.8749 136.803 16.9443C136.828 17.0136 136.839 17.0877 136.833 17.1614C136.834 17.2803 136.796 17.3963 136.724 17.4908C136.652 17.5853 136.55 17.653 136.435 17.683C136.124 17.848 135.86 18.0903 135.67 18.3868L132.066 22.7109C131.83 23.038 131.5 23.2847 131.119 23.4179C131.487 23.5887 131.804 23.8534 132.037 24.1854L135.826 29.5519C135.999 29.8637 136.267 30.1116 136.591 30.2589C136.704 30.2871 136.804 30.3514 136.877 30.4419C136.95 30.5324 136.991 30.6442 136.994 30.7603C137.004 30.8371 136.997 30.9152 136.973 30.9888C136.948 31.0623 136.908 31.1295 136.854 31.1852C136.8 31.2409 136.734 31.2837 136.662 31.3105C136.589 31.3373 136.511 31.3473 136.434 31.3399V31.3359Z" fill="white"/>
</svg>
