<svg width="151" height="45" viewBox="0 0 151 45" fill="none" xmlns="http://www.w3.org/2000/svg">
<path d="M39.278 3.38889C40.7537 3.38889 42.0558 4.69097 42.0558 6.16667C42.0558 7.72917 40.7537 8.94445 39.278 8.94445H7.33355C6.5523 8.94445 5.94466 9.63889 5.94466 10.3333C5.94466 11.1146 6.5523 11.7222 7.33355 11.7222H39.278C42.3162 11.7222 44.8335 14.2396 44.8335 17.2778V36.7222C44.8335 39.8472 42.3162 42.2778 39.278 42.2778H5.94466C2.81966 42.2778 0.389107 39.8472 0.389107 36.7222V8.94445C0.389107 5.90625 2.81966 3.38889 5.94466 3.38889H39.278ZM36.5002 29.7778C37.9759 29.7778 39.278 28.5625 39.278 27C39.278 25.5243 37.9759 24.2222 36.5002 24.2222C34.9377 24.2222 33.7224 25.5243 33.7224 27C33.7224 28.5625 34.9377 29.7778 36.5002 29.7778Z" fill="#FFD100"/>
<path d="M63.9108 22.775C63.9108 24.4583 64.3192 25.775 65.1358 26.725C65.9692 27.675 67.1275 28.15 68.6108 28.15C69.3442 28.15 70.1192 28.0333 70.9358 27.8C71.7525 27.55 72.5192 27.2 73.2358 26.75L73.4858 30.75C72.7858 31.1167 72.0192 31.4 71.1858 31.6C70.3692 31.8 69.5608 31.9 68.7608 31.9C66.9108 31.9 65.3192 31.5417 63.9858 30.825C62.6692 30.0917 61.6608 29.0417 60.9608 27.675C60.2608 26.3083 59.9108 24.675 59.9108 22.775C59.9108 20.875 60.2608 19.2417 60.9608 17.875C61.6608 16.5083 62.6692 15.4667 63.9858 14.75C65.3192 14.0167 66.9108 13.65 68.7608 13.65C69.5608 13.65 70.3692 13.75 71.1858 13.95C72.0192 14.15 72.7858 14.425 73.4858 14.775L73.2358 18.775C72.5192 18.3417 71.7525 18.0083 70.9358 17.775C70.1192 17.525 69.3442 17.4 68.6108 17.4C67.1275 17.4 65.9692 17.875 65.1358 18.825C64.3192 19.7583 63.9108 21.075 63.9108 22.775ZM77.6534 19.025L78.8784 24.25H78.9534C78.9701 22.7333 79.2034 21.425 79.6534 20.325C80.1034 19.2083 80.8534 18.65 81.9034 18.65C82.3701 18.65 82.8534 18.7583 83.3534 18.975L83.2034 23.1C82.5034 22.8 81.8951 22.65 81.3784 22.65C80.5618 22.65 79.9534 23.0083 79.5534 23.725C79.1534 24.425 78.9534 25.4333 78.9534 26.75V31.5H75.4284V19.025H77.6534ZM88.0638 36.575C87.7638 36.575 87.3971 36.525 86.9638 36.425C86.5304 36.325 86.1971 36.2083 85.9638 36.075L86.0888 32.85C86.3054 32.9333 86.6138 33 87.0138 33.05C87.4138 33.1167 87.7971 33.15 88.1638 33.15C88.6804 33.15 89.1054 33.0417 89.4388 32.825C89.7888 32.625 90.0554 32.2667 90.2388 31.75L90.3138 31.5H87.1138L83.9888 19.025H87.6138L90.3138 31.225H90.3638L93.0638 19.025H96.6888L93.5388 31.5L93.2888 32.35C92.8721 33.8667 92.2304 34.95 91.3638 35.6C90.5138 36.25 89.4138 36.575 88.0638 36.575ZM97.8649 19.025H100.115L101.24 23.65H101.365C101.448 22.05 101.823 20.8167 102.49 19.95C103.173 19.0833 104.132 18.65 105.365 18.65C106.832 18.65 107.973 19.2333 108.79 20.4C109.623 21.55 110.04 23.175 110.04 25.275C110.04 27.3583 109.648 28.9833 108.865 30.15C108.082 31.3167 106.99 31.9 105.59 31.9C104.373 31.9 103.39 31.4333 102.64 30.5C101.907 29.55 101.482 28.2333 101.365 26.55H101.19L101.39 30.65V36.5H97.8649V19.025ZM101.49 25.3C101.49 26.2833 101.732 27.0583 102.215 27.625C102.698 28.175 103.357 28.45 104.19 28.45C104.923 28.45 105.49 28.175 105.89 27.625C106.307 27.0583 106.515 26.275 106.515 25.275C106.515 24.2583 106.307 23.475 105.89 22.925C105.473 22.3583 104.898 22.075 104.165 22.075C103.332 22.075 102.673 22.3667 102.19 22.95C101.723 23.5167 101.49 24.3 101.49 25.3ZM119.605 31.625C119.105 31.8083 118.347 31.9 117.33 31.9C115.847 31.8833 114.639 31.475 113.705 30.675C112.789 29.8583 112.33 28.5 112.33 26.6V22.275H110.63V19.025H112.755L112.33 15.35H116.305L114.93 19.025H119.505V22.275H115.83V26.375C115.83 27.1917 116.022 27.7583 116.405 28.075C116.789 28.375 117.305 28.525 117.955 28.525C118.589 28.525 119.089 28.4583 119.455 28.325L119.605 31.625ZM124.934 31.5H121.434V22.275H120.284V19.025H124.934V31.5ZM122.834 17.375C122.217 17.375 121.734 17.2 121.384 16.85C121.051 16.5 120.884 16.0167 120.884 15.4C120.884 14.7833 121.051 14.3 121.384 13.95C121.734 13.6 122.217 13.425 122.834 13.425C123.417 13.425 123.876 13.6 124.209 13.95C124.559 14.3 124.734 14.7833 124.734 15.4C124.734 16.0167 124.559 16.5 124.209 16.85C123.876 17.2 123.417 17.375 122.834 17.375ZM136.628 22.85C136.178 22.6167 135.661 22.425 135.078 22.275C134.511 22.1083 133.953 22.025 133.403 22.025C132.486 22.025 131.753 22.2833 131.203 22.8C130.67 23.3167 130.403 24.1417 130.403 25.275C130.403 26.4083 130.67 27.2333 131.203 27.75C131.753 28.25 132.486 28.5 133.403 28.5C133.953 28.5 134.511 28.425 135.078 28.275C135.661 28.125 136.178 27.925 136.628 27.675L136.803 31.1C135.87 31.6333 134.67 31.9 133.203 31.9C132.07 31.9 131.028 31.6833 130.078 31.25C129.128 30.8167 128.353 30.1083 127.753 29.125C127.17 28.125 126.878 26.8417 126.878 25.275C126.878 23.7083 127.17 22.4333 127.753 21.45C128.353 20.45 129.128 19.7333 130.078 19.3C131.028 18.8667 132.07 18.65 133.203 18.65C133.886 18.65 134.536 18.7167 135.153 18.85C135.786 18.9833 136.336 19.175 136.803 19.425L136.628 22.85ZM144.038 31.9C142.105 31.9 140.597 31.3167 139.513 30.15C138.447 28.9833 137.913 27.3583 137.913 25.275C137.913 23.175 138.447 21.55 139.513 20.4C140.597 19.2333 142.105 18.65 144.038 18.65C145.955 18.65 147.447 19.2333 148.513 20.4C149.58 21.5667 150.113 23.2 150.113 25.3C150.113 27.3833 149.58 29.0083 148.513 30.175C147.447 31.325 145.955 31.9 144.038 31.9ZM141.463 25.275C141.463 26.3917 141.688 27.2417 142.138 27.825C142.588 28.4083 143.222 28.7 144.038 28.7C144.838 28.7 145.455 28.4083 145.888 27.825C146.338 27.2417 146.563 26.3917 146.563 25.275C146.563 24.1583 146.338 23.3083 145.888 22.725C145.455 22.1417 144.838 21.85 144.038 21.85C143.222 21.85 142.588 22.1417 142.138 22.725C141.688 23.3083 141.463 24.1583 141.463 25.275Z" fill="white"/>
</svg>
