<svg width="150" height="31" viewBox="0 0 150 31" fill="none" xmlns="http://www.w3.org/2000/svg">
<g clip-path="url(#clip0_329_201616)">
<path d="M26.5588 10.2086L39.9238 2.10543V1.20508L25.7988 9.76702L26.5588 10.2086Z" fill="white"/>
<path d="M28.5847 11.3864L39.923 4.51559V3.61523L27.8281 10.9447L28.5847 11.3864Z" fill="white"/>
<path d="M30.6159 12.5607L39.9242 6.92574V6.02881L29.8594 12.1225L30.6159 12.5607Z" fill="white"/>
<path d="M32.6448 13.7384L39.9229 9.3359V8.43896L31.8848 13.3002L32.6448 13.7384Z" fill="white"/>
<path d="M33.916 14.4779L34.676 14.9161L39.9241 11.7461V10.8491L33.916 14.4779Z" fill="white"/>
<path d="M22.9602 20.7905L9.5918 28.8937V29.7941L23.7168 21.2321L22.9602 20.7905Z" fill="white"/>
<path d="M20.9301 19.6128L9.5918 26.4836V27.3805L21.6867 20.0544L20.9301 19.6128Z" fill="white"/>
<path d="M18.9035 18.4351L9.5918 24.0734V24.9703L19.66 18.8767L18.9035 18.4351Z" fill="white"/>
<path d="M16.8734 17.2578L9.5918 21.6637V22.5607L17.63 17.6994L16.8734 17.2578Z" fill="white"/>
<path d="M15.5999 16.5217L14.8433 16.0835L9.5918 19.2536V20.1505L15.5999 16.5217Z" fill="white"/>
<path d="M8.33257 1.26709L49.5196 25.1556L41.1836 29.7567L0 5.86815L8.33257 1.26709Z" fill="white"/>
<path d="M0 7.47705V25.895L8.21618 30.6364V12.2185L0 7.47705Z" fill="white"/>
<path d="M49.5189 23.5226V5.1047L41.3027 0.363281V18.7812L49.5189 23.5226Z" fill="white"/>
<path d="M62.2401 5.15576C62.2401 5.15576 62.5824 5.59053 62.6749 5.71035L70.0626 15.0528C70.0318 14.755 70.0112 14.464 69.9975 14.1833C69.9838 13.9026 69.977 13.639 69.977 13.3891V5.15576H73.1573V20.7015H70.4939L62.6851 10.8352C62.7057 11.1091 62.7228 11.3727 62.7365 11.6328C62.7502 11.893 62.7604 12.1361 62.7604 12.362V20.7015H59.5664V5.15576H62.2298H62.2401Z" fill="white"/>
<path d="M92.8802 5.15576V7.93214H86.4955V11.561H91.3841V14.2312H86.4955V17.9251H92.8802V20.7015H82.8633V5.15576H92.8802Z" fill="white"/>
<path d="M105.403 17.8224H111.172V20.7049H101.795V5.15576H105.403V17.8224Z" fill="white"/>
<path d="M128.377 5.15576V8.01773H123.985V20.5166C123.985 20.5656 123.965 20.6126 123.931 20.6473C123.896 20.682 123.849 20.7015 123.8 20.7015H120.377V8.00746H115.998V5.15576H128.377Z" fill="white"/>
<path d="M140.394 8.3498C140.281 8.78457 136.529 19.9243 136.529 19.9243C136.45 20.1229 136.279 20.698 136.282 20.7015H132.537L138.559 5.15576H142.253L148.275 20.7117H144.546C144.546 20.7117 140.514 8.77773 140.394 8.3498Z" fill="white"/>
<path d="M148.446 6.52525C148.429 6.48759 148.343 6.35408 148.34 6.34723C148.447 6.31455 148.541 6.24714 148.607 6.15552C148.675 6.05502 148.709 5.93472 148.702 5.81318C148.707 5.73622 148.693 5.65931 148.661 5.58899C148.63 5.51866 148.582 5.457 148.521 5.40922C148.348 5.30265 148.145 5.25353 147.942 5.26886H147.258V7.15858H147.713V6.4739H147.83C147.855 6.46778 147.882 6.46778 147.908 6.4739C147.926 6.48642 147.942 6.50278 147.953 6.52183L148.295 7.14489H148.819L148.446 6.52525ZM148.233 5.98778C148.224 6.0221 148.205 6.053 148.179 6.07678C148.149 6.10328 148.112 6.12104 148.073 6.12813C148.014 6.14316 147.955 6.15007 147.895 6.14868H147.71V5.60778H147.932C147.986 5.60161 148.04 5.60161 148.093 5.60778C148.128 5.61596 148.161 5.63238 148.189 5.6557C148.21 5.679 148.226 5.70723 148.233 5.73787C148.239 5.77646 148.239 5.81567 148.233 5.85426C148.24 5.89849 148.24 5.94355 148.233 5.98778Z" fill="white"/>
<path d="M147.925 4.58427C148.07 4.58417 148.216 4.60374 148.356 4.64247C148.493 4.67876 148.625 4.73407 148.746 4.80679C149.113 5.02085 149.381 5.36985 149.493 5.77904C149.533 5.91929 149.552 6.06456 149.551 6.21039C149.553 6.35624 149.533 6.50157 149.493 6.64174C149.456 6.77886 149.401 6.91022 149.328 7.032C149.26 7.15186 149.174 7.26136 149.075 7.35723C148.972 7.4568 148.857 7.54306 148.733 7.61398C148.609 7.68389 148.478 7.73904 148.342 7.77831C148.06 7.85598 147.762 7.85598 147.48 7.77831C147.345 7.73903 147.215 7.68387 147.093 7.61398C146.968 7.54306 146.853 7.4568 146.751 7.35723C146.651 7.26055 146.565 7.1512 146.494 7.032C146.424 6.90971 146.369 6.77993 146.329 6.64516C146.252 6.36167 146.252 6.06253 146.329 5.77904C146.369 5.64317 146.424 5.51225 146.494 5.38877C146.565 5.26436 146.651 5.14935 146.751 5.04643C146.853 4.94674 146.968 4.8615 147.093 4.7931C147.213 4.72039 147.344 4.66507 147.48 4.62877C147.62 4.59005 147.765 4.57047 147.911 4.57057M147.911 4.12211C147.724 4.12095 147.537 4.1463 147.356 4.19742C147.012 4.29307 146.698 4.47716 146.446 4.73148C146.321 4.8567 146.211 4.99699 146.121 5.14913C146.032 5.30574 145.961 5.47237 145.912 5.64552C145.863 5.82525 145.839 6.0106 145.84 6.19669C145.839 6.3842 145.864 6.57094 145.915 6.75128C145.961 6.92461 146.032 7.09057 146.124 7.24426C146.213 7.39649 146.321 7.53682 146.446 7.66191C146.698 7.91622 147.012 8.10032 147.356 8.19596C147.537 8.2454 147.724 8.27072 147.911 8.27128C148.097 8.27074 148.283 8.24542 148.462 8.19596C148.636 8.1469 148.802 8.07677 148.959 7.98714C149.112 7.89744 149.254 7.78812 149.38 7.66191C149.503 7.53592 149.611 7.39572 149.702 7.24426C149.793 7.08985 149.863 6.92409 149.91 6.75128C149.961 6.57085 149.987 6.38417 149.986 6.19669C149.987 6.01034 149.961 5.82479 149.91 5.64552C149.862 5.47185 149.792 5.30504 149.702 5.14913C149.612 4.99623 149.503 4.8558 149.376 4.73148C149.254 4.59836 149.113 4.48312 148.959 4.38913C148.803 4.29804 148.636 4.22783 148.462 4.18031C148.286 4.13854 148.105 4.12126 147.925 4.12896L147.911 4.12211Z" fill="white"/>
<path d="M61.7957 27.427C61.8158 27.427 61.834 27.4352 61.8503 27.4515L61.9934 27.6078C61.883 27.7358 61.7487 27.8356 61.5905 27.9072C61.4336 27.9787 61.244 28.0145 61.0219 28.0145C60.8273 28.0145 60.6509 27.9812 60.4928 27.9147C60.3346 27.8469 60.1997 27.7528 60.088 27.6323C59.9762 27.5105 59.8896 27.3649 59.8281 27.1955C59.7666 27.026 59.7359 26.8396 59.7359 26.6362C59.7359 26.4329 59.7685 26.2465 59.8338 26.077C59.9003 25.9076 59.9932 25.762 60.1124 25.6402C60.2317 25.5184 60.3742 25.4243 60.5399 25.3578C60.7068 25.29 60.8907 25.2561 61.0915 25.2561C61.2899 25.2561 61.4606 25.2868 61.6037 25.3484C61.748 25.4099 61.8761 25.4933 61.9878 25.5988L61.8692 25.7663C61.8604 25.7789 61.8503 25.7896 61.839 25.7984C61.8277 25.8059 61.8114 25.8097 61.7901 25.8097C61.7738 25.8097 61.7562 25.804 61.7374 25.7927C61.7198 25.7802 61.6984 25.7651 61.6733 25.7475C61.6482 25.7299 61.6187 25.7111 61.5848 25.691C61.551 25.671 61.5108 25.6521 61.4643 25.6345C61.4179 25.617 61.3639 25.6025 61.3024 25.5912C61.2409 25.5787 61.17 25.5724 61.0897 25.5724C60.9453 25.5724 60.8129 25.5975 60.6924 25.6477C60.5731 25.6967 60.4702 25.767 60.3836 25.8586C60.297 25.9502 60.2292 26.062 60.1802 26.1938C60.1325 26.3256 60.1087 26.4731 60.1087 26.6362C60.1087 26.8044 60.1325 26.9544 60.1802 27.0862C60.2292 27.218 60.2951 27.3298 60.3779 27.4214C60.462 27.5118 60.5612 27.5808 60.6754 27.6285C60.7896 27.6762 60.9127 27.7001 61.0445 27.7001C61.1248 27.7001 61.197 27.6957 61.261 27.6869C61.325 27.6768 61.384 27.6618 61.438 27.6417C61.4932 27.6216 61.5441 27.5965 61.5905 27.5664C61.6382 27.535 61.6859 27.498 61.7336 27.4553C61.7549 27.4365 61.7756 27.427 61.7957 27.427ZM66.8421 26.6362C66.8421 26.8383 66.8101 27.0241 66.7461 27.1936C66.6821 27.3618 66.5917 27.5068 66.4749 27.6285C66.3582 27.7503 66.2176 27.845 66.0532 27.9128C65.89 27.9794 65.7092 28.0126 65.5109 28.0126C65.3126 28.0126 65.1318 27.9794 64.9686 27.9128C64.8055 27.845 64.6655 27.7503 64.5488 27.6285C64.432 27.5068 64.3416 27.3618 64.2776 27.1936C64.2136 27.0241 64.1816 26.8383 64.1816 26.6362C64.1816 26.4341 64.2136 26.249 64.2776 26.0808C64.3416 25.9113 64.432 25.7657 64.5488 25.644C64.6655 25.5209 64.8055 25.4255 64.9686 25.3578C65.1318 25.29 65.3126 25.2561 65.5109 25.2561C65.7092 25.2561 65.89 25.29 66.0532 25.3578C66.2176 25.4255 66.3582 25.5209 66.4749 25.644C66.5917 25.7657 66.6821 25.9113 66.7461 26.0808C66.8101 26.249 66.8421 26.4341 66.8421 26.6362ZM66.4674 26.6362C66.4674 26.4705 66.4448 26.3218 66.3996 26.19C66.3544 26.0582 66.2904 25.9471 66.2076 25.8567C66.1247 25.7651 66.0243 25.6948 65.9063 25.6458C65.7883 25.5969 65.6565 25.5724 65.5109 25.5724C65.3666 25.5724 65.2354 25.5969 65.1174 25.6458C64.9994 25.6948 64.8983 25.7651 64.8142 25.8567C64.7314 25.9471 64.6674 26.0582 64.6222 26.19C64.577 26.3218 64.5544 26.4705 64.5544 26.6362C64.5544 26.8019 64.577 26.9507 64.6222 27.0825C64.6674 27.213 64.7314 27.3241 64.8142 27.4157C64.8983 27.5061 64.9994 27.5758 65.1174 27.6247C65.2354 27.6724 65.3666 27.6963 65.5109 27.6963C65.6565 27.6963 65.7883 27.6724 65.9063 27.6247C66.0243 27.5758 66.1247 27.5061 66.2076 27.4157C66.2904 27.3241 66.3544 27.213 66.3996 27.0825C66.4448 26.9507 66.4674 26.8019 66.4674 26.6362ZM69.3928 25.2862C69.4255 25.2862 69.4493 25.2906 69.4644 25.2994C69.4807 25.3069 69.4989 25.3232 69.519 25.3484L71.0818 27.3819C71.078 27.3492 71.0755 27.3178 71.0742 27.2877C71.073 27.2563 71.0724 27.2262 71.0724 27.1973V25.2862H71.3924V27.9844H71.2079C71.179 27.9844 71.1546 27.9794 71.1345 27.9693C71.1157 27.9593 71.0968 27.9423 71.078 27.9185L69.5171 25.8869C69.5196 25.9182 69.5215 25.949 69.5227 25.9791C69.524 26.0092 69.5246 26.0369 69.5246 26.062V27.9844H69.2045V25.2862H69.3928ZM75.5775 25.2862V25.5837H74.2821V26.527H75.3893V26.8245H74.2821V27.9844H73.915V25.2862H75.5775ZM78.345 27.9844H77.9797V25.2862H78.345V27.9844ZM83.2693 26.6362C83.2693 26.8383 83.2372 27.0222 83.1732 27.1879C83.1092 27.3536 83.0188 27.4955 82.9021 27.6134C82.7854 27.7314 82.6454 27.8231 82.4822 27.8883C82.319 27.9524 82.1383 27.9844 81.9399 27.9844H80.9307V25.2862H81.9399C82.1383 25.2862 82.319 25.3189 82.4822 25.3841C82.6454 25.4481 82.7854 25.5398 82.9021 25.659C83.0188 25.777 83.1092 25.9189 83.1732 26.0846C83.2372 26.2502 83.2693 26.4341 83.2693 26.6362ZM82.8946 26.6362C82.8946 26.4705 82.872 26.3224 82.8268 26.1919C82.7816 26.0613 82.7176 25.9509 82.6347 25.8605C82.5519 25.7701 82.4515 25.7011 82.3335 25.6534C82.2155 25.6057 82.0843 25.5818 81.9399 25.5818H81.2979V27.6888H81.9399C82.0843 27.6888 82.2155 27.6649 82.3335 27.6172C82.4515 27.5695 82.5519 27.5011 82.6347 27.412C82.7176 27.3216 82.7816 27.2111 82.8268 27.0806C82.872 26.95 82.8946 26.8019 82.8946 26.6362ZM87.2927 25.2862V25.5837H85.9973V26.48H87.046V26.7662H85.9973V27.6869H87.2927V27.9844H85.6301V25.2862H87.2927ZM89.8706 25.2862C89.9032 25.2862 89.927 25.2906 89.9421 25.2994C89.9584 25.3069 89.9766 25.3232 89.9967 25.3484L91.5595 27.3819C91.5557 27.3492 91.5532 27.3178 91.552 27.2877C91.5507 27.2563 91.5501 27.2262 91.5501 27.1973V25.2862H91.8702V27.9844H91.6856C91.6568 27.9844 91.6323 27.9794 91.6122 27.9693C91.5934 27.9593 91.5746 27.9423 91.5557 27.9185L89.9948 25.8869C89.9973 25.9182 89.9992 25.949 90.0005 25.9791C90.0017 26.0092 90.0024 26.0369 90.0024 26.062V27.9844H89.6823V25.2862H89.8706ZM96.2944 27.427C96.3145 27.427 96.3327 27.4352 96.349 27.4515L96.4921 27.6078C96.3816 27.7358 96.2473 27.8356 96.0892 27.9072C95.9323 27.9787 95.7427 28.0145 95.5205 28.0145C95.326 28.0145 95.1496 27.9812 94.9914 27.9147C94.8333 27.8469 94.6983 27.7528 94.5866 27.6323C94.4749 27.5105 94.3883 27.3649 94.3268 27.1955C94.2653 27.026 94.2345 26.8396 94.2345 26.6362C94.2345 26.4329 94.2672 26.2465 94.3324 26.077C94.399 25.9076 94.4919 25.762 94.6111 25.6402C94.7303 25.5184 94.8728 25.4243 95.0385 25.3578C95.2055 25.29 95.3894 25.2561 95.5902 25.2561C95.7885 25.2561 95.9592 25.2868 96.1023 25.3484C96.2467 25.4099 96.3747 25.4933 96.4864 25.5988L96.3678 25.7663C96.359 25.7789 96.349 25.7896 96.3377 25.7984C96.3264 25.8059 96.3101 25.8097 96.2887 25.8097C96.2724 25.8097 96.2548 25.804 96.236 25.7927C96.2184 25.7802 96.1971 25.7651 96.172 25.7475C96.1469 25.7299 96.1174 25.7111 96.0835 25.691C96.0496 25.671 96.0094 25.6521 95.963 25.6345C95.9166 25.617 95.8626 25.6025 95.8011 25.5912C95.7396 25.5787 95.6686 25.5724 95.5883 25.5724C95.444 25.5724 95.3115 25.5975 95.191 25.6477C95.0718 25.6967 94.9688 25.767 94.8822 25.8586C94.7956 25.9502 94.7278 26.062 94.6789 26.1938C94.6312 26.3256 94.6073 26.4731 94.6073 26.6362C94.6073 26.8044 94.6312 26.9544 94.6789 27.0862C94.7278 27.218 94.7937 27.3298 94.8766 27.4214C94.9607 27.5118 95.0599 27.5808 95.1741 27.6285C95.2883 27.6762 95.4113 27.7001 95.5431 27.7001C95.6235 27.7001 95.6956 27.6957 95.7597 27.6869C95.8237 27.6768 95.8827 27.6618 95.9366 27.6417C95.9919 27.6216 96.0427 27.5965 96.0892 27.5664C96.1369 27.535 96.1846 27.498 96.2323 27.4553C96.2536 27.4365 96.2743 27.427 96.2944 27.427ZM100.497 25.2862V25.5837H99.2018V26.48H100.251V26.7662H99.2018V27.6869H100.497V27.9844H98.8347V25.2862H100.497ZM107.142 25.2862V25.5837H105.846V26.527H106.953V26.8245H105.846V27.9844H105.479V25.2862H107.142ZM111.982 26.6362C111.982 26.8383 111.95 27.0241 111.886 27.1936C111.822 27.3618 111.732 27.5068 111.615 27.6285C111.498 27.7503 111.358 27.845 111.193 27.9128C111.03 27.9794 110.849 28.0126 110.651 28.0126C110.453 28.0126 110.272 27.9794 110.109 27.9128C109.945 27.845 109.805 27.7503 109.689 27.6285C109.572 27.5068 109.482 27.3618 109.418 27.1936C109.354 27.0241 109.322 26.8383 109.322 26.6362C109.322 26.4341 109.354 26.249 109.418 26.0808C109.482 25.9113 109.572 25.7657 109.689 25.644C109.805 25.5209 109.945 25.4255 110.109 25.3578C110.272 25.29 110.453 25.2561 110.651 25.2561C110.849 25.2561 111.03 25.29 111.193 25.3578C111.358 25.4255 111.498 25.5209 111.615 25.644C111.732 25.7657 111.822 25.9113 111.886 26.0808C111.95 26.249 111.982 26.4341 111.982 26.6362ZM111.607 26.6362C111.607 26.4705 111.585 26.3218 111.54 26.19C111.494 26.0582 111.43 25.9471 111.348 25.8567C111.265 25.7651 111.164 25.6948 111.046 25.6458C110.928 25.5969 110.796 25.5724 110.651 25.5724C110.507 25.5724 110.375 25.5969 110.257 25.6458C110.139 25.6948 110.038 25.7651 109.954 25.8567C109.871 25.9471 109.807 26.0582 109.762 26.19C109.717 26.3218 109.694 26.4705 109.694 26.6362C109.694 26.8019 109.717 26.9507 109.762 27.0825C109.807 27.213 109.871 27.3241 109.954 27.4157C110.038 27.5061 110.139 27.5758 110.257 27.6247C110.375 27.6724 110.507 27.6963 110.651 27.6963C110.796 27.6963 110.928 27.6724 111.046 27.6247C111.164 27.5758 111.265 27.5061 111.348 27.4157C111.43 27.3241 111.494 27.213 111.54 27.0825C111.585 26.9507 111.607 26.8019 111.607 26.6362ZM114.746 26.8584V27.9844H114.382V25.2862H115.145C115.315 25.2862 115.463 25.3038 115.587 25.3389C115.711 25.3728 115.814 25.4224 115.894 25.4877C115.976 25.553 116.036 25.632 116.075 25.7249C116.114 25.8166 116.133 25.9195 116.133 26.0337C116.133 26.1291 116.118 26.2182 116.088 26.3011C116.058 26.3839 116.014 26.4586 115.956 26.5251C115.9 26.5904 115.83 26.6463 115.747 26.6927C115.666 26.7392 115.573 26.7743 115.469 26.7982C115.514 26.8245 115.554 26.8628 115.589 26.913L116.376 27.9844H116.052C115.986 27.9844 115.937 27.9586 115.905 27.9072L115.205 26.9431C115.184 26.913 115.16 26.8917 115.135 26.8791C115.11 26.8653 115.073 26.8584 115.022 26.8584H114.746ZM114.746 26.5929H115.128C115.235 26.5929 115.328 26.5804 115.408 26.5553C115.49 26.5289 115.558 26.4925 115.612 26.4461C115.667 26.3984 115.708 26.3419 115.736 26.2766C115.764 26.2113 115.777 26.1392 115.777 26.0601C115.777 25.8994 115.724 25.7783 115.617 25.6967C115.512 25.6151 115.354 25.5743 115.145 25.5743H114.746V26.5929ZM122.264 26.9111V27.9844H121.9V26.9111L120.912 25.2862H121.232C121.264 25.2862 121.29 25.2944 121.309 25.3107C121.328 25.327 121.344 25.3471 121.358 25.3709L121.975 26.4197C122.001 26.4636 122.021 26.5051 122.038 26.544C122.055 26.5829 122.071 26.6212 122.085 26.6588C122.099 26.6199 122.114 26.581 122.13 26.5421C122.146 26.5032 122.167 26.4624 122.192 26.4197L122.808 25.3709C122.819 25.3509 122.834 25.332 122.853 25.3145C122.873 25.2956 122.899 25.2862 122.93 25.2862H123.254L122.264 26.9111ZM127.812 26.6362C127.812 26.8383 127.78 27.0241 127.716 27.1936C127.652 27.3618 127.561 27.5068 127.445 27.6285C127.328 27.7503 127.187 27.845 127.023 27.9128C126.86 27.9794 126.679 28.0126 126.481 28.0126C126.282 28.0126 126.102 27.9794 125.938 27.9128C125.775 27.845 125.635 27.7503 125.519 27.6285C125.402 27.5068 125.311 27.3618 125.247 27.1936C125.183 27.0241 125.151 26.8383 125.151 26.6362C125.151 26.4341 125.183 26.249 125.247 26.0808C125.311 25.9113 125.402 25.7657 125.519 25.644C125.635 25.5209 125.775 25.4255 125.938 25.3578C126.102 25.29 126.282 25.2561 126.481 25.2561C126.679 25.2561 126.86 25.29 127.023 25.3578C127.187 25.4255 127.328 25.5209 127.445 25.644C127.561 25.7657 127.652 25.9113 127.716 26.0808C127.78 26.249 127.812 26.4341 127.812 26.6362ZM127.437 26.6362C127.437 26.4705 127.415 26.3218 127.369 26.19C127.324 26.0582 127.26 25.9471 127.177 25.8567C127.095 25.7651 126.994 25.6948 126.876 25.6458C126.758 25.5969 126.626 25.5724 126.481 25.5724C126.336 25.5724 126.205 25.5969 126.087 25.6458C125.969 25.6948 125.868 25.7651 125.784 25.8567C125.701 25.9471 125.637 26.0582 125.592 26.19C125.547 26.3218 125.524 26.4705 125.524 26.6362C125.524 26.8019 125.547 26.9507 125.592 27.0825C125.637 27.213 125.701 27.3241 125.784 27.4157C125.868 27.5061 125.969 27.5758 126.087 27.6247C126.205 27.6724 126.336 27.6963 126.481 27.6963C126.626 27.6963 126.758 27.6724 126.876 27.6247C126.994 27.5758 127.095 27.5061 127.177 27.4157C127.26 27.3241 127.324 27.213 127.369 27.0825C127.415 26.9507 127.437 26.8019 127.437 26.6362ZM131.223 27.6944C131.335 27.6944 131.435 27.6756 131.522 27.6379C131.61 27.6003 131.684 27.5475 131.745 27.4798C131.806 27.412 131.853 27.331 131.884 27.2369C131.917 27.1427 131.933 27.0392 131.933 26.9262V25.2862H132.296V26.9262C132.296 27.0819 132.271 27.2262 132.221 27.3593C132.172 27.4923 132.101 27.6078 132.008 27.7057C131.917 27.8024 131.804 27.8783 131.671 27.9335C131.538 27.9888 131.389 28.0164 131.223 28.0164C131.057 28.0164 130.908 27.9888 130.775 27.9335C130.642 27.8783 130.529 27.8024 130.436 27.7057C130.343 27.6078 130.272 27.4923 130.221 27.3593C130.172 27.2262 130.148 27.0819 130.148 26.9262V25.2862H130.511V26.9243C130.511 27.0373 130.527 27.1408 130.558 27.235C130.591 27.3291 130.638 27.4101 130.698 27.4779C130.759 27.5457 130.834 27.599 130.922 27.6379C131.011 27.6756 131.111 27.6944 131.223 27.6944ZM135.19 26.8584V27.9844H134.827V25.2862H135.589C135.76 25.2862 135.908 25.3038 136.032 25.3389C136.156 25.3728 136.258 25.4224 136.339 25.4877C136.42 25.553 136.481 25.632 136.52 25.7249C136.558 25.8166 136.578 25.9195 136.578 26.0337C136.578 26.1291 136.563 26.2182 136.533 26.3011C136.503 26.3839 136.459 26.4586 136.401 26.5251C136.344 26.5904 136.275 26.6463 136.192 26.6927C136.11 26.7392 136.017 26.7743 135.913 26.7982C135.958 26.8245 135.999 26.8628 136.034 26.913L136.821 27.9844H136.497C136.43 27.9844 136.381 27.9586 136.35 27.9072L135.65 26.9431C135.628 26.913 135.605 26.8917 135.58 26.8791C135.555 26.8653 135.517 26.8584 135.467 26.8584H135.19ZM135.19 26.5929H135.572C135.679 26.5929 135.773 26.5804 135.853 26.5553C135.935 26.5289 136.002 26.4925 136.056 26.4461C136.112 26.3984 136.153 26.3419 136.181 26.2766C136.208 26.2113 136.222 26.1392 136.222 26.0601C136.222 25.8994 136.169 25.7783 136.062 25.6967C135.957 25.6151 135.799 25.5743 135.589 25.5743H135.19V26.5929ZM142.102 27.9844H141.737V25.2862H142.102V27.9844ZM146.525 25.2862V25.5931H145.654V27.9844H145.288V25.5931H144.413V25.2862H146.525ZM146.785 27.7773C146.785 27.7446 146.791 27.7139 146.802 27.685C146.815 27.6561 146.831 27.631 146.851 27.6097C146.872 27.5883 146.897 27.5714 146.926 27.5588C146.955 27.5463 146.986 27.54 147.019 27.54C147.051 27.54 147.082 27.5463 147.111 27.5588C147.14 27.5714 147.165 27.5883 147.186 27.6097C147.208 27.631 147.224 27.6561 147.235 27.685C147.248 27.7139 147.254 27.7446 147.254 27.7773C147.254 27.8112 147.248 27.8425 147.235 27.8714C147.224 27.899 147.208 27.9235 147.186 27.9448C147.165 27.9662 147.14 27.9825 147.111 27.9938C147.082 28.0063 147.051 28.0126 147.019 28.0126C146.986 28.0126 146.955 28.0063 146.926 27.9938C146.897 27.9825 146.872 27.9662 146.851 27.9448C146.831 27.9235 146.815 27.899 146.802 27.8714C146.791 27.8425 146.785 27.8112 146.785 27.7773Z" fill="white"/>
</g>
<defs>
<clipPath id="clip0_329_201616">
<rect width="150" height="30.2732" fill="white" transform="translate(0 0.363281)"/>
</clipPath>
</defs>
</svg>
