<svg width="150" height="29" viewBox="0 0 150 29" fill="none" xmlns="http://www.w3.org/2000/svg">
<g clip-path="url(#clip0_329_201690)">
<path d="M57.3289 16.5893H57.201L50.9 7.40918H48.1914V22.0064H51.278V12.8178H51.386L57.7382 22.0064H60.4041V7.40918H57.3289V16.5893Z" fill="white"/>
<path d="M69.6217 11.6237C68.8173 11.1519 67.8595 10.916 66.7539 10.916C65.6455 10.916 64.6905 11.1519 63.8862 11.6237C63.0819 12.0983 62.4595 12.7577 62.0218 13.6047C61.5841 14.4545 61.3652 15.4436 61.3652 16.5747C61.3652 17.6974 61.5841 18.6808 62.0218 19.5306C62.4595 20.3775 63.079 21.0397 63.8862 21.5115C64.6905 21.9833 65.6483 22.2192 66.7539 22.2192C67.8624 22.2192 68.8173 21.9833 69.6217 21.5115C70.426 21.0397 71.0484 20.3775 71.4861 19.5306C71.9238 18.6808 72.1427 17.6974 72.1427 16.5747C72.1427 15.4436 71.9238 14.4545 71.4861 13.6047C71.0484 12.7577 70.4288 12.0983 69.6217 11.6237ZM68.7946 18.2573C68.6212 18.7575 68.3654 19.1497 68.0272 19.4368C67.689 19.7238 67.2684 19.8688 66.7653 19.8688C66.2566 19.8688 65.8302 19.7238 65.4863 19.4368C65.1424 19.1497 64.8838 18.7575 64.7104 18.2573C64.5371 17.7571 64.4518 17.1915 64.4518 16.552C64.4518 15.9154 64.5371 15.3469 64.7104 14.8495C64.8838 14.3493 65.1424 13.9571 65.4863 13.6672C65.8302 13.3773 66.2566 13.2324 66.7653 13.2324C67.2684 13.2324 67.689 13.3773 68.0272 13.6672C68.3654 13.9571 68.6212 14.3522 68.7946 14.8495C68.968 15.3498 69.0532 15.9154 69.0532 16.552C69.0561 17.1915 68.968 17.7571 68.7946 18.2573Z" fill="white"/>
<path d="M78.7622 10.9023C78.1483 10.9023 77.6083 11.0757 77.1365 11.4253C76.6647 11.7749 76.3322 12.2893 76.1304 12.9686H76.0167V11.0587H73.0723V22.0066H76.1077V15.8107C76.1077 15.3645 76.2072 14.9695 76.4118 14.6284C76.6136 14.2873 76.8893 14.0202 77.2389 13.8269C77.5884 13.6336 77.9863 13.537 78.4326 13.537C78.6429 13.537 78.8731 13.5541 79.1232 13.5882C79.3762 13.6223 79.5723 13.6592 79.7144 13.7019V11.0075C79.5808 10.9734 79.4273 10.9478 79.2511 10.9279C79.0777 10.9109 78.9157 10.9023 78.7622 10.9023Z" fill="white"/>
<path d="M86.4161 19.6729C86.274 19.6985 86.1319 19.7127 85.987 19.7127C85.7823 19.7127 85.6033 19.6814 85.4498 19.6189C85.2963 19.5564 85.1741 19.4484 85.0889 19.2949C85.0036 19.1414 84.961 18.9226 84.961 18.6412V13.3378H87.0215V11.0584H84.961V8.43506H81.9255V11.0584H80.4277V13.3406H81.9255V19.0448C81.9199 19.761 82.0705 20.355 82.3746 20.8268C82.6787 21.2986 83.105 21.6454 83.6536 21.867C84.2021 22.0887 84.8416 22.1882 85.5749 22.1598C85.9699 22.1456 86.3053 22.1058 86.581 22.0433C86.8567 21.9779 87.0698 21.9239 87.2233 21.8756L86.7458 19.6161C86.6691 19.6274 86.5582 19.6473 86.4161 19.6729Z" fill="white"/>
<path d="M96.7089 11.4109C96.1405 11.0812 95.4754 10.9164 94.7165 10.9164C93.8838 10.9164 93.1931 11.1011 92.6418 11.4678C92.0904 11.8372 91.6897 12.3431 91.4452 12.9912H91.3173V7.40918H88.3672V22.0093H91.4026V15.677C91.4083 15.2052 91.4992 14.8044 91.6783 14.4691C91.8573 14.1337 92.1046 13.8779 92.4201 13.7017C92.7356 13.5255 93.0994 13.4374 93.5143 13.4374C94.1311 13.4374 94.6142 13.625 94.9581 14.0001C95.302 14.3753 95.4725 14.9011 95.4669 15.5747V22.0036H98.5023V15.0347C98.508 14.1792 98.3516 13.4431 98.0362 12.8292C97.7178 12.2153 97.2773 11.7406 96.7089 11.4109Z" fill="white"/>
<path d="M108.146 11.5388C107.472 11.1239 106.733 10.9164 105.935 10.9164C105.321 10.9164 104.809 11.0187 104.4 11.2262C103.988 11.4337 103.655 11.6895 103.402 11.9964C103.147 12.3034 102.953 12.6046 102.823 12.8974H102.729V7.40918H99.6934V22.0093H102.686V20.2557H102.823C102.959 20.5598 103.161 20.8611 103.422 21.1566C103.684 21.4522 104.019 21.6995 104.431 21.8956C104.843 22.0889 105.344 22.1883 105.932 22.1883C106.765 22.1883 107.515 21.9723 108.189 21.5432C108.859 21.114 109.394 20.4774 109.786 19.6389C110.178 18.8005 110.374 17.7688 110.374 16.5495C110.374 15.2961 110.172 14.2502 109.769 13.4175C109.36 12.579 108.819 11.9538 108.146 11.5388ZM107.001 18.2179C106.821 18.7039 106.563 19.0847 106.219 19.3576C105.878 19.6304 105.457 19.7668 104.966 19.7668C104.477 19.7668 104.059 19.6333 103.718 19.3633C103.377 19.0961 103.115 18.7181 102.933 18.2349C102.752 17.7489 102.663 17.1833 102.663 16.5325C102.663 15.8816 102.754 15.316 102.933 14.8357C103.115 14.3554 103.374 13.9859 103.715 13.7244C104.056 13.463 104.471 13.3322 104.966 13.3322C105.466 13.3322 105.886 13.4686 106.227 13.7386C106.569 14.0086 106.83 14.3838 107.003 14.8641C107.18 15.3445 107.268 15.9015 107.268 16.5325C107.268 17.1691 107.18 17.7319 107.001 18.2179Z" fill="white"/>
<path d="M120.346 12.2977C119.877 11.8373 119.331 11.4905 118.706 11.2603C118.081 11.0301 117.407 10.9136 116.685 10.9136C115.611 10.9136 114.676 11.1523 113.88 11.627C113.084 12.1016 112.467 12.7667 112.03 13.6165C111.592 14.4663 111.373 15.4553 111.373 16.5808C111.373 17.7347 111.592 18.7352 112.03 19.5793C112.467 20.4234 113.09 21.0743 113.9 21.5318C114.71 21.9894 115.679 22.2196 116.804 22.2196C117.708 22.2196 118.504 22.0804 119.195 21.8018C119.885 21.5233 120.451 21.1339 120.891 20.6337C121.332 20.1335 121.622 19.5452 121.764 18.8687L118.956 18.684C118.851 18.9597 118.7 19.1927 118.501 19.3832C118.302 19.5736 118.061 19.7157 117.782 19.8095C117.501 19.9061 117.194 19.9516 116.856 19.9516C116.347 19.9516 115.906 19.8436 115.537 19.6304C115.167 19.4173 114.88 19.1132 114.678 18.7181C114.477 18.3231 114.374 17.8569 114.374 17.3141V17.3056H121.829V16.4728C121.829 15.5406 121.699 14.7277 121.437 14.0314C121.178 13.3379 120.812 12.7581 120.346 12.2977ZM114.383 15.4269C114.4 15.0347 114.499 14.6737 114.681 14.3469C114.88 13.9945 115.159 13.7102 115.511 13.4999C115.864 13.2896 116.273 13.1816 116.733 13.1816C117.177 13.1816 117.563 13.2782 117.899 13.4715C118.234 13.6648 118.495 13.9291 118.686 14.2673C118.876 14.6055 118.97 14.9921 118.97 15.4297H114.383V15.4269Z" fill="white"/>
<path d="M131.228 11.7914C130.793 11.493 130.296 11.2713 129.738 11.1292C129.181 10.9871 128.596 10.916 127.988 10.916C127.112 10.916 126.345 11.0468 125.683 11.3111C125.02 11.5754 124.478 11.9506 124.06 12.4366C123.642 12.9226 123.361 13.4995 123.219 14.1646L126.027 14.392C126.132 14.031 126.345 13.7297 126.669 13.491C126.993 13.2523 127.428 13.13 127.973 13.13C128.491 13.13 128.891 13.2551 129.176 13.5024C129.457 13.7496 129.599 14.0992 129.599 14.5511V14.5938C129.599 14.8268 129.511 15.003 129.335 15.1224C129.159 15.2418 128.877 15.3299 128.488 15.3896C128.099 15.4492 127.584 15.5118 126.947 15.58C126.405 15.6311 125.89 15.7221 125.396 15.85C124.904 15.9779 124.466 16.1683 124.08 16.4213C123.696 16.6742 123.392 17.0067 123.167 17.4188C122.946 17.8338 122.832 18.3425 122.832 18.9508C122.832 19.6727 122.991 20.2752 123.307 20.7584C123.622 21.2415 124.054 21.6053 124.6 21.8498C125.146 22.0942 125.768 22.2164 126.467 22.2164C127.007 22.2164 127.487 22.1453 127.9 21.9975C128.315 21.8526 128.667 21.6508 128.963 21.3922C129.258 21.1335 129.491 20.8323 129.667 20.4912H129.753V22.0089H132.632V14.6222C132.632 13.9713 132.507 13.4114 132.254 12.9425C132.006 12.4764 131.663 12.0927 131.228 11.7914ZM129.622 18.0924C129.622 18.4761 129.525 18.8229 129.329 19.127C129.133 19.4311 128.866 19.6727 128.525 19.8517C128.184 20.0308 127.789 20.1189 127.343 20.1189C126.876 20.1189 126.493 20.0109 126.191 19.7949C125.89 19.5789 125.74 19.2634 125.74 18.8513C125.74 18.5671 125.813 18.3283 125.961 18.1351C126.109 17.9418 126.314 17.7883 126.581 17.6746C126.848 17.561 127.158 17.4785 127.513 17.4245C127.681 17.4018 127.865 17.3734 128.07 17.3421C128.275 17.3108 128.479 17.2767 128.684 17.2341C128.889 17.1943 129.073 17.1488 129.235 17.0977C129.4 17.0465 129.528 16.9925 129.625 16.93V18.0924H129.622Z" fill="white"/>
<path d="M149.038 11.8884C148.399 11.2404 147.569 10.9164 146.546 10.9164C145.742 10.9164 145.048 11.104 144.46 11.482C143.871 11.86 143.468 12.3631 143.243 12.9883H143.13C142.953 12.3517 142.601 11.8458 142.075 11.4735C141.547 11.1012 140.907 10.9136 140.157 10.9136C139.415 10.9136 138.778 11.0983 138.247 11.4706C137.715 11.8401 137.335 12.346 137.107 12.9883H136.979V11.0557H134.086V22.0036H137.121V15.4354C137.121 15.0318 137.201 14.6794 137.357 14.3782C137.514 14.0769 137.727 13.841 137.994 13.6733C138.261 13.5056 138.565 13.4203 138.903 13.4203C139.404 13.4203 139.804 13.5795 140.111 13.8978C140.418 14.2161 140.572 14.6425 140.572 15.1796V22.0093H143.516V15.3217C143.516 14.7505 143.67 14.2929 143.979 13.9433C144.289 13.5937 144.718 13.4203 145.27 13.4203C145.756 13.4203 146.159 13.5738 146.481 13.8779C146.805 14.182 146.967 14.6396 146.967 15.245V22.0093H149.996V14.6425C149.999 13.4545 149.678 12.5364 149.038 11.8884Z" fill="white"/>
<path d="M48.1488 0.00244141H44.832L36.3226 17.0184L33.2503 13.9204L40.1993 0.0223364L40.1567 0.00244141H36.8399L31.0078 11.6638L28.4783 9.11437L33.0257 0.0223364L32.9803 0.00244141H29.6635L23.5586 12.2123L19.5312 8.15372H17.6725L15.8819 11.7064L12.3548 8.15372H10.496L0 28.998H3.37647L11.9342 12.0105L14.4523 14.5485L7.17358 28.998H10.55L16.6919 16.8052L19.7529 19.8918L15.1657 28.998H18.5422L24.4084 17.3509L28.069 21.0372H29.6919L31.8264 16.7711L36.064 21.04H37.6869L48.1943 0.0251786L48.1488 0.00244141ZM20.6141 17.0184L18.1244 14.5088L19.3863 12.0048L21.8703 14.5059L20.6141 17.0184ZM28.3305 17.0184L25.8408 14.5088L27.1027 12.0048L29.5868 14.5059L28.3305 17.0184Z" fill="#367BF3"/>
</g>
<defs>
<clipPath id="clip0_329_201690">
<rect width="150" height="28.9956" fill="white" transform="translate(0 0.00244141)"/>
</clipPath>
</defs>
</svg>
