<svg width="150" height="27" viewBox="0 0 150 27" fill="none" xmlns="http://www.w3.org/2000/svg">
<path d="M15.5834 0.444336H4.55175C2.03854 0.444336 0 2.48287 0 4.99609V16.0296C0 18.5428 2.03854 20.5813 4.55175 20.5813H15.5853C18.0985 20.5813 20.137 18.5428 20.137 16.0296V4.99609C20.1352 2.48287 18.0985 0.444336 15.5834 0.444336Z" fill="#FFDE59"/>
<path d="M13.34 7.50581L6.98884 12.3906C6.72575 12.593 6.37618 12.6482 6.0634 12.5341L2.88233 11.3842C2.69098 11.3143 2.67995 11.0475 2.86577 10.9629L15.6416 5.16554C15.8293 5.08091 16.0353 5.24281 15.9948 5.44519L13.9802 15.6949C13.9508 15.8421 13.7907 15.9212 13.6564 15.855L9.06418 13.603C8.76796 13.4577 8.68701 13.075 8.89859 12.8211L13.34 7.50581Z" fill="black"/>
<path d="M8.00891 13.7282L9.94441 14.7365C10.099 14.8174 10.11 15.0327 9.96465 15.1284L8.02914 16.4034C7.87828 16.5027 7.67773 16.3942 7.67773 16.2139V13.9306C7.67773 13.7595 7.85804 13.6491 8.00891 13.7282Z" fill="black"/>
<path d="M31.7795 20.4915C30.8099 20.4915 29.9525 20.3369 29.2074 20.0297C28.4623 19.7224 27.8827 19.2091 27.4724 18.4916C27.0622 17.774 26.8579 16.7897 26.8579 15.5405V9.55548H24.4238V6.39465H26.8579L27.2774 2.53467H30.6333V6.39465H34.3534V9.55548H30.6333V15.5975C30.6333 16.2322 30.7731 16.6701 31.0528 16.913C31.3324 17.1558 31.8071 17.2773 32.4786 17.2773H34.2964V20.4915H31.7795Z" fill="#3643E6"/>
<path d="M41.7341 20.828C40.5786 20.828 39.6182 20.6367 38.8529 20.254C38.0875 19.8713 37.5153 19.3599 37.1326 18.7159C36.7499 18.072 36.5586 17.36 36.5586 16.5762C36.5586 15.7004 36.7775 14.9351 37.2154 14.2838C37.6533 13.6306 38.3193 13.1228 39.2153 12.7585C40.1095 12.3942 41.2483 12.2139 42.6282 12.2139H46.0687C46.0687 11.5056 45.9804 10.9279 45.8038 10.479C45.6271 10.0319 45.3383 9.6952 44.9372 9.47258C44.5361 9.24812 44.0099 9.13773 43.3568 9.13773C42.6484 9.13773 42.0468 9.28676 41.5519 9.58481C41.057 9.88286 40.7553 10.3594 40.643 11.0107H36.9799C37.0737 9.98589 37.4031 9.10829 37.9734 8.38155C38.5419 7.65482 39.2963 7.08631 40.2383 6.67603C41.1803 6.26574 42.229 6.06152 43.3844 6.06152C44.7072 6.06152 45.859 6.28047 46.8378 6.71835C47.8166 7.15623 48.5617 7.80017 49.075 8.64833C49.5883 9.4965 49.844 10.5268 49.844 11.7393V20.4914H46.6832L46.2637 18.3369C46.0577 18.7104 45.8111 19.0452 45.5223 19.3433C45.2334 19.6414 44.8967 19.9026 44.5159 20.1271C44.1332 20.3515 43.7192 20.5226 43.2703 20.6441C42.8251 20.7673 42.3118 20.828 41.7341 20.828ZM42.6576 17.9193C43.1231 17.9193 43.5481 17.831 43.9308 17.6543C44.3135 17.4777 44.6447 17.2312 44.9243 16.9129C45.204 16.5964 45.4284 16.2413 45.5959 15.8495C45.7633 15.4576 45.8755 15.0289 45.9307 14.5634V14.5358H43.0495C42.4534 14.5358 41.9732 14.6057 41.6089 14.7455C41.2447 14.8854 40.9797 15.0859 40.8123 15.3472C40.6449 15.6084 40.5602 15.9065 40.5602 16.2413C40.5602 16.5964 40.6449 16.8982 40.8123 17.1502C40.9797 17.4023 41.2263 17.5936 41.5537 17.7242C41.8794 17.853 42.2474 17.9193 42.6576 17.9193Z" fill="#3643E6"/>
<path d="M52.7832 20.4915V0.354492H56.5585V20.4915H52.7832Z" fill="#3643E6"/>
<path d="M66.458 20.8279C65.0414 20.8279 63.7866 20.5207 62.6956 19.9043C61.6045 19.2898 60.7564 18.4362 60.1511 17.3451C59.5458 16.2541 59.2422 15.0012 59.2422 13.5827C59.2422 12.1108 59.5458 10.8137 60.1511 9.69509C60.7564 8.57647 61.6009 7.69151 62.6827 7.03836C63.7645 6.38522 65.023 6.05957 66.458 6.05957C67.8563 6.05957 69.078 6.36682 70.1211 6.98317C71.1643 7.59767 71.9757 8.42376 72.5534 9.45775C73.1311 10.4917 73.42 11.6803 73.42 13.0234C73.42 13.2092 73.4144 13.4189 73.4052 13.6526C73.396 13.8862 73.3813 14.1236 73.3629 14.3664H61.9523V12.0464H69.6152C69.56 11.1706 69.238 10.4623 68.6493 9.92138C68.0624 9.38047 67.3393 9.11002 66.4819 9.11002C65.8288 9.11002 65.2382 9.26456 64.7065 9.57182C64.1748 9.87907 63.7516 10.3262 63.4333 10.9149C63.1169 11.5018 62.9587 12.2433 62.9587 13.1393V13.9506C62.9587 14.716 63.1022 15.382 63.3929 15.9505C63.6817 16.519 64.0865 16.9624 64.609 17.2789C65.1315 17.5972 65.7368 17.7536 66.4268 17.7536C67.1351 17.7536 67.7091 17.6101 68.147 17.3194C68.5849 17.0305 68.9252 16.6441 69.1681 16.1584H73.0005C72.7576 17.0342 72.3253 17.8327 71.6997 18.5502C71.0742 19.2678 70.3198 19.8271 69.4349 20.2281C68.5518 20.6274 67.5582 20.8279 66.458 20.8279Z" fill="#3643E6"/>
<path d="M75.9688 20.4912V6.39442H79.297L79.5491 8.71629C79.9961 7.89573 80.6162 7.24811 81.4092 6.77343C82.2021 6.29875 83.1478 6.05957 84.248 6.05957C85.4237 6.05957 86.4098 6.30611 87.212 6.80102C88.0142 7.29594 88.6287 8.00796 89.0573 8.94075C89.486 9.87355 89.7013 11.0106 89.7013 12.3536V20.4912H85.9259V12.6885C85.9259 11.5883 85.6831 10.7401 85.1992 10.144C84.7135 9.5479 83.9776 9.24985 82.9896 9.24985C82.3751 9.24985 81.8194 9.39887 81.3245 9.69692C80.8296 9.99498 80.4432 10.42 80.1636 10.9701C79.8839 11.5202 79.7441 12.1973 79.7441 12.9976V20.4912H75.9688Z" fill="#3643E6"/>
<path d="M99.0139 20.4915C98.0443 20.4915 97.1869 20.3369 96.4418 20.0297C95.6966 19.7224 95.1171 19.2091 94.7068 18.4916C94.2965 17.774 94.0923 16.7897 94.0923 15.5405V9.55548H91.6582V6.39465H94.0923L94.5118 2.53467H97.8677V6.39465H101.588V9.55548H97.8677V15.5975C97.8677 16.2322 98.0075 16.6701 98.2871 16.913C98.5668 17.1558 99.0415 17.2773 99.713 17.2773H101.531V20.4915H99.0139Z" fill="#3643E6"/>
<path d="M110.648 20.828C109.493 20.828 108.532 20.6367 107.767 20.254C107.002 19.8713 106.429 19.3599 106.047 18.7159C105.664 18.072 105.473 17.36 105.473 16.5762C105.473 15.7004 105.692 14.9351 106.129 14.2838C106.567 13.6306 107.233 13.1228 108.129 12.7585C109.024 12.3942 110.162 12.2139 111.542 12.2139H114.983C114.983 11.5056 114.894 10.9279 114.718 10.479C114.541 10.0319 114.252 9.6952 113.851 9.47258C113.45 9.24812 112.924 9.13773 112.271 9.13773C111.563 9.13773 110.961 9.28676 110.466 9.58481C109.971 9.88286 109.669 10.3594 109.557 11.0107H105.894C105.988 9.98589 106.317 9.10829 106.887 8.38155C107.456 7.65482 108.21 7.08631 109.152 6.67603C110.094 6.26574 111.143 6.06152 112.298 6.06152C113.621 6.06152 114.773 6.28047 115.752 6.71835C116.731 7.15623 117.476 7.80017 117.989 8.64833C118.502 9.4965 118.758 10.5268 118.758 11.7393V20.4914H115.597L115.178 18.3369C114.972 18.7104 114.725 19.0452 114.436 19.3433C114.147 19.6414 113.811 19.9026 113.43 20.1271C113.047 20.3515 112.633 20.5226 112.184 20.6441C111.739 20.7673 111.226 20.828 110.648 20.828ZM111.572 17.9193C112.037 17.9193 112.462 17.831 112.845 17.6543C113.228 17.4777 113.559 17.2312 113.838 16.9129C114.118 16.5964 114.343 16.2413 114.51 15.8495C114.677 15.4576 114.79 15.0289 114.845 14.5634V14.5358H111.964C111.367 14.5358 110.887 14.6057 110.523 14.7455C110.159 14.8854 109.894 15.0859 109.726 15.3472C109.559 15.6084 109.474 15.9065 109.474 16.2413C109.474 16.5964 109.559 16.8982 109.726 17.1502C109.894 17.4023 110.14 17.5936 110.468 17.7242C110.793 17.853 111.161 17.9193 111.572 17.9193Z" fill="white"/>
<path d="M121.695 20.4915V0.354492H125.471V20.4915H121.695Z" fill="white"/>
<path d="M128.605 20.4915V0.354492H132.381V20.4915H128.605Z" fill="white"/>
<path d="M137.301 26.6457L140.714 18.9258H139.875L134.254 6.39648H138.337L142.364 15.4577L145.972 6.39648H149.999L141.3 26.6457H137.301Z" fill="white"/>
</svg>
