<svg width="491" height="300" viewBox="0 0 491 300" fill="none" xmlns="http://www.w3.org/2000/svg">
<path d="M263.235 97.5434L395.678 17.2426V8.32031L255.703 93.167L263.235 97.5434Z" fill="white"/>
<path d="M283.357 109.237L395.717 41.1489V32.2266L275.859 104.86L283.357 109.237Z" fill="white"/>
<path d="M303.279 120.862L395.521 65.0212V56.1328L295.781 116.52L303.279 120.862Z" fill="white"/>
<path d="M323.469 132.555L395.594 88.9274V80.0391L315.938 128.213L323.469 132.555Z" fill="white"/>
<path d="M336.094 139.847L343.625 144.19L395.632 112.775V103.887L336.094 139.847Z" fill="white"/>
<path d="M227.634 202.441L95.1562 282.742V291.664L235.131 206.818L227.634 202.441Z" fill="white"/>
<path d="M207.516 190.781L95.1562 258.869V267.757L215.014 195.158L207.516 190.781Z" fill="white"/>
<path d="M187.433 179.062L95.1562 234.937V243.825L194.93 183.439L187.433 179.062Z" fill="white"/>
<path d="M167.315 167.402L95.1562 211.064V219.952L174.812 171.779L167.315 167.402Z" fill="white"/>
<path d="M154.695 160.143L147.197 155.801L95.1562 187.215V196.104L154.695 160.143Z" fill="white"/>
<path d="M82.5738 8.96484L490.727 245.694L408.119 291.29L0 54.5602L82.5738 8.96484Z" fill="#E0FF4F"/>
<path d="M0 70.4883V253.005L81.4203 299.992V117.475L0 70.4883Z" fill="#E0FF4F"/>
<path d="M490.639 229.503V46.9863L409.219 0V182.517L490.639 229.503Z" fill="#E0FF4F"/>
</svg>
