<svg width="150" height="36" viewBox="0 0 150 36" fill="none" xmlns="http://www.w3.org/2000/svg">
<g clip-path="url(#clip0_406_52221)">
<g clip-path="url(#clip1_406_52221)">
<path d="M16.7535 27.5946C11.5951 27.3281 7.48681 23.0915 7.48681 17.8715C7.48681 17.798 7.49602 17.7245 7.49602 17.6602H0.265071C0.265071 17.7337 0.255859 17.8072 0.255859 17.8715C0.255859 27.0708 7.59735 34.5423 16.7535 34.8088V27.5946V27.5946Z" fill="#1D1C26"/>
<path d="M16.9492 25.2328C22.1076 25.4993 26.2159 29.7359 26.2159 34.9558C26.2159 35.0294 26.2067 35.1029 26.2067 35.1672H33.4376C33.4376 35.0937 33.4468 35.0202 33.4468 34.9558C33.4468 25.7566 26.1054 18.2851 16.9492 18.0186V25.2328V25.2328Z" fill="#1D1C26"/>
<path d="M33.8062 10.7675C28.6478 10.501 24.5395 6.26433 24.5395 1.04438C24.5395 0.970859 24.5488 0.897338 24.5488 0.833008H17.3178C17.3178 0.906528 17.3086 0.980049 17.3086 1.04438C17.3086 10.2436 24.6501 17.7151 33.8062 17.9817V10.7675V10.7675Z" fill="#6700F6"/>
<path d="M16.7515 10.7675C11.5931 10.501 7.48486 6.26433 7.48486 1.04438C7.48486 0.970859 7.49407 0.897338 7.49407 0.833008H0.263118C0.263118 0.906528 0.253906 0.980049 0.253906 1.04438C0.253906 10.2436 7.5954 17.7151 16.7515 17.9817V10.7675Z" fill="#1D1C26"/>
</g>
<path d="M57.663 22.0749C56.9045 23.6034 55.1826 24.5631 53.2898 24.1587C51.8207 23.8434 50.6317 22.6507 50.3242 21.1701C49.7912 18.6272 51.7113 16.3858 54.1508 16.3858C55.8044 16.3858 57.212 17.4139 57.7929 18.8602C57.8544 19.011 57.991 19.1138 58.1482 19.1138H60.4373C60.6559 19.1138 60.8268 18.9082 60.7721 18.6957C60.0478 15.7003 57.3555 13.4727 54.1439 13.4727C50.5224 13.4727 47.4475 16.4612 47.3313 20.1009C47.2151 23.9736 50.3105 27.154 54.1439 27.154C57.2325 27.154 59.836 25.0908 60.6764 22.2668C60.7379 22.0544 60.5671 21.835 60.3485 21.835H58.0115C57.8612 21.835 57.7245 21.9241 57.6562 22.0612L57.663 22.0749Z" fill="#282A44"/>
<path d="M69.0052 14.0479C65.3972 14.0479 62.4727 16.9815 62.4727 20.6007C62.4727 24.2198 65.3972 27.1534 69.0052 27.1534C72.6131 27.1534 75.5377 24.2198 75.5377 20.6007C75.5377 16.9815 72.6131 14.0479 69.0052 14.0479V14.0479ZM69.0052 24.3637C66.9347 24.3637 65.2538 22.6775 65.2538 20.6007C65.2538 18.5238 66.9347 16.8376 69.0052 16.8376C71.0756 16.8376 72.7566 18.5238 72.7566 20.6007C72.7566 22.6775 71.0756 24.3637 69.0052 24.3637V24.3637Z" fill="#282A44"/>
<path d="M88.9679 19.1547V26.7699C88.9679 26.9824 88.797 27.1538 88.5852 27.1538H86.3781C86.1663 27.1538 85.9955 26.9824 85.9955 26.7699V20.5187C85.9955 17.8181 85.2848 16.6391 83.2212 16.6391C81.2874 16.6391 80.2009 17.9209 80.2009 20.1623V26.7699C80.2009 26.9824 80.0301 27.1538 79.8183 27.1538H77.6112C77.3993 27.1538 77.2285 26.9824 77.2285 26.7699V9.22269C77.2285 9.01021 77.3993 8.8457 77.6043 8.8457H79.8114C80.0233 8.8457 80.1873 9.01706 80.1873 9.22269V16.2005C80.9731 14.8364 82.449 14.0962 84.3213 14.0962C87.3689 14.0962 88.9474 15.8166 88.9474 19.1479L88.9679 19.1547Z" fill="#282A44"/>
<path d="M102.65 21.4445H93.5965C93.6785 23.4665 94.9836 24.5564 97.136 24.5564C98.5027 24.5564 99.35 24.1588 99.8556 23.3089C99.9308 23.1855 100.054 23.1101 100.19 23.1101H102.466C102.732 23.1101 102.917 23.3706 102.842 23.6242C102.22 25.7216 99.9581 27.1542 97.136 27.1542C93.1318 27.1542 90.6582 24.5906 90.6582 20.4643C90.6582 16.338 93.1591 13.7744 97.0267 13.7744C100.648 13.7744 103.095 16.2283 103.095 19.8063C103.095 20.2312 103.074 20.5808 103.04 21.0812C103.026 21.2868 102.855 21.4445 102.65 21.4445V21.4445ZM100.177 19.1757C100.149 17.2085 99.0083 16.1186 96.9652 16.1186C94.9221 16.1186 93.617 17.373 93.5896 19.1757H100.177Z" fill="#282A44"/>
<path d="M105.18 14.4321H107.359C107.578 14.4321 107.749 14.6103 107.749 14.8228V16.3513C108.33 15.0216 109.737 14.2676 111.124 14.2676C111.432 14.2676 111.698 14.2813 111.944 14.3087C112.149 14.3361 112.293 14.5075 112.293 14.7131V16.6666C112.293 16.8997 112.095 17.0847 111.862 17.071C111.63 17.0573 111.425 17.0573 111.124 17.0573C109.027 17.0573 107.749 18.6407 107.749 21.5332V26.7151C107.749 26.9551 107.551 27.1538 107.311 27.1538H105.221C104.981 27.1538 104.783 26.9551 104.783 26.7151V14.8296C104.783 14.6103 104.961 14.4389 105.173 14.4389L105.18 14.4321Z" fill="#282A44"/>
<path d="M125.997 21.4445H116.929C117.011 23.4665 118.317 24.5564 120.469 24.5564C121.836 24.5564 122.683 24.152 123.189 23.3089C123.257 23.1923 123.38 23.1101 123.523 23.1101H125.806C126.065 23.1101 126.25 23.3637 126.175 23.6173C125.56 25.7216 123.291 27.1542 120.462 27.1542C116.458 27.1542 113.984 24.5906 113.984 20.4643C113.984 16.338 116.485 13.7744 120.353 13.7744C123.974 13.7744 126.421 16.2283 126.421 19.8063C126.421 20.2312 126.4 20.5877 126.366 21.088C126.352 21.2868 126.188 21.4445 125.99 21.4445H125.997ZM123.517 19.1757C123.489 17.2085 122.348 16.1186 120.305 16.1186C118.262 16.1186 116.957 17.373 116.929 19.1757H123.517Z" fill="#282A44"/>
<path d="M128.514 14.4325H130.694C130.913 14.4325 131.084 14.6107 131.084 14.8232V16.2078C131.87 14.8438 133.346 14.1035 135.218 14.1035C138.265 14.1035 139.844 15.824 139.844 19.1552V26.7704C139.844 26.9829 139.673 27.1543 139.461 27.1543H137.261C137.049 27.1543 136.878 26.9829 136.878 26.7704V20.5192C136.878 17.8186 136.168 16.6396 134.104 16.6396C132.17 16.6396 131.084 17.9214 131.084 20.1628V26.7704C131.084 26.9829 130.913 27.1543 130.701 27.1543H128.494C128.282 27.1543 128.111 26.9829 128.111 26.7704V14.8232C128.111 14.6039 128.289 14.4325 128.501 14.4325H128.514Z" fill="#282A44"/>
<path d="M146.651 10.6211V14.2677H149.173C149.391 14.2677 149.562 14.4459 149.562 14.6584V16.3583C149.562 16.5776 149.385 16.749 149.173 16.749H146.651V21.9926C146.651 24.2065 147.335 24.4739 148.503 24.4739C148.811 24.4739 149.241 24.4464 149.583 24.419C149.808 24.3985 149.999 24.5767 149.999 24.8029V26.6535C149.999 26.8455 149.863 27.01 149.665 27.0374C149.18 27.0991 148.483 27.1539 147.792 27.1539C146.351 27.1539 143.686 26.962 143.686 22.678V16.7558H141.916C141.704 16.7558 141.533 16.5844 141.533 16.372V14.6515C141.533 14.439 141.704 14.2677 141.916 14.2677H143.686V10.628C143.686 10.4155 143.85 10.2441 144.061 10.2441H146.269C146.48 10.2441 146.651 10.4086 146.651 10.6211V10.6211Z" fill="#282A44"/>
</g>
<defs>
<clipPath id="clip0_406_52221">
<rect width="150" height="34.3341" fill="white" transform="translate(0 0.833008)"/>
</clipPath>
<clipPath id="clip1_406_52221">
<rect width="33.8059" height="34.3341" fill="white" transform="translate(0 0.833008)"/>
</clipPath>
</defs>
</svg>
