<svg width="150" height="46" viewBox="0 0 150 46" fill="none" xmlns="http://www.w3.org/2000/svg">
<path fill-rule="evenodd" clip-rule="evenodd" d="M17.1599 16.173C8.82586 20.9641 9.65712 34.8965 19.0385 38.5506C15.2866 42.0259 9.33173 44.8522 3.03543 35.3313C-0.893318 28.4029 0.536286 23.2605 4.39302 18.4347C9.30684 13.0711 12.6284 12.3145 17.1599 16.173Z" fill="#4E78F4"/>
<path fill-rule="evenodd" clip-rule="evenodd" d="M23.7777 31.0563C25.5318 28.615 28.6915 26.6804 32.6327 29.2008C35.4546 31.0083 33.344 34.5832 31.3338 36.9303C29.1037 39.5398 26.1616 41.443 22.8672 42.4074C19.5729 43.3718 16.0689 43.3555 12.7836 42.3607L13.1019 41.9357C9.87553 42.6158 6.10504 41.4565 2.43323 35.8901C-1.50707 28.9644 -0.316621 22.1737 3.53655 17.3604C6.77806 13.8246 9.69594 12.7577 12.6049 13.5499L12.5063 13.1605C13.5746 12.8044 14.677 12.5604 15.7958 12.4323C21.5595 11.7744 28.9165 13.0902 31.0244 10.0879L33.2551 11.2366C36.0796 17.4653 37.078 19.8604 35.2261 21.9879C31.0413 26.7568 25.1949 23.2655 20.3575 20.1511C14.8578 16.4171 6.77806 15.6507 3.9633 22.7063C1.12899 29.8134 6.58335 39.6393 13.7429 38.3226C17.1445 37.694 21.8351 33.7519 23.7777 31.0563Z" fill="#677294"/>
<path fill-rule="evenodd" clip-rule="evenodd" d="M2.42969 35.8936C8.93936 45.7506 17.044 40.2216 20.9292 36.788L20.9861 36.7373C21.1639 36.5809 21.3417 36.4182 21.5195 36.2581C23.0064 34.87 24.3603 33.346 25.5638 31.7062C27.5829 28.9501 30.5728 27.749 33.1208 29.4924C36.3054 31.6608 36.3054 35.5611 34.0099 38.2318C25.6279 47.8523 11.0171 46.9259 4.75991 39.2507C3.89084 38.1987 3.11138 37.0757 2.42969 35.8936Z" fill="#051441"/>
<path fill-rule="evenodd" clip-rule="evenodd" d="M2.42969 35.8934C8.93581 45.7504 16.7862 40.1004 20.6714 36.666L20.7283 36.6153C20.9061 36.4588 21.0839 36.2961 21.2617 36.1361C22.7494 34.7479 24.1035 33.223 25.306 31.5815C27.3286 28.8254 30.5639 27.7487 33.1084 29.4922C34.3297 30.2857 35.1902 31.5275 35.5044 32.9497C35.0824 31.8706 34.3415 30.9458 33.3804 30.2985C30.8484 28.5293 27.6016 29.5766 25.5567 32.3105C24.3407 33.937 22.9748 35.4458 21.4769 36.8171C21.299 36.9798 21.1212 37.1363 20.939 37.2928L20.8785 37.347C17.1871 40.5414 9.96534 45.6739 3.77394 37.9693C3.28961 37.3015 2.8409 36.6086 2.42969 35.8934Z" fill="#4E78F4"/>
<path fill-rule="evenodd" clip-rule="evenodd" d="M33.2537 0.773438C38.5658 9.61778 38.0492 18.3154 35.7661 21.3436C32.2882 25.9587 26.9325 22.1739 21.3714 18.6604C19.7791 17.5997 18.298 16.6644 16.8844 15.8945L16.7892 15.8367C11.5438 12.9918 7.35632 13.0549 3.53516 17.3606C5.02546 15.4917 6.87573 13.941 8.97633 12.8004C11.0769 11.6598 13.3851 10.9524 15.7641 10.7202C23.7923 9.8196 34.2601 8.81941 33.2537 0.773438Z" fill="#051441"/>
<path fill-rule="evenodd" clip-rule="evenodd" d="M9.4375 12.5339C11.5219 11.4467 13.789 10.7535 16.125 10.4891C24.1594 9.58577 33.8279 7.77832 33.258 0.773438C36.1563 11.0296 32.9682 15.0161 26.8284 13.5501C22.0354 12.4068 15.0741 10.0525 9.4375 12.5339Z" fill="#07112D"/>
<path fill-rule="evenodd" clip-rule="evenodd" d="M37.2304 17.2705C37.0775 18.7258 36.5761 20.1228 35.7688 21.3433C32.2908 25.9557 26.9476 22.7586 21.3874 19.2255C19.7951 18.1649 18.3175 17.2296 16.9039 16.4561L16.8088 16.4028C11.5536 13.5489 7.3581 13.0546 3.53516 17.3603C4.31181 16.3902 5.18686 15.5033 6.14632 14.7136C9.33092 12.6634 12.8694 13.3684 17.0631 15.5502L17.1582 15.6008C18.5718 16.3387 20.0627 17.2456 21.655 18.268C27.2152 21.6829 32.5558 24.7715 36.0338 20.079C36.6105 19.229 37.0169 18.2752 37.2304 17.2705Z" fill="#4E78F4"/>
<path d="M60.2537 34.1586C58.8614 34.9243 57.2911 35.3078 55.7026 35.27C50.779 35.27 47.8789 32.1236 47.8789 26.8186C47.8789 21.5136 50.7772 18.3636 55.7026 18.3636C57.2935 18.3081 58.8686 18.694 60.2537 19.4785C60.8903 19.9231 61.0974 20.2547 61.0974 20.7979V22.2862C61.0974 22.7938 60.9285 23.0979 60.524 23.0979C60.2473 23.0695 59.9812 22.9766 59.7469 22.8267C58.6539 22.2536 57.4424 21.9432 56.2085 21.9199C53.7467 21.9199 52.0681 23.3735 52.0681 26.823C52.0681 30.2726 53.7529 31.7262 56.2085 31.7262C57.444 31.6969 58.6556 31.3797 59.7469 30.7998C59.981 30.6495 60.2472 30.5566 60.524 30.5286C60.9285 30.5286 61.0974 30.8478 61.0974 31.3403V32.8286C61.1009 33.1082 61.023 33.3828 60.8732 33.619C60.7234 33.8551 60.5082 34.0426 60.2537 34.1586Z" fill="#07112D"/>
<path d="M71.1931 18.6377C72.1488 18.6377 73.1837 19.1107 73.1837 19.8548V23.0492C73.1899 23.1307 73.1785 23.2126 73.1502 23.2893C73.1218 23.3661 73.0773 23.4357 73.0195 23.4936C72.9618 23.5515 72.8923 23.5963 72.8156 23.6249C72.739 23.6534 72.6571 23.6651 72.5756 23.6591C72.3444 23.6463 72.1225 23.5638 71.939 23.4226C71.4284 23.0254 70.7989 22.8116 70.152 22.8154C69.0355 22.8536 67.9652 23.2702 67.1168 23.9969V34.31C67.117 34.3938 67.1007 34.4768 67.0688 34.5543C67.037 34.6318 66.9901 34.7022 66.931 34.7616C66.8719 34.8209 66.8016 34.8681 66.7243 34.9003C66.6469 34.9325 66.564 34.9491 66.4802 34.9492H63.5819C63.4981 34.9491 63.4152 34.9325 63.3378 34.9003C63.2605 34.8681 63.1902 34.8209 63.1311 34.7616C63.072 34.7022 63.0251 34.6318 62.9932 34.5543C62.9614 34.4768 62.9451 34.3938 62.9453 34.31V19.3472C62.9451 19.2634 62.9614 19.1804 62.9932 19.1029C63.0251 19.0254 63.072 18.955 63.1311 18.8956C63.1902 18.8362 63.2605 18.7891 63.3378 18.7569C63.4152 18.7247 63.4981 18.708 63.5819 18.7079H65.2346C65.4685 18.6919 65.7031 18.7234 65.9244 18.8005C66.1457 18.8776 66.3491 18.9987 66.5223 19.1566C66.6955 19.3144 66.835 19.5057 66.9323 19.7189C67.0295 19.9321 67.0826 20.1629 67.0883 20.3971V20.6336C67.6005 20.0389 68.2288 19.555 68.9346 19.2118C69.6405 18.8686 70.409 18.6732 71.1931 18.6377Z" fill="#07112D"/>
<path d="M87.4271 27.5309H77.6191C77.6191 30.5394 79.2113 31.9611 82.396 31.9611C83.5377 31.9542 84.6644 31.7003 85.6988 31.2169C86.0682 31.0219 86.4656 30.8851 86.8768 30.8115C87.2467 30.8115 87.4503 31.0827 87.4503 31.5556V32.2998C87.4856 32.5629 87.455 32.8307 87.3611 33.079C87.2672 33.3273 87.113 33.5484 86.9124 33.7223C85.2182 34.8137 83.229 35.3569 81.2153 35.2781C75.8872 35.2781 73.4609 31.7646 73.4609 26.8267C73.4609 21.8889 76.1139 18.3691 80.9895 18.3691C85.0694 18.3691 87.6289 20.5313 87.6289 25.0993C87.6412 25.9145 87.5736 26.7289 87.4271 27.5309ZM81.0579 21.2737C78.7997 21.2737 77.8733 22.7273 77.6857 25.1962H83.8202C83.8549 24.8255 83.8869 24.485 83.8869 24.1809C83.9207 23.7974 83.8712 23.411 83.742 23.0484C83.6127 22.6857 83.4066 22.3552 83.1378 22.0795C82.869 21.8038 82.5439 21.5894 82.1846 21.4509C81.8254 21.3125 81.4404 21.2532 81.0562 21.2772L81.0579 21.2737Z" fill="#07112D"/>
<path d="M93.9173 35.1394C91.1176 35.1394 88.6914 33.8201 88.6914 30.134C88.6914 27.1255 90.9203 24.8886 95.1975 24.8886C96.2052 24.9006 97.2095 25.0075 98.1972 25.2078V24.893C98.1972 22.6571 98.0283 21.6124 95.8021 21.6124C94.2516 21.6217 92.7217 21.9681 91.3186 22.6277C90.9933 22.7983 90.639 22.9066 90.2739 22.9469C89.905 22.9469 89.7005 22.7104 89.7005 22.2356V20.734C89.7005 20.1241 90.0188 19.7561 90.7798 19.3827C92.5978 18.6881 94.5308 18.3436 96.4769 18.3674C100.996 18.3674 102.276 20.3286 102.276 24.0467V31.8277C102.276 32.6074 102.512 32.9106 103.019 32.9106V33.316C103.019 34.1623 102.547 35.143 100.592 35.143C99.2454 35.143 98.4364 34.6033 98.1972 33.4849C97.6488 34.0577 96.9812 34.5029 96.2415 34.7888C95.5019 35.0748 94.7084 35.1945 93.9173 35.1394ZM98.1972 27.3966C97.5023 27.2232 96.7894 27.1322 96.0733 27.1255C93.7804 27.1255 92.7713 28.1034 92.7713 29.8975C92.7713 31.8588 93.8506 32.434 95.402 32.434C95.9268 32.4312 96.4455 32.3219 96.9267 32.1127C97.4079 31.9035 97.8417 31.5987 98.2016 31.2169L98.1972 27.3966Z" fill="#07112D"/>
<path d="M103.848 21.4807C103.764 21.4806 103.681 21.464 103.603 21.4318C103.526 21.3996 103.456 21.3525 103.397 21.2931C103.338 21.2337 103.291 21.1633 103.259 21.0858C103.227 21.0083 103.211 20.9253 103.211 20.8415V19.347C103.211 19.2632 103.227 19.1802 103.259 19.1027C103.291 19.0252 103.338 18.9548 103.397 18.8954C103.456 18.836 103.526 18.7889 103.603 18.7567C103.681 18.7245 103.764 18.7079 103.848 18.7078H105.265V15.4254C105.264 15.3416 105.281 15.2586 105.313 15.1811C105.344 15.1036 105.391 15.0332 105.45 14.9738C105.51 14.9144 105.58 14.8673 105.657 14.8351C105.735 14.8029 105.817 14.7862 105.901 14.7861H108.8C108.883 14.7862 108.966 14.8029 109.044 14.8351C109.121 14.8673 109.191 14.9144 109.25 14.9738C109.309 15.0332 109.356 15.1036 109.388 15.1811C109.42 15.2586 109.436 15.3416 109.436 15.4254V18.706H111.862C111.946 18.7061 112.029 18.7227 112.106 18.7549C112.184 18.7871 112.254 18.8343 112.313 18.8936C112.372 18.953 112.419 19.0234 112.451 19.1009C112.483 19.1784 112.499 19.2614 112.499 19.3452V20.8335C112.499 20.9173 112.483 21.0003 112.451 21.0778C112.419 21.1553 112.372 21.2257 112.313 21.2851C112.254 21.3445 112.184 21.3916 112.106 21.4238C112.029 21.456 111.946 21.4726 111.862 21.4727H109.436V30.9856C109.436 31.6969 109.754 32.0685 110.414 32.0685C110.748 32.077 111.08 32.0196 111.392 31.8996C111.621 31.8046 111.859 31.7359 112.103 31.6951C112.339 31.6951 112.575 31.7974 112.575 32.3023V33.0136C112.607 33.2461 112.585 33.483 112.508 33.7051C112.432 33.9271 112.304 34.128 112.135 34.2912C111.103 34.9779 109.866 35.2881 108.632 35.1695C106.744 35.1695 105.26 34.1222 105.26 32.0267V21.4807H103.848Z" fill="#051441"/>
<path d="M114.01 14.0384C114.011 13.6123 114.138 13.196 114.376 12.8423C114.614 12.4886 114.951 12.2132 115.345 12.051C115.739 11.8888 116.172 11.847 116.59 11.9309C117.008 12.0148 117.392 12.2206 117.692 12.5223C117.993 12.8241 118.198 13.2083 118.281 13.6263C118.363 14.0444 118.32 14.4775 118.157 14.8711C117.994 15.2647 117.717 15.6011 117.363 15.8377C117.008 16.0743 116.592 16.2006 116.166 16.2006C115.593 16.1997 115.044 15.9714 114.64 15.5659C114.236 15.1604 114.009 14.611 114.01 14.0384ZM117.621 34.9499H114.721C114.637 34.9498 114.554 34.9332 114.477 34.901C114.4 34.8688 114.329 34.8216 114.27 34.7623C114.211 34.7029 114.164 34.6325 114.132 34.555C114.101 34.4775 114.084 34.3945 114.084 34.3107V19.347C114.084 19.2632 114.101 19.1802 114.132 19.1027C114.164 19.0252 114.211 18.9548 114.27 18.8954C114.329 18.836 114.4 18.7889 114.477 18.7567C114.554 18.7245 114.637 18.7079 114.721 18.7077H117.619C117.703 18.7079 117.786 18.7245 117.863 18.7567C117.941 18.7889 118.011 18.836 118.07 18.8954C118.129 18.9548 118.176 19.0252 118.208 19.1027C118.24 19.1802 118.256 19.2632 118.256 19.347V34.292C118.259 34.3773 118.244 34.4623 118.213 34.5419C118.182 34.6215 118.136 34.6941 118.077 34.7555C118.017 34.8168 117.946 34.8656 117.868 34.899C117.789 34.9324 117.705 34.9497 117.619 34.9499H117.621Z" fill="#051441"/>
<path d="M132.437 34.1582C131.045 34.9239 129.475 35.3073 127.886 35.2695C122.963 35.2695 120.062 32.1294 120.062 26.8235C120.062 21.5176 122.961 18.3685 127.886 18.3685C129.477 18.313 131.052 18.6989 132.437 19.4834C133.074 19.9279 133.281 20.2596 133.281 20.8028V22.291C133.281 22.7987 133.112 23.1028 132.708 23.1028C132.431 23.0744 132.165 22.9815 131.931 22.8316C130.838 22.2561 129.627 21.9431 128.392 21.9176C125.93 21.9176 124.252 23.3713 124.252 26.8208C124.252 30.2703 125.936 31.7239 128.392 31.7239C129.629 31.6967 130.843 31.3807 131.937 30.8011C132.171 30.6508 132.437 30.5579 132.714 30.5299C133.118 30.5299 133.287 30.8491 133.287 31.3417V32.8299C133.289 33.1098 133.21 33.3842 133.059 33.62C132.908 33.8557 132.692 34.0427 132.437 34.1582Z" fill="#051441"/>
<path d="M149.376 34.95H146.408C146.047 34.9648 145.689 34.8839 145.369 34.7156C145.049 34.5473 144.779 34.2976 144.587 33.9916L140.816 28.4795C140.687 28.193 140.471 27.9542 140.199 27.7966C139.928 27.6391 139.613 27.5707 139.3 27.6011V34.309C139.301 34.3928 139.284 34.4758 139.252 34.5533C139.221 34.6308 139.174 34.7012 139.115 34.7606C139.055 34.82 138.985 34.8671 138.908 34.8993C138.831 34.9315 138.748 34.9481 138.664 34.9482H135.765C135.682 34.9481 135.599 34.9315 135.521 34.8993C135.444 34.8671 135.374 34.82 135.315 34.7606C135.256 34.7012 135.209 34.6308 135.177 34.5533C135.145 34.4758 135.129 34.3928 135.129 34.309V11.3713C135.129 11.2875 135.145 11.2045 135.177 11.127C135.209 11.0496 135.256 10.9791 135.315 10.9197C135.374 10.8604 135.444 10.8132 135.521 10.781C135.599 10.7488 135.682 10.7322 135.765 10.7321H138.664C138.747 10.7259 138.83 10.7373 138.908 10.7654C138.986 10.7935 139.058 10.8378 139.118 10.8953C139.178 10.9528 139.225 11.0223 139.257 11.0992C139.288 11.1762 139.303 11.2589 139.3 11.342V25.0966C139.634 25.1349 139.972 25.0792 140.276 24.9358C140.58 24.7924 140.837 24.5669 141.02 24.2849L144.726 19.6858C144.921 19.3809 145.191 19.1309 145.51 18.9597C145.829 18.7885 146.186 18.7018 146.548 18.7078H149.211C149.292 18.7022 149.374 18.7142 149.45 18.7429C149.526 18.7717 149.595 18.8165 149.653 18.8744C149.71 18.9322 149.755 19.0018 149.783 19.0783C149.811 19.1548 149.822 19.2364 149.816 19.3177C149.818 19.4489 149.775 19.5767 149.696 19.681C149.616 19.7852 149.504 19.8598 149.377 19.8929C149.034 20.0749 148.743 20.3422 148.533 20.6691L144.559 25.438C144.299 25.7987 143.934 26.0708 143.514 26.2177C143.92 26.406 144.27 26.6979 144.527 27.0641L148.706 32.9825C148.896 33.3264 149.192 33.5998 149.549 33.7622C149.674 33.7934 149.784 33.8643 149.865 33.9641C149.945 34.0639 149.99 34.1872 149.994 34.3152C150.005 34.3999 149.997 34.4861 149.97 34.5672C149.943 34.6483 149.898 34.7224 149.839 34.7838C149.78 34.8453 149.707 34.8925 149.627 34.922C149.547 34.9516 149.461 34.9627 149.376 34.9545V34.95Z" fill="#051441"/>
</svg>
