<svg width="150" height="44" viewBox="0 0 150 44" fill="none" xmlns="http://www.w3.org/2000/svg">
<path d="M37.6132 3.60847C39.0187 3.60847 40.2588 4.84855 40.2588 6.25397C40.2588 7.74206 39.0187 8.89947 37.6132 8.89947H7.18997C6.44592 8.89947 5.86722 9.56085 5.86722 10.2222C5.86722 10.9663 6.44592 11.545 7.18997 11.545H37.6132C40.5068 11.545 42.9043 13.9425 42.9043 16.836V35.3545C42.9043 38.3307 40.5068 40.6455 37.6132 40.6455H5.86722C2.89103 40.6455 0.576214 38.3307 0.576214 35.3545V8.89947C0.576214 6.00595 2.89103 3.60847 5.86722 3.60847H37.6132ZM34.9677 28.7407C36.3732 28.7407 37.6132 27.5833 37.6132 26.0952C37.6132 24.6898 36.3732 23.4497 34.9677 23.4497C33.4797 23.4497 32.3222 24.6898 32.3222 26.0952C32.3222 27.5833 33.4797 28.7407 34.9677 28.7407Z" fill="#FFD100"/>
<path d="M66.6253 21.6905C66.6253 23.2937 67.0142 24.5476 67.7919 25.4524C68.5856 26.3571 69.6888 26.8095 71.1015 26.8095C71.7999 26.8095 72.538 26.6984 73.3158 26.4762C74.0935 26.2381 74.8237 25.9048 75.5062 25.4762L75.7443 29.2857C75.0777 29.6349 74.3475 29.9048 73.5539 30.0952C72.7761 30.2857 72.0062 30.381 71.2443 30.381C69.4824 30.381 67.9665 30.0397 66.6967 29.3571C65.4427 28.6587 64.4824 27.6587 63.8158 26.3571C63.1491 25.0556 62.8158 23.5 62.8158 21.6905C62.8158 19.881 63.1491 18.3254 63.8158 17.0238C64.4824 15.7222 65.4427 14.7302 66.6967 14.0476C67.9665 13.3492 69.4824 13 71.2443 13C72.0062 13 72.7761 13.0952 73.5539 13.2857C74.3475 13.4762 75.0777 13.7381 75.7443 14.0714L75.5062 17.881C74.8237 17.4683 74.0935 17.1508 73.3158 16.9286C72.538 16.6905 71.7999 16.5714 71.1015 16.5714C69.6888 16.5714 68.5856 17.0238 67.7919 17.9286C67.0142 18.8175 66.6253 20.0714 66.6253 21.6905ZM79.7134 18.119L80.8801 23.0952H80.9515C80.9674 21.6508 81.1896 20.4048 81.6182 19.3571C82.0468 18.2937 82.7611 17.7619 83.7611 17.7619C84.2055 17.7619 84.6658 17.8651 85.142 18.0714L84.9992 22C84.3325 21.7143 83.7531 21.5714 83.2611 21.5714C82.4833 21.5714 81.9039 21.9127 81.523 22.5952C81.142 23.2619 80.9515 24.2222 80.9515 25.4762V30H77.5944V18.119H79.7134ZM89.6281 34.8333C89.3424 34.8333 88.9931 34.7857 88.5805 34.6905C88.1678 34.5952 87.8503 34.4841 87.6281 34.3571L87.7471 31.2857C87.9535 31.3651 88.2471 31.4286 88.6281 31.4762C89.009 31.5397 89.3741 31.5714 89.7233 31.5714C90.2154 31.5714 90.6201 31.4683 90.9376 31.2619C91.2709 31.0714 91.5249 30.7302 91.6995 30.2381L91.7709 30H88.7233L85.7471 18.119H89.1995L91.7709 29.7381H91.8185L94.39 18.119H97.8424L94.8424 30L94.6043 30.8095C94.2074 32.254 93.5963 33.2857 92.7709 33.9048C91.9614 34.5238 90.9138 34.8333 89.6281 34.8333ZM98.9625 18.119H101.105L102.177 22.5238H102.296C102.375 21 102.732 19.8254 103.367 19C104.018 18.1746 104.931 17.7619 106.105 17.7619C107.502 17.7619 108.59 18.3175 109.367 19.4286C110.161 20.5238 110.558 22.0714 110.558 24.0714C110.558 26.0556 110.185 27.6032 109.439 28.7143C108.693 29.8254 107.653 30.381 106.32 30.381C105.161 30.381 104.224 29.9365 103.51 29.0476C102.812 28.1429 102.407 26.8889 102.296 25.2857H102.129L102.32 29.1905V34.7619H98.9625V18.119ZM102.415 24.0952C102.415 25.0317 102.645 25.7698 103.105 26.3095C103.566 26.8333 104.193 27.0952 104.986 27.0952C105.685 27.0952 106.224 26.8333 106.605 26.3095C107.002 25.7698 107.201 25.0238 107.201 24.0714C107.201 23.1032 107.002 22.3571 106.605 21.8333C106.209 21.2937 105.661 21.0238 104.963 21.0238C104.169 21.0238 103.542 21.3016 103.082 21.8571C102.637 22.3968 102.415 23.1429 102.415 24.0952ZM119.668 30.119C119.191 30.2937 118.469 30.381 117.501 30.381C116.088 30.3651 114.938 29.9762 114.049 29.2143C113.176 28.4365 112.739 27.1429 112.739 25.3333V21.2143H111.12V18.119H113.144L112.739 14.619H116.525L115.215 18.119H119.572V21.2143H116.072V25.119C116.072 25.8968 116.255 26.4365 116.62 26.7381C116.985 27.0238 117.477 27.1667 118.096 27.1667C118.699 27.1667 119.176 27.1032 119.525 26.9762L119.668 30.119ZM124.742 30H121.409V21.2143H120.314V18.119H124.742V30ZM122.742 16.5476C122.155 16.5476 121.695 16.381 121.362 16.0476C121.044 15.7143 120.885 15.254 120.885 14.6667C120.885 14.0794 121.044 13.619 121.362 13.2857C121.695 12.9524 122.155 12.7857 122.742 12.7857C123.298 12.7857 123.735 12.9524 124.052 13.2857C124.385 13.619 124.552 14.0794 124.552 14.6667C124.552 15.254 124.385 15.7143 124.052 16.0476C123.735 16.381 123.298 16.5476 122.742 16.5476ZM135.88 21.7619C135.451 21.5397 134.959 21.3571 134.404 21.2143C133.864 21.0556 133.332 20.9762 132.808 20.9762C131.935 20.9762 131.237 21.2222 130.713 21.7143C130.205 22.2063 129.951 22.9921 129.951 24.0714C129.951 25.1508 130.205 25.9365 130.713 26.4286C131.237 26.9048 131.935 27.1429 132.808 27.1429C133.332 27.1429 133.864 27.0714 134.404 26.9286C134.959 26.7857 135.451 26.5952 135.88 26.3571L136.046 29.619C135.158 30.127 134.015 30.381 132.618 30.381C131.538 30.381 130.546 30.1746 129.642 29.7619C128.737 29.3492 127.999 28.6746 127.427 27.7381C126.872 26.7857 126.594 25.5635 126.594 24.0714C126.594 22.5794 126.872 21.3651 127.427 20.4286C127.999 19.4762 128.737 18.7936 129.642 18.381C130.546 17.9683 131.538 17.7619 132.618 17.7619C133.269 17.7619 133.888 17.8254 134.475 17.9524C135.078 18.0794 135.602 18.2619 136.046 18.5L135.88 21.7619ZM142.937 30.381C141.096 30.381 139.659 29.8254 138.628 28.7143C137.612 27.6032 137.104 26.0556 137.104 24.0714C137.104 22.0714 137.612 20.5238 138.628 19.4286C139.659 18.3175 141.096 17.7619 142.937 17.7619C144.762 17.7619 146.183 18.3175 147.199 19.4286C148.215 20.5397 148.723 22.0952 148.723 24.0952C148.723 26.0794 148.215 27.627 147.199 28.7381C146.183 29.8333 144.762 30.381 142.937 30.381ZM140.485 24.0714C140.485 25.1349 140.699 25.9444 141.128 26.5C141.556 27.0556 142.159 27.3333 142.937 27.3333C143.699 27.3333 144.286 27.0556 144.699 26.5C145.128 25.9444 145.342 25.1349 145.342 24.0714C145.342 23.0079 145.128 22.1984 144.699 21.6429C144.286 21.0873 143.699 20.8095 142.937 20.8095C142.159 20.8095 141.556 21.0873 141.128 21.6429C140.699 22.1984 140.485 23.0079 140.485 24.0714Z" fill="#202020"/>
</svg>
