<svg width="150" height="32" viewBox="0 0 150 32" fill="none" xmlns="http://www.w3.org/2000/svg">
<g clip-path="url(#clip0_406_52241)">
<path d="M26.5588 10.7086L39.9238 2.60543V1.70508L25.7988 10.267L26.5588 10.7086Z" fill="#11173D"/>
<path d="M28.5847 11.8864L39.923 5.01559V4.11523L27.8281 11.4447L28.5847 11.8864Z" fill="#11173D"/>
<path d="M30.6159 13.0612L39.9242 7.42623V6.5293L29.8594 12.623L30.6159 13.0612Z" fill="#11173D"/>
<path d="M32.6448 14.2389L39.9229 9.83639V8.93945L31.8848 13.8007L32.6448 14.2389Z" fill="#11173D"/>
<path d="M33.916 14.9784L34.676 15.4166L39.9241 12.2465V11.3496L33.916 14.9784Z" fill="#11173D"/>
<path d="M22.9602 21.291L9.5918 29.3942V30.2946L23.7168 21.7326L22.9602 21.291Z" fill="#11173D"/>
<path d="M20.9301 20.1133L9.5918 26.9841V27.881L21.6867 20.5549L20.9301 20.1133Z" fill="#11173D"/>
<path d="M18.9035 18.9355L9.5918 24.5739V25.4708L19.66 19.3772L18.9035 18.9355Z" fill="#11173D"/>
<path d="M16.8734 17.7578L9.5918 22.1637V23.0607L17.63 18.1994L16.8734 17.7578Z" fill="#11173D"/>
<path d="M15.5999 17.0222L14.8433 16.584L9.5918 19.7541V20.651L15.5999 17.0222Z" fill="#11173D"/>
<path d="M8.33257 1.76758L49.5196 25.6561L41.1836 30.2572L0 6.36864L8.33257 1.76758Z" fill="#11173D"/>
<path d="M0 7.97754V26.3955L8.21618 31.1369V12.719L0 7.97754Z" fill="#11173D"/>
<path d="M49.5189 24.0226V5.6047L41.3027 0.863281V19.2812L49.5189 24.0226Z" fill="#11173D"/>
<path d="M62.2401 5.65625C62.2401 5.65625 62.5824 6.09102 62.6749 6.21084L70.0626 15.5533C70.0318 15.2555 70.0112 14.9645 69.9975 14.6838C69.9838 14.4031 69.977 14.1395 69.977 13.8895V5.65625H73.1573V21.2019H70.4939L62.6851 11.3357C62.7057 11.6096 62.7228 11.8732 62.7365 12.1333C62.7502 12.3935 62.7604 12.6366 62.7604 12.8625V21.2019H59.5664V5.65625H62.2298H62.2401Z" fill="#11173D"/>
<path d="M92.8802 5.65625V8.43263H86.4955V12.0614H91.3841V14.7317H86.4955V18.4256H92.8802V21.2019H82.8633V5.65625H92.8802Z" fill="#11173D"/>
<path d="M105.403 18.3229H111.172V21.2054H101.795V5.65625H105.403V18.3229Z" fill="#11173D"/>
<path d="M128.377 5.65625V8.51822H123.985V21.0171C123.985 21.0661 123.965 21.1131 123.931 21.1478C123.896 21.1825 123.849 21.2019 123.8 21.2019H120.377V8.50795H115.998V5.65625H128.377Z" fill="#11173D"/>
<path d="M140.394 8.85029C140.281 9.28506 136.529 20.4248 136.529 20.4248C136.45 20.6234 136.279 21.1985 136.282 21.2019H132.537L138.559 5.65625H142.253L148.275 21.2122H144.546C144.546 21.2122 140.514 9.27821 140.394 8.85029Z" fill="#11173D"/>
<path d="M148.446 7.02574C148.429 6.98808 148.343 6.85457 148.34 6.84772C148.447 6.81503 148.541 6.74763 148.607 6.65601C148.675 6.55551 148.709 6.43521 148.702 6.31367C148.707 6.23671 148.693 6.1598 148.661 6.08948C148.63 6.01915 148.582 5.95749 148.521 5.90971C148.348 5.80314 148.145 5.75402 147.942 5.76935H147.258V7.65907H147.713V6.97439H147.83C147.855 6.96827 147.882 6.96827 147.908 6.97439C147.926 6.98691 147.942 7.00327 147.953 7.02231L148.295 7.64537H148.819L148.446 7.02574ZM148.233 6.48826C148.224 6.52258 148.205 6.55349 148.179 6.57727C148.149 6.60376 148.112 6.62152 148.073 6.62862C148.014 6.64365 147.955 6.65056 147.895 6.64916H147.71V6.10827H147.932C147.986 6.1021 148.04 6.1021 148.093 6.10827C148.128 6.11645 148.161 6.13287 148.189 6.15619C148.21 6.17949 148.226 6.20772 148.233 6.23835C148.239 6.27695 148.239 6.31616 148.233 6.35475C148.24 6.39898 148.24 6.44403 148.233 6.48826Z" fill="#11173D"/>
<path d="M147.925 5.08427C148.07 5.08417 148.216 5.10374 148.356 5.14247C148.493 5.17876 148.625 5.23407 148.746 5.30679C149.113 5.52085 149.381 5.86985 149.493 6.27904C149.533 6.41929 149.552 6.56456 149.551 6.71039C149.553 6.85624 149.533 7.00157 149.493 7.14174C149.456 7.27886 149.401 7.41022 149.328 7.532C149.26 7.65186 149.174 7.76136 149.075 7.85723C148.972 7.9568 148.857 8.04306 148.733 8.11398C148.609 8.18389 148.478 8.23904 148.342 8.27831C148.06 8.35598 147.762 8.35598 147.48 8.27831C147.345 8.23903 147.215 8.18387 147.093 8.11398C146.968 8.04306 146.853 7.9568 146.751 7.85723C146.651 7.76055 146.565 7.6512 146.494 7.532C146.424 7.40971 146.369 7.27993 146.329 7.14516C146.252 6.86167 146.252 6.56253 146.329 6.27904C146.369 6.14317 146.424 6.01225 146.494 5.88877C146.565 5.76436 146.651 5.64935 146.751 5.54643C146.853 5.44674 146.968 5.3615 147.093 5.2931C147.213 5.22039 147.344 5.16507 147.48 5.12877C147.62 5.09005 147.765 5.07047 147.911 5.07057M147.911 4.62211C147.724 4.62095 147.537 4.6463 147.356 4.69742C147.012 4.79307 146.698 4.97716 146.446 5.23148C146.321 5.3567 146.211 5.49699 146.121 5.64913C146.032 5.80574 145.961 5.97237 145.912 6.14552C145.863 6.32525 145.839 6.5106 145.84 6.69669C145.839 6.8842 145.864 7.07094 145.915 7.25128C145.961 7.42461 146.032 7.59057 146.124 7.74426C146.213 7.89649 146.321 8.03682 146.446 8.16191C146.698 8.41622 147.012 8.60032 147.356 8.69596C147.537 8.7454 147.724 8.77072 147.911 8.77128C148.097 8.77074 148.283 8.74542 148.462 8.69596C148.636 8.6469 148.802 8.57677 148.959 8.48714C149.112 8.39744 149.254 8.28812 149.38 8.16191C149.503 8.03592 149.611 7.89572 149.702 7.74426C149.793 7.58985 149.863 7.42409 149.91 7.25128C149.961 7.07085 149.987 6.88417 149.986 6.69669C149.987 6.51034 149.961 6.32479 149.91 6.14552C149.862 5.97185 149.792 5.80504 149.702 5.64913C149.612 5.49623 149.503 5.3558 149.376 5.23148C149.254 5.09836 149.113 4.98312 148.959 4.88913C148.803 4.79804 148.636 4.72783 148.462 4.68031C148.286 4.63854 148.105 4.62126 147.925 4.62896L147.911 4.62211Z" fill="#11173D"/>
<path d="M61.7957 27.927C61.8158 27.927 61.834 27.9352 61.8503 27.9515L61.9934 28.1078C61.883 28.2358 61.7487 28.3356 61.5905 28.4072C61.4336 28.4787 61.244 28.5145 61.0219 28.5145C60.8273 28.5145 60.6509 28.4812 60.4928 28.4147C60.3346 28.3469 60.1997 28.2528 60.088 28.1323C59.9762 28.0105 59.8896 27.8649 59.8281 27.6955C59.7666 27.526 59.7359 27.3396 59.7359 27.1362C59.7359 26.9329 59.7685 26.7465 59.8338 26.577C59.9003 26.4076 59.9932 26.262 60.1124 26.1402C60.2317 26.0184 60.3742 25.9243 60.5399 25.8578C60.7068 25.79 60.8907 25.7561 61.0915 25.7561C61.2899 25.7561 61.4606 25.7868 61.6037 25.8484C61.748 25.9099 61.8761 25.9933 61.9878 26.0988L61.8692 26.2663C61.8604 26.2789 61.8503 26.2896 61.839 26.2984C61.8277 26.3059 61.8114 26.3097 61.7901 26.3097C61.7738 26.3097 61.7562 26.304 61.7374 26.2927C61.7198 26.2802 61.6984 26.2651 61.6733 26.2475C61.6482 26.2299 61.6187 26.2111 61.5848 26.191C61.551 26.171 61.5108 26.1521 61.4643 26.1345C61.4179 26.117 61.3639 26.1025 61.3024 26.0912C61.2409 26.0787 61.17 26.0724 61.0897 26.0724C60.9453 26.0724 60.8129 26.0975 60.6924 26.1477C60.5731 26.1967 60.4702 26.267 60.3836 26.3586C60.297 26.4502 60.2292 26.562 60.1802 26.6938C60.1325 26.8256 60.1087 26.9731 60.1087 27.1362C60.1087 27.3044 60.1325 27.4544 60.1802 27.5862C60.2292 27.718 60.2951 27.8298 60.3779 27.9214C60.462 28.0118 60.5612 28.0808 60.6754 28.1285C60.7896 28.1762 60.9127 28.2001 61.0445 28.2001C61.1248 28.2001 61.197 28.1957 61.261 28.1869C61.325 28.1768 61.384 28.1618 61.438 28.1417C61.4932 28.1216 61.5441 28.0965 61.5905 28.0664C61.6382 28.035 61.6859 27.998 61.7336 27.9553C61.7549 27.9365 61.7756 27.927 61.7957 27.927ZM66.8421 27.1362C66.8421 27.3383 66.8101 27.5241 66.7461 27.6936C66.6821 27.8618 66.5917 28.0068 66.4749 28.1285C66.3582 28.2503 66.2176 28.345 66.0532 28.4128C65.89 28.4794 65.7092 28.5126 65.5109 28.5126C65.3126 28.5126 65.1318 28.4794 64.9686 28.4128C64.8055 28.345 64.6655 28.2503 64.5488 28.1285C64.432 28.0068 64.3416 27.8618 64.2776 27.6936C64.2136 27.5241 64.1816 27.3383 64.1816 27.1362C64.1816 26.9341 64.2136 26.749 64.2776 26.5808C64.3416 26.4113 64.432 26.2657 64.5488 26.144C64.6655 26.0209 64.8055 25.9255 64.9686 25.8578C65.1318 25.79 65.3126 25.7561 65.5109 25.7561C65.7092 25.7561 65.89 25.79 66.0532 25.8578C66.2176 25.9255 66.3582 26.0209 66.4749 26.144C66.5917 26.2657 66.6821 26.4113 66.7461 26.5808C66.8101 26.749 66.8421 26.9341 66.8421 27.1362ZM66.4674 27.1362C66.4674 26.9705 66.4448 26.8218 66.3996 26.69C66.3544 26.5582 66.2904 26.4471 66.2076 26.3567C66.1247 26.2651 66.0243 26.1948 65.9063 26.1458C65.7883 26.0969 65.6565 26.0724 65.5109 26.0724C65.3666 26.0724 65.2354 26.0969 65.1174 26.1458C64.9994 26.1948 64.8983 26.2651 64.8142 26.3567C64.7314 26.4471 64.6674 26.5582 64.6222 26.69C64.577 26.8218 64.5544 26.9705 64.5544 27.1362C64.5544 27.3019 64.577 27.4507 64.6222 27.5825C64.6674 27.713 64.7314 27.8241 64.8142 27.9157C64.8983 28.0061 64.9994 28.0758 65.1174 28.1247C65.2354 28.1724 65.3666 28.1963 65.5109 28.1963C65.6565 28.1963 65.7883 28.1724 65.9063 28.1247C66.0243 28.0758 66.1247 28.0061 66.2076 27.9157C66.2904 27.8241 66.3544 27.713 66.3996 27.5825C66.4448 27.4507 66.4674 27.3019 66.4674 27.1362ZM69.3928 25.7862C69.4255 25.7862 69.4493 25.7906 69.4644 25.7994C69.4807 25.8069 69.4989 25.8232 69.519 25.8484L71.0818 27.8819C71.078 27.8492 71.0755 27.8178 71.0742 27.7877C71.073 27.7563 71.0724 27.7262 71.0724 27.6973V25.7862H71.3924V28.4844H71.2079C71.179 28.4844 71.1546 28.4794 71.1345 28.4693C71.1157 28.4593 71.0968 28.4423 71.078 28.4185L69.5171 26.3869C69.5196 26.4182 69.5215 26.449 69.5227 26.4791C69.524 26.5092 69.5246 26.5369 69.5246 26.562V28.4844H69.2045V25.7862H69.3928ZM75.5775 25.7862V26.0837H74.2821V27.027H75.3893V27.3245H74.2821V28.4844H73.915V25.7862H75.5775ZM78.345 28.4844H77.9797V25.7862H78.345V28.4844ZM83.2693 27.1362C83.2693 27.3383 83.2372 27.5222 83.1732 27.6879C83.1092 27.8536 83.0188 27.9955 82.9021 28.1134C82.7854 28.2314 82.6454 28.3231 82.4822 28.3883C82.319 28.4524 82.1383 28.4844 81.9399 28.4844H80.9307V25.7862H81.9399C82.1383 25.7862 82.319 25.8189 82.4822 25.8841C82.6454 25.9481 82.7854 26.0398 82.9021 26.159C83.0188 26.277 83.1092 26.4189 83.1732 26.5846C83.2372 26.7502 83.2693 26.9341 83.2693 27.1362ZM82.8946 27.1362C82.8946 26.9705 82.872 26.8224 82.8268 26.6919C82.7816 26.5613 82.7176 26.4509 82.6347 26.3605C82.5519 26.2701 82.4515 26.2011 82.3335 26.1534C82.2155 26.1057 82.0843 26.0818 81.9399 26.0818H81.2979V28.1888H81.9399C82.0843 28.1888 82.2155 28.1649 82.3335 28.1172C82.4515 28.0695 82.5519 28.0011 82.6347 27.912C82.7176 27.8216 82.7816 27.7111 82.8268 27.5806C82.872 27.45 82.8946 27.3019 82.8946 27.1362ZM87.2927 25.7862V26.0837H85.9973V26.98H87.046V27.2662H85.9973V28.1869H87.2927V28.4844H85.6301V25.7862H87.2927ZM89.8706 25.7862C89.9032 25.7862 89.927 25.7906 89.9421 25.7994C89.9584 25.8069 89.9766 25.8232 89.9967 25.8484L91.5595 27.8819C91.5557 27.8492 91.5532 27.8178 91.552 27.7877C91.5507 27.7563 91.5501 27.7262 91.5501 27.6973V25.7862H91.8702V28.4844H91.6856C91.6568 28.4844 91.6323 28.4794 91.6122 28.4693C91.5934 28.4593 91.5746 28.4423 91.5557 28.4185L89.9948 26.3869C89.9973 26.4182 89.9992 26.449 90.0005 26.4791C90.0017 26.5092 90.0024 26.5369 90.0024 26.562V28.4844H89.6823V25.7862H89.8706ZM96.2944 27.927C96.3145 27.927 96.3327 27.9352 96.349 27.9515L96.4921 28.1078C96.3816 28.2358 96.2473 28.3356 96.0892 28.4072C95.9323 28.4787 95.7427 28.5145 95.5205 28.5145C95.326 28.5145 95.1496 28.4812 94.9914 28.4147C94.8333 28.3469 94.6983 28.2528 94.5866 28.1323C94.4749 28.0105 94.3883 27.8649 94.3268 27.6955C94.2653 27.526 94.2345 27.3396 94.2345 27.1362C94.2345 26.9329 94.2672 26.7465 94.3324 26.577C94.399 26.4076 94.4919 26.262 94.6111 26.1402C94.7303 26.0184 94.8728 25.9243 95.0385 25.8578C95.2055 25.79 95.3894 25.7561 95.5902 25.7561C95.7885 25.7561 95.9592 25.7868 96.1023 25.8484C96.2467 25.9099 96.3747 25.9933 96.4864 26.0988L96.3678 26.2663C96.359 26.2789 96.349 26.2896 96.3377 26.2984C96.3264 26.3059 96.3101 26.3097 96.2887 26.3097C96.2724 26.3097 96.2548 26.304 96.236 26.2927C96.2184 26.2802 96.1971 26.2651 96.172 26.2475C96.1469 26.2299 96.1174 26.2111 96.0835 26.191C96.0496 26.171 96.0094 26.1521 95.963 26.1345C95.9166 26.117 95.8626 26.1025 95.8011 26.0912C95.7396 26.0787 95.6686 26.0724 95.5883 26.0724C95.444 26.0724 95.3115 26.0975 95.191 26.1477C95.0718 26.1967 94.9688 26.267 94.8822 26.3586C94.7956 26.4502 94.7278 26.562 94.6789 26.6938C94.6312 26.8256 94.6073 26.9731 94.6073 27.1362C94.6073 27.3044 94.6312 27.4544 94.6789 27.5862C94.7278 27.718 94.7937 27.8298 94.8766 27.9214C94.9607 28.0118 95.0599 28.0808 95.1741 28.1285C95.2883 28.1762 95.4113 28.2001 95.5431 28.2001C95.6235 28.2001 95.6956 28.1957 95.7597 28.1869C95.8237 28.1768 95.8827 28.1618 95.9366 28.1417C95.9919 28.1216 96.0427 28.0965 96.0892 28.0664C96.1369 28.035 96.1846 27.998 96.2323 27.9553C96.2536 27.9365 96.2743 27.927 96.2944 27.927ZM100.497 25.7862V26.0837H99.2018V26.98H100.251V27.2662H99.2018V28.1869H100.497V28.4844H98.8347V25.7862H100.497ZM107.142 25.7862V26.0837H105.846V27.027H106.953V27.3245H105.846V28.4844H105.479V25.7862H107.142ZM111.982 27.1362C111.982 27.3383 111.95 27.5241 111.886 27.6936C111.822 27.8618 111.732 28.0068 111.615 28.1285C111.498 28.2503 111.358 28.345 111.193 28.4128C111.03 28.4794 110.849 28.5126 110.651 28.5126C110.453 28.5126 110.272 28.4794 110.109 28.4128C109.945 28.345 109.805 28.2503 109.689 28.1285C109.572 28.0068 109.482 27.8618 109.418 27.6936C109.354 27.5241 109.322 27.3383 109.322 27.1362C109.322 26.9341 109.354 26.749 109.418 26.5808C109.482 26.4113 109.572 26.2657 109.689 26.144C109.805 26.0209 109.945 25.9255 110.109 25.8578C110.272 25.79 110.453 25.7561 110.651 25.7561C110.849 25.7561 111.03 25.79 111.193 25.8578C111.358 25.9255 111.498 26.0209 111.615 26.144C111.732 26.2657 111.822 26.4113 111.886 26.5808C111.95 26.749 111.982 26.9341 111.982 27.1362ZM111.607 27.1362C111.607 26.9705 111.585 26.8218 111.54 26.69C111.494 26.5582 111.43 26.4471 111.348 26.3567C111.265 26.2651 111.164 26.1948 111.046 26.1458C110.928 26.0969 110.796 26.0724 110.651 26.0724C110.507 26.0724 110.375 26.0969 110.257 26.1458C110.139 26.1948 110.038 26.2651 109.954 26.3567C109.871 26.4471 109.807 26.5582 109.762 26.69C109.717 26.8218 109.694 26.9705 109.694 27.1362C109.694 27.3019 109.717 27.4507 109.762 27.5825C109.807 27.713 109.871 27.8241 109.954 27.9157C110.038 28.0061 110.139 28.0758 110.257 28.1247C110.375 28.1724 110.507 28.1963 110.651 28.1963C110.796 28.1963 110.928 28.1724 111.046 28.1247C111.164 28.0758 111.265 28.0061 111.348 27.9157C111.43 27.8241 111.494 27.713 111.54 27.5825C111.585 27.4507 111.607 27.3019 111.607 27.1362ZM114.746 27.3584V28.4844H114.382V25.7862H115.145C115.315 25.7862 115.463 25.8038 115.587 25.8389C115.711 25.8728 115.814 25.9224 115.894 25.9877C115.976 26.053 116.036 26.132 116.075 26.2249C116.114 26.3166 116.133 26.4195 116.133 26.5337C116.133 26.6291 116.118 26.7182 116.088 26.8011C116.058 26.8839 116.014 26.9586 115.956 27.0251C115.9 27.0904 115.83 27.1463 115.747 27.1927C115.666 27.2392 115.573 27.2743 115.469 27.2982C115.514 27.3245 115.554 27.3628 115.589 27.413L116.376 28.4844H116.052C115.986 28.4844 115.937 28.4586 115.905 28.4072L115.205 27.4431C115.184 27.413 115.16 27.3917 115.135 27.3791C115.11 27.3653 115.073 27.3584 115.022 27.3584H114.746ZM114.746 27.0929H115.128C115.235 27.0929 115.328 27.0804 115.408 27.0553C115.49 27.0289 115.558 26.9925 115.612 26.9461C115.667 26.8984 115.708 26.8419 115.736 26.7766C115.764 26.7113 115.777 26.6392 115.777 26.5601C115.777 26.3994 115.724 26.2783 115.617 26.1967C115.512 26.1151 115.354 26.0743 115.145 26.0743H114.746V27.0929ZM122.264 27.4111V28.4844H121.9V27.4111L120.912 25.7862H121.232C121.264 25.7862 121.29 25.7944 121.309 25.8107C121.328 25.827 121.344 25.8471 121.358 25.8709L121.975 26.9197C122.001 26.9636 122.021 27.0051 122.038 27.044C122.055 27.0829 122.071 27.1212 122.085 27.1588C122.099 27.1199 122.114 27.081 122.13 27.0421C122.146 27.0032 122.167 26.9624 122.192 26.9197L122.808 25.8709C122.819 25.8509 122.834 25.832 122.853 25.8145C122.873 25.7956 122.899 25.7862 122.93 25.7862H123.254L122.264 27.4111ZM127.812 27.1362C127.812 27.3383 127.78 27.5241 127.716 27.6936C127.652 27.8618 127.561 28.0068 127.445 28.1285C127.328 28.2503 127.187 28.345 127.023 28.4128C126.86 28.4794 126.679 28.5126 126.481 28.5126C126.282 28.5126 126.102 28.4794 125.938 28.4128C125.775 28.345 125.635 28.2503 125.519 28.1285C125.402 28.0068 125.311 27.8618 125.247 27.6936C125.183 27.5241 125.151 27.3383 125.151 27.1362C125.151 26.9341 125.183 26.749 125.247 26.5808C125.311 26.4113 125.402 26.2657 125.519 26.144C125.635 26.0209 125.775 25.9255 125.938 25.8578C126.102 25.79 126.282 25.7561 126.481 25.7561C126.679 25.7561 126.86 25.79 127.023 25.8578C127.187 25.9255 127.328 26.0209 127.445 26.144C127.561 26.2657 127.652 26.4113 127.716 26.5808C127.78 26.749 127.812 26.9341 127.812 27.1362ZM127.437 27.1362C127.437 26.9705 127.415 26.8218 127.369 26.69C127.324 26.5582 127.26 26.4471 127.177 26.3567C127.095 26.2651 126.994 26.1948 126.876 26.1458C126.758 26.0969 126.626 26.0724 126.481 26.0724C126.336 26.0724 126.205 26.0969 126.087 26.1458C125.969 26.1948 125.868 26.2651 125.784 26.3567C125.701 26.4471 125.637 26.5582 125.592 26.69C125.547 26.8218 125.524 26.9705 125.524 27.1362C125.524 27.3019 125.547 27.4507 125.592 27.5825C125.637 27.713 125.701 27.8241 125.784 27.9157C125.868 28.0061 125.969 28.0758 126.087 28.1247C126.205 28.1724 126.336 28.1963 126.481 28.1963C126.626 28.1963 126.758 28.1724 126.876 28.1247C126.994 28.0758 127.095 28.0061 127.177 27.9157C127.26 27.8241 127.324 27.713 127.369 27.5825C127.415 27.4507 127.437 27.3019 127.437 27.1362ZM131.223 28.1944C131.335 28.1944 131.435 28.1756 131.522 28.1379C131.61 28.1003 131.684 28.0475 131.745 27.9798C131.806 27.912 131.853 27.831 131.884 27.7369C131.917 27.6427 131.933 27.5392 131.933 27.4262V25.7862H132.296V27.4262C132.296 27.5819 132.271 27.7262 132.221 27.8593C132.172 27.9923 132.101 28.1078 132.008 28.2057C131.917 28.3024 131.804 28.3783 131.671 28.4335C131.538 28.4888 131.389 28.5164 131.223 28.5164C131.057 28.5164 130.908 28.4888 130.775 28.4335C130.642 28.3783 130.529 28.3024 130.436 28.2057C130.343 28.1078 130.272 27.9923 130.221 27.8593C130.172 27.7262 130.148 27.5819 130.148 27.4262V25.7862H130.511V27.4243C130.511 27.5373 130.527 27.6408 130.558 27.735C130.591 27.8291 130.638 27.9101 130.698 27.9779C130.759 28.0457 130.834 28.099 130.922 28.1379C131.011 28.1756 131.111 28.1944 131.223 28.1944ZM135.19 27.3584V28.4844H134.827V25.7862H135.589C135.76 25.7862 135.908 25.8038 136.032 25.8389C136.156 25.8728 136.258 25.9224 136.339 25.9877C136.42 26.053 136.481 26.132 136.52 26.2249C136.558 26.3166 136.578 26.4195 136.578 26.5337C136.578 26.6291 136.563 26.7182 136.533 26.8011C136.503 26.8839 136.459 26.9586 136.401 27.0251C136.344 27.0904 136.275 27.1463 136.192 27.1927C136.11 27.2392 136.017 27.2743 135.913 27.2982C135.958 27.3245 135.999 27.3628 136.034 27.413L136.821 28.4844H136.497C136.43 28.4844 136.381 28.4586 136.35 28.4072L135.65 27.4431C135.628 27.413 135.605 27.3917 135.58 27.3791C135.555 27.3653 135.517 27.3584 135.467 27.3584H135.19ZM135.19 27.0929H135.572C135.679 27.0929 135.773 27.0804 135.853 27.0553C135.935 27.0289 136.002 26.9925 136.056 26.9461C136.112 26.8984 136.153 26.8419 136.181 26.7766C136.208 26.7113 136.222 26.6392 136.222 26.5601C136.222 26.3994 136.169 26.2783 136.062 26.1967C135.957 26.1151 135.799 26.0743 135.589 26.0743H135.19V27.0929ZM142.102 28.4844H141.737V25.7862H142.102V28.4844ZM146.525 25.7862V26.0931H145.654V28.4844H145.288V26.0931H144.413V25.7862H146.525ZM146.785 28.2773C146.785 28.2446 146.791 28.2139 146.802 28.185C146.815 28.1561 146.831 28.131 146.851 28.1097C146.872 28.0883 146.897 28.0714 146.926 28.0588C146.955 28.0463 146.986 28.04 147.019 28.04C147.051 28.04 147.082 28.0463 147.111 28.0588C147.14 28.0714 147.165 28.0883 147.186 28.1097C147.208 28.131 147.224 28.1561 147.235 28.185C147.248 28.2139 147.254 28.2446 147.254 28.2773C147.254 28.3112 147.248 28.3425 147.235 28.3714C147.224 28.399 147.208 28.4235 147.186 28.4448C147.165 28.4662 147.14 28.4825 147.111 28.4938C147.082 28.5063 147.051 28.5126 147.019 28.5126C146.986 28.5126 146.955 28.5063 146.926 28.4938C146.897 28.4825 146.872 28.4662 146.851 28.4448C146.831 28.4235 146.815 28.399 146.802 28.3714C146.791 28.3425 146.785 28.3112 146.785 28.2773Z" fill="#11173D"/>
</g>
<defs>
<clipPath id="clip0_406_52241">
<rect width="150" height="30.2732" fill="white" transform="translate(0 0.863281)"/>
</clipPath>
</defs>
</svg>
