<svg width="150" height="30" viewBox="0 0 150 30" fill="none" xmlns="http://www.w3.org/2000/svg">
<g clip-path="url(#clip0_406_52191)">
<path d="M57.3289 17.0883H57.201L50.9 7.9082H48.1914V22.5055H51.278V13.3168H51.386L57.7382 22.5055H60.4041V7.9082H57.3289V17.0883Z" fill="#020A26"/>
<path d="M69.6217 12.1227C68.8173 11.6509 67.8595 11.415 66.7539 11.415C65.6455 11.415 64.6905 11.6509 63.8862 12.1227C63.0819 12.5974 62.4595 13.2568 62.0218 14.1037C61.5841 14.9535 61.3652 15.9426 61.3652 17.0738C61.3652 18.1964 61.5841 19.1798 62.0218 20.0296C62.4595 20.8765 63.079 21.5388 63.8862 22.0106C64.6905 22.4824 65.6483 22.7183 66.7539 22.7183C67.8624 22.7183 68.8173 22.4824 69.6217 22.0106C70.426 21.5388 71.0484 20.8765 71.4861 20.0296C71.9238 19.1798 72.1427 18.1964 72.1427 17.0738C72.1427 15.9426 71.9238 14.9535 71.4861 14.1037C71.0484 13.2568 70.4288 12.5974 69.6217 12.1227ZM68.7946 18.7563C68.6212 19.2565 68.3654 19.6487 68.0272 19.9358C67.689 20.2229 67.2684 20.3678 66.7653 20.3678C66.2566 20.3678 65.8302 20.2229 65.4863 19.9358C65.1424 19.6487 64.8838 19.2565 64.7104 18.7563C64.5371 18.2561 64.4518 17.6905 64.4518 17.051C64.4518 16.4144 64.5371 15.8459 64.7104 15.3486C64.8838 14.8484 65.1424 14.4561 65.4863 14.1662C65.8302 13.8763 66.2566 13.7314 66.7653 13.7314C67.2684 13.7314 67.689 13.8763 68.0272 14.1662C68.3654 14.4561 68.6212 14.8512 68.7946 15.3486C68.968 15.8488 69.0532 16.4144 69.0532 17.051C69.0561 17.6905 68.968 18.2561 68.7946 18.7563Z" fill="#020A26"/>
<path d="M78.7622 11.4014C78.1483 11.4014 77.6083 11.5747 77.1365 11.9243C76.6647 12.2739 76.3322 12.7883 76.1304 13.4676H76.0167V11.5577H73.0723V22.5056H76.1077V16.3098C76.1077 15.8635 76.2072 15.4685 76.4118 15.1274C76.6136 14.7864 76.8893 14.5192 77.2389 14.3259C77.5884 14.1327 77.9863 14.036 78.4326 14.036C78.6429 14.036 78.8731 14.0531 79.1232 14.0872C79.3762 14.1213 79.5723 14.1583 79.7144 14.2009V11.5065C79.5808 11.4724 79.4273 11.4468 79.2511 11.4269C79.0777 11.4099 78.9157 11.4014 78.7622 11.4014Z" fill="#020A26"/>
<path d="M86.4161 20.1724C86.274 20.198 86.1319 20.2122 85.987 20.2122C85.7823 20.2122 85.6033 20.1809 85.4498 20.1184C85.2963 20.0559 85.1741 19.9479 85.0889 19.7944C85.0036 19.6409 84.961 19.4221 84.961 19.1407V13.8373H87.0215V11.5579H84.961V8.93457H81.9255V11.5579H80.4277V13.8401H81.9255V19.5443C81.9199 20.2605 82.0705 20.8545 82.3746 21.3263C82.6787 21.7981 83.105 22.1449 83.6536 22.3666C84.2021 22.5882 84.8416 22.6877 85.5749 22.6593C85.9699 22.6451 86.3053 22.6053 86.581 22.5428C86.8567 22.4774 87.0698 22.4234 87.2233 22.3751L86.7458 20.1156C86.6691 20.1269 86.5582 20.1468 86.4161 20.1724Z" fill="#020A26"/>
<path d="M96.7089 11.9099C96.1405 11.5803 95.4754 11.4154 94.7165 11.4154C93.8838 11.4154 93.1931 11.6002 92.6418 11.9668C92.0904 12.3363 91.6897 12.8422 91.4452 13.4902H91.3173V7.9082H88.3672V22.5083H91.4026V16.176C91.4083 15.7042 91.4992 15.3035 91.6783 14.9681C91.8573 14.6327 92.1046 14.3769 92.4201 14.2007C92.7356 14.0245 93.0994 13.9364 93.5143 13.9364C94.1311 13.9364 94.6142 14.124 94.9581 14.4991C95.302 14.8743 95.4725 15.4001 95.4669 16.0737V22.5026H98.5023V15.5337C98.508 14.6782 98.3516 13.9421 98.0362 13.3282C97.7178 12.7143 97.2773 12.2396 96.7089 11.9099Z" fill="#020A26"/>
<path d="M108.146 12.0378C107.472 11.6229 106.733 11.4154 105.935 11.4154C105.321 11.4154 104.809 11.5177 104.4 11.7252C103.988 11.9327 103.655 12.1885 103.402 12.4954C103.147 12.8024 102.953 13.1036 102.823 13.3964H102.729V7.9082H99.6934V22.5083H102.686V20.7547H102.823C102.959 21.0588 103.161 21.3601 103.422 21.6557C103.684 21.9513 104.019 22.1985 104.431 22.3946C104.843 22.5879 105.344 22.6874 105.932 22.6874C106.765 22.6874 107.515 22.4714 108.189 22.0422C108.859 21.613 109.394 20.9764 109.786 20.138C110.178 19.2995 110.374 18.2678 110.374 17.0485C110.374 15.7952 110.172 14.7493 109.769 13.9165C109.36 13.0781 108.819 12.4528 108.146 12.0378ZM107.001 18.7169C106.821 19.2029 106.563 19.5837 106.219 19.8566C105.878 20.1294 105.457 20.2659 104.966 20.2659C104.477 20.2659 104.059 20.1323 103.718 19.8623C103.377 19.5951 103.115 19.2171 102.933 18.7339C102.752 18.2479 102.663 17.6823 102.663 17.0315C102.663 16.3806 102.754 15.8151 102.933 15.3347C103.115 14.8544 103.374 14.4849 103.715 14.2235C104.056 13.962 104.471 13.8312 104.966 13.8312C105.466 13.8312 105.886 13.9677 106.227 14.2377C106.569 14.5077 106.83 14.8828 107.003 15.3632C107.18 15.8435 107.268 16.4005 107.268 17.0315C107.268 17.6681 107.18 18.2309 107.001 18.7169Z" fill="#020A26"/>
<path d="M120.346 12.7972C119.877 12.3368 119.331 11.99 118.706 11.7598C118.081 11.5296 117.407 11.4131 116.685 11.4131C115.611 11.4131 114.676 11.6518 113.88 12.1265C113.084 12.6011 112.467 13.2662 112.03 14.116C111.592 14.9658 111.373 15.9548 111.373 17.0803C111.373 18.2342 111.592 19.2347 112.03 20.0788C112.467 20.9229 113.09 21.5738 113.9 22.0313C114.71 22.4889 115.679 22.7191 116.804 22.7191C117.708 22.7191 118.504 22.5799 119.195 22.3013C119.885 22.0228 120.451 21.6334 120.891 21.1332C121.332 20.633 121.622 20.0447 121.764 19.3683L118.956 19.1835C118.851 19.4592 118.7 19.6923 118.501 19.8827C118.302 20.0731 118.061 20.2152 117.782 20.309C117.501 20.4056 117.194 20.4511 116.856 20.4511C116.347 20.4511 115.906 20.3431 115.537 20.1299C115.167 19.9168 114.88 19.6127 114.678 19.2176C114.477 18.8226 114.374 18.3565 114.374 17.8136V17.8051H121.829V16.9723C121.829 16.0401 121.699 15.2272 121.437 14.5309C121.178 13.8374 120.812 13.2576 120.346 12.7972ZM114.383 15.9264C114.4 15.5342 114.499 15.1732 114.681 14.8464C114.88 14.494 115.159 14.2098 115.511 13.9994C115.864 13.7891 116.273 13.6811 116.733 13.6811C117.177 13.6811 117.563 13.7778 117.899 13.971C118.234 14.1643 118.495 14.4286 118.686 14.7668C118.876 15.105 118.97 15.4916 118.97 15.9293H114.383V15.9264Z" fill="#020A26"/>
<path d="M131.228 12.2904C130.793 11.992 130.296 11.7703 129.738 11.6282C129.181 11.4861 128.596 11.415 127.988 11.415C127.112 11.415 126.345 11.5458 125.683 11.8101C125.02 12.0744 124.478 12.4496 124.06 12.9356C123.642 13.4216 123.361 13.9986 123.219 14.6636L126.027 14.891C126.132 14.53 126.345 14.2288 126.669 13.99C126.993 13.7513 127.428 13.6291 127.973 13.6291C128.491 13.6291 128.891 13.7541 129.176 14.0014C129.457 14.2487 129.599 14.5982 129.599 15.0501V15.0928C129.599 15.3258 129.511 15.502 129.335 15.6214C129.159 15.7408 128.877 15.8289 128.488 15.8886C128.099 15.9483 127.584 16.0108 126.947 16.079C126.405 16.1302 125.89 16.2211 125.396 16.349C124.904 16.4769 124.466 16.6673 124.08 16.9203C123.696 17.1732 123.392 17.5058 123.167 17.9179C122.946 18.3328 122.832 18.8416 122.832 19.4498C122.832 20.1717 122.991 20.7742 123.307 21.2574C123.622 21.7406 124.054 22.1044 124.6 22.3488C125.146 22.5932 125.768 22.7154 126.467 22.7154C127.007 22.7154 127.487 22.6444 127.9 22.4966C128.315 22.3516 128.667 22.1498 128.963 21.8912C129.258 21.6326 129.491 21.3313 129.667 20.9902H129.753V22.5079H132.632V15.1212C132.632 14.4703 132.507 13.9104 132.254 13.4415C132.006 12.9754 131.663 12.5917 131.228 12.2904ZM129.622 18.5915C129.622 18.9752 129.525 19.3219 129.329 19.626C129.133 19.9301 128.866 20.1717 128.525 20.3507C128.184 20.5298 127.789 20.6179 127.343 20.6179C126.876 20.6179 126.493 20.5099 126.191 20.2939C125.89 20.0779 125.74 19.7624 125.74 19.3503C125.74 19.0661 125.813 18.8274 125.961 18.6341C126.109 18.4408 126.314 18.2874 126.581 18.1737C126.848 18.06 127.158 17.9776 127.513 17.9236C127.681 17.9008 127.865 17.8724 128.07 17.8411C128.275 17.8099 128.479 17.7758 128.684 17.7331C128.889 17.6933 129.073 17.6479 129.235 17.5967C129.4 17.5456 129.528 17.4915 129.625 17.429V18.5915H129.622Z" fill="#020A26"/>
<path d="M149.038 12.3879C148.399 11.7399 147.569 11.4159 146.546 11.4159C145.742 11.4159 145.048 11.6035 144.46 11.9815C143.871 12.3595 143.468 12.8626 143.243 13.4879H143.13C142.953 12.8512 142.601 12.3453 142.075 11.973C141.547 11.6007 140.907 11.4131 140.157 11.4131C139.415 11.4131 138.778 11.5978 138.247 11.9701C137.715 12.3396 137.335 12.8455 137.107 13.4879H136.979V11.5552H134.086V22.5031H137.121V15.9349C137.121 15.5314 137.201 15.1789 137.357 14.8777C137.514 14.5764 137.727 14.3405 137.994 14.1728C138.261 14.0051 138.565 13.9199 138.903 13.9199C139.404 13.9199 139.804 14.079 140.111 14.3973C140.418 14.7157 140.572 15.142 140.572 15.6791V22.5088H143.516V15.8213C143.516 15.25 143.67 14.7924 143.979 14.4428C144.289 14.0932 144.718 13.9199 145.27 13.9199C145.756 13.9199 146.159 14.0733 146.481 14.3774C146.805 14.6816 146.967 15.1391 146.967 15.7445V22.5088H149.996V15.142C149.999 13.954 149.678 13.036 149.038 12.3879Z" fill="#020A26"/>
<path d="M48.1488 0.501953H44.832L36.3226 17.5179L33.2503 14.4199L40.1993 0.521848L40.1567 0.501953H36.8399L31.0078 12.1633L28.4783 9.61388L33.0257 0.521848L32.9803 0.501953H29.6635L23.5586 12.7118L19.5312 8.65323H17.6725L15.8819 12.2059L12.3548 8.65323H10.496L0 29.4975H3.37647L11.9342 12.51L14.4523 15.0481L7.17358 29.4975H10.55L16.6919 17.3047L19.7529 20.3913L15.1657 29.4975H18.5422L24.4084 17.8504L28.069 21.5367H29.6919L31.8264 17.2706L36.064 21.5395H37.6869L48.1943 0.52469L48.1488 0.501953ZM20.6141 17.5179L18.1244 15.0083L19.3863 12.5043L21.8703 15.0054L20.6141 17.5179ZM28.3305 17.5179L25.8408 15.0083L27.1027 12.5043L29.5868 15.0054L28.3305 17.5179Z" fill="#367BF3"/>
</g>
<defs>
<clipPath id="clip0_406_52191">
<rect width="150" height="28.9956" fill="white" transform="translate(0 0.501953)"/>
</clipPath>
</defs>
</svg>
