<svg width="150" height="28" viewBox="0 0 150 28" fill="none" xmlns="http://www.w3.org/2000/svg">
<path d="M15.5529 3.95117H4.54286C2.03455 3.95117 0 5.98572 0 8.49403V19.506C0 22.0143 2.03455 24.0488 4.54286 24.0488H15.5548C18.0631 24.0488 20.0976 22.0143 20.0976 19.506V8.49403C20.0958 5.98572 18.0631 3.95117 15.5529 3.95117Z" fill="#FFDE59"/>
<path d="M13.3153 10.9983L6.97662 15.8735C6.71403 16.0755 6.36515 16.1306 6.05299 16.0167L2.87813 14.8691C2.68716 14.7993 2.67614 14.533 2.8616 14.4486L15.6124 8.66257C15.7997 8.5781 16.0054 8.73969 15.965 8.94167L13.9543 19.1714C13.9249 19.3183 13.7652 19.3972 13.6311 19.3311L9.04789 17.0836C8.75226 16.9385 8.67146 16.5566 8.88263 16.3032L13.3153 10.9983Z" fill="black"/>
<path d="M7.99459 17.2087L9.92631 18.2149C10.0806 18.2957 10.0916 18.5106 9.94651 18.606L8.01478 19.8786C7.86421 19.9777 7.66406 19.8694 7.66406 19.6894V17.4106C7.66406 17.2399 7.84401 17.1297 7.99459 17.2087Z" fill="black"/>
<path d="M32.0112 20.9774C31.0435 20.9774 30.1878 20.8231 29.4441 20.5165C28.7005 20.2098 28.1221 19.6975 27.7126 18.9814C27.3031 18.2652 27.0993 17.2828 27.0993 16.036V10.0628H24.6699V6.9081H27.0993L27.5179 3.05566H30.8672V6.9081H34.5801V10.0628H30.8672V16.093C30.8672 16.7265 31.0068 17.1635 31.2859 17.4059C31.565 17.6483 32.0388 17.7695 32.709 17.7695H34.5232V20.9774H32.0112Z" fill="#3643E6"/>
<path d="M41.9466 21.3138C40.7934 21.3138 39.8349 21.1229 39.071 20.7409C38.3072 20.359 37.7361 19.8485 37.3542 19.2058C36.9722 18.5631 36.7812 17.8525 36.7812 17.0703C36.7812 16.1962 36.9998 15.4324 37.4368 14.7823C37.8738 14.1305 38.5385 13.6237 39.4328 13.2601C40.3252 12.8965 41.4618 12.7166 42.839 12.7166H46.2728C46.2728 12.0096 46.1846 11.433 46.0084 10.985C45.8321 10.5388 45.5438 10.2027 45.1435 9.98056C44.7432 9.75653 44.218 9.64636 43.5662 9.64636C42.8592 9.64636 42.2587 9.7951 41.7648 10.0926C41.2709 10.39 40.9697 10.8656 40.8577 11.5157H37.2017C37.2954 10.4929 37.6241 9.61698 38.1933 8.89167C38.7607 8.16635 39.5136 7.59896 40.4537 7.18948C41.3939 6.77999 42.4405 6.57617 43.5937 6.57617C44.914 6.57617 46.0634 6.79469 47.0403 7.23171C48.0172 7.66874 48.7609 8.31142 49.2732 9.15792C49.7855 10.0044 50.0407 11.0327 50.0407 12.2428V20.9778H46.8861L46.4674 18.8276C46.2618 19.2003 46.0157 19.5345 45.7274 19.832C45.4391 20.1295 45.1031 20.3902 44.723 20.6142C44.341 20.8382 43.9279 21.009 43.4798 21.1302C43.0355 21.2532 42.5232 21.3138 41.9466 21.3138ZM42.8684 18.4107C43.333 18.4107 43.7571 18.3226 44.1391 18.1463C44.521 17.97 44.8515 17.724 45.1306 17.4063C45.4097 17.0905 45.6338 16.7361 45.8009 16.345C45.968 15.9538 46.08 15.526 46.1351 15.0614V15.0339H43.2595C42.6646 15.0339 42.1853 15.1037 41.8217 15.2432C41.4581 15.3828 41.1937 15.5829 41.0266 15.8437C40.8595 16.1044 40.7751 16.4019 40.7751 16.7361C40.7751 17.0905 40.8595 17.3916 41.0266 17.6432C41.1937 17.8948 41.4398 18.0857 41.7666 18.2161C42.0917 18.3446 42.4589 18.4107 42.8684 18.4107Z" fill="#3643E6"/>
<path d="M52.9746 20.9775V0.879883H56.7426V20.9775H52.9746Z" fill="#3643E6"/>
<path d="M66.6217 21.3137C65.2077 21.3137 63.9554 21.0071 62.8665 20.3919C61.7777 19.7786 60.9311 18.9266 60.327 17.8377C59.7229 16.7488 59.4199 15.4983 59.4199 14.0826C59.4199 12.6136 59.7229 11.3191 60.327 10.2026C60.9311 9.0862 61.774 8.20296 62.8537 7.5511C63.9334 6.89923 65.1894 6.57422 66.6217 6.57422C68.0172 6.57422 69.2365 6.88087 70.2776 7.49601C71.3188 8.10931 72.1285 8.93379 72.7051 9.96575C73.2817 10.9977 73.57 12.1839 73.57 13.5244C73.57 13.7098 73.5645 13.9192 73.5553 14.1524C73.5461 14.3856 73.5314 14.6225 73.5131 14.8648H62.1247V12.5493H69.7726C69.7176 11.6753 69.3962 10.9683 68.8086 10.4285C68.2229 9.88863 67.5012 9.61871 66.6455 9.61871C65.9937 9.61871 65.4042 9.77295 64.8736 10.0796C64.3429 10.3863 63.9206 10.8325 63.6029 11.4201C63.287 12.0058 63.1291 12.7458 63.1291 13.6401V14.4499C63.1291 15.2137 63.2724 15.8784 63.5625 16.4458C63.8508 17.0132 64.2547 17.4558 64.7762 17.7716C65.2977 18.0893 65.9019 18.2454 66.5904 18.2454C67.2974 18.2454 67.8703 18.1021 68.3073 17.812C68.7444 17.5237 69.0841 17.1381 69.3264 16.6533H73.1513C72.9089 17.5274 72.4774 18.3243 71.8531 19.0405C71.2288 19.7566 70.4759 20.3148 69.5927 20.7151C68.7113 21.1136 67.7197 21.3137 66.6217 21.3137Z" fill="#3643E6"/>
<path d="M76.1133 20.9777V6.90842H79.435L79.6866 9.22575C80.1328 8.40679 80.7516 7.76043 81.543 7.28668C82.3345 6.81293 83.2783 6.57422 84.3764 6.57422C85.5497 6.57422 86.5339 6.82027 87.3345 7.31422C88.1351 7.80817 88.7484 8.5188 89.1763 9.44977C89.6041 10.3807 89.819 11.5155 89.819 12.856V20.9777H86.051V13.1902C86.051 12.0921 85.8086 11.2456 85.3257 10.6507C84.8409 10.0557 84.1064 9.75826 83.1204 9.75826C82.5071 9.75826 81.9525 9.90699 81.4586 10.2045C80.9646 10.5019 80.579 10.9261 80.2999 11.4751C80.0208 12.0242 79.8812 12.6999 79.8812 13.4987V20.9777H76.1133Z" fill="#3643E6"/>
<path d="M99.1147 20.9774C98.147 20.9774 97.2913 20.8231 96.5477 20.5165C95.804 20.2098 95.2256 19.6975 94.8161 18.9814C94.4066 18.2652 94.2028 17.2828 94.2028 16.036V10.0628H91.7734V6.9081H94.2028L94.6214 3.05566H97.9707V6.9081H101.684V10.0628H97.9707V16.093C97.9707 16.7265 98.1103 17.1635 98.3894 17.4059C98.6685 17.6483 99.1423 17.7695 99.8125 17.7695H101.627V20.9774H99.1147Z" fill="#3643E6"/>
<path d="M110.726 21.3138C109.573 21.3138 108.614 21.1229 107.85 20.7409C107.086 20.359 106.515 19.8485 106.133 19.2058C105.752 18.5631 105.561 17.8525 105.561 17.0703C105.561 16.1962 105.779 15.4324 106.216 14.7823C106.653 14.1305 107.318 13.6237 108.212 13.2601C109.104 12.8965 110.241 12.7166 111.618 12.7166H115.052C115.052 12.0096 114.964 11.433 114.788 10.985C114.611 10.5388 114.323 10.2027 113.923 9.98056C113.522 9.75653 112.997 9.64636 112.345 9.64636C111.639 9.64636 111.038 9.7951 110.544 10.0926C110.05 10.39 109.749 10.8656 109.637 11.5157H105.981C106.075 10.4929 106.403 9.61698 106.973 8.89167C107.54 8.16635 108.293 7.59896 109.233 7.18948C110.173 6.77999 111.22 6.57617 112.373 6.57617C113.693 6.57617 114.843 6.79469 115.82 7.23171C116.796 7.66874 117.54 8.31142 118.052 9.15792C118.565 10.0044 118.82 11.0327 118.82 12.2428V20.9778H115.665L115.247 18.8276C115.041 19.2003 114.795 19.5345 114.507 19.832C114.218 20.1295 113.882 20.3902 113.502 20.6142C113.12 20.8382 112.707 21.009 112.259 21.1302C111.815 21.2532 111.302 21.3138 110.726 21.3138ZM111.648 18.4107C112.112 18.4107 112.536 18.3226 112.918 18.1463C113.3 17.97 113.631 17.724 113.91 17.4063C114.189 17.0905 114.413 16.7361 114.58 16.345C114.747 15.9538 114.859 15.526 114.914 15.0614V15.0339H112.039C111.444 15.0339 110.965 15.1037 110.601 15.2432C110.237 15.3828 109.973 15.5829 109.806 15.8437C109.639 16.1044 109.554 16.4019 109.554 16.7361C109.554 17.0905 109.639 17.3916 109.806 17.6432C109.973 17.8948 110.219 18.0857 110.546 18.2161C110.871 18.3446 111.238 18.4107 111.648 18.4107Z" fill="black"/>
<path d="M121.752 20.9775V0.879883H125.52V20.9775H121.752Z" fill="black"/>
<path d="M128.646 20.9775V0.879883H132.414V20.9775H128.646Z" fill="black"/>
<path d="M137.326 27.1198L140.732 19.4149H139.895L134.285 6.91016H138.36L142.379 15.9536L145.98 6.91016H150L141.318 27.1198H137.326Z" fill="black"/>
</svg>
