<svg width="658" height="668" viewBox="0 0 658 668" fill="none" xmlns="http://www.w3.org/2000/svg">
<g clip-path="url(#clip0_486_54124)">
<path d="M325.08 520.668C224.677 515.483 144 433.059 144 331.5C144 330.07 144.035 328.636 144.035 327.385H3.68359C3.68359 328.815 3.67969 330.248 3.67969 331.5C3.67969 510.48 146.864 655.842 325.08 661.027V520.668Z" fill="#201B3C"/>
<path d="M461.508 661.751C466.693 561.337 549.112 481.365 650.661 481.365C652.091 481.365 653.521 481.545 654.773 481.545L654.773 340.786C653.342 340.786 651.912 340.607 650.661 340.607C471.699 340.607 326.349 483.517 321.164 661.751L461.508 661.751V661.751Z" fill="#6700F6"/>
<path d="M521.422 8.73308C516.238 109.147 433.819 189.119 332.27 189.119C330.84 189.119 329.41 188.939 328.158 188.939L328.158 329.698C329.588 329.698 331.019 329.877 332.27 329.877C511.232 329.877 656.582 186.967 661.767 8.73308L521.422 8.73308V8.73308Z" fill="#201B3C"/>
<path d="M144.031 327.393C149.216 226.979 231.634 147.007 333.183 147.007C334.613 147.007 336.043 147.187 337.295 147.187L337.295 6.42833C335.865 6.42833 334.434 6.24902 333.183 6.24902C154.221 6.24902 8.87115 149.159 3.68644 327.393L144.031 327.393Z" fill="#201B3C"/>
</g>
<defs>
<clipPath id="clip0_486_54124">
<rect width="658" height="668" fill="white"/>
</clipPath>
</defs>
</svg>
